<svg width="66" height="72" viewBox="0 0 66 72" fill="none" xmlns="http://www.w3.org/2000/svg">
<path d="M44.5003 25.515C45.4252 27.4671 46.7292 28.9769 48.397 30.075C50.0648 31.1578 51.9752 31.7069 54.113 31.7069C56.2054 31.7069 58.1006 31.1578 59.7684 30.0598C61.4363 28.9617 62.7402 27.4213 63.6802 25.4692C64.6203 23.5171 65.0903 21.3057 65.0903 18.8655C65.0903 16.3796 64.6203 14.1682 63.6954 12.2161C62.7553 10.2639 61.4666 8.7541 59.7988 7.65603C58.1309 6.55795 56.2357 6.02417 54.113 6.02417C52.0207 6.02417 50.1254 6.5732 48.4425 7.67128C46.7595 8.76935 45.4556 10.3097 44.5003 12.2618C43.5603 14.214 43.0903 16.3949 43.0903 18.8198C43.0903 18.835 43.0903 18.8503 43.0903 18.8503C43.0903 18.8655 43.0903 18.8808 43.0903 18.8808C43.1054 21.3667 43.5755 23.5781 44.5003 25.515ZM49.3067 28.6719C47.8815 27.7416 46.805 26.4758 46.0014 24.7829C45.7891 24.3254 45.592 23.8526 45.4404 23.3493C46.2591 24.0051 47.2447 24.5389 48.4273 24.9507C48.7305 25.0574 49.0338 25.1489 49.337 25.2404C49.3522 25.3319 49.3673 25.4082 49.3977 25.4997C49.7767 27.1316 50.2922 28.4584 50.929 29.4802C50.3529 29.282 49.807 29.0074 49.3067 28.6719ZM50.3529 18.8655C50.3529 17.0506 50.4893 15.373 50.7471 13.8479C51.7781 13.6344 52.9001 13.5429 54.0979 13.5429C55.3108 13.5429 56.448 13.6497 57.4941 13.8632C57.7519 15.373 57.8884 17.0506 57.8884 18.8655C57.8884 20.6804 57.7519 22.358 57.4941 23.8678C56.448 24.0814 55.3108 24.1881 54.0979 24.1881C52.9001 24.1881 51.7781 24.0814 50.7471 23.8831C50.4742 22.358 50.3529 20.6804 50.3529 18.8655ZM55.5989 29.0532C54.9166 29.953 54.4011 30.0293 54.1737 30.0293C54.1585 30.0293 54.1434 30.0293 54.113 30.0293C53.7946 30.0293 53.2791 29.9225 52.6272 29.0532C52.0207 28.2449 51.5203 27.1011 51.1261 25.6217C52.0662 25.7742 53.0517 25.8352 54.0979 25.8352C55.1592 25.8352 56.1599 25.759 57.1151 25.6065C56.7209 27.1011 56.2205 28.2449 55.5989 29.0532ZM62.1944 24.7372C61.3756 26.43 60.2839 27.7263 58.8587 28.6567C58.3735 28.9769 57.8732 29.2362 57.3425 29.4497C57.9793 28.4279 58.4797 27.1163 58.8587 25.4997C58.8739 25.4082 58.9042 25.3167 58.9194 25.2404C59.2226 25.1642 59.5107 25.0727 59.7988 24.9659C60.9662 24.5541 61.9518 24.0356 62.7553 23.3951C62.5734 23.8526 62.3915 24.2949 62.1944 24.7372ZM62.4521 21.3819C61.7092 22.2207 60.6327 22.8918 59.2378 23.3951C59.4349 21.992 59.541 20.4974 59.541 18.8655C59.541 17.2489 59.4349 15.7391 59.2378 14.336C60.6327 14.824 61.7092 15.5103 62.4521 16.3491C63.1192 17.1116 63.4376 17.9352 63.4376 18.8503C63.4376 19.8111 63.1192 20.6346 62.4521 21.3819ZM58.889 9.05912C60.3143 9.98943 61.3908 11.2553 62.1944 12.9481C62.4218 13.4057 62.6037 13.8937 62.7705 14.3817C61.9518 13.7259 60.9662 13.1921 59.7836 12.7651C59.4955 12.6584 59.2074 12.5821 58.9042 12.4906C58.889 12.3991 58.8739 12.3076 58.8436 12.2313C58.4645 10.5995 57.949 9.28788 57.3122 8.25081C57.8732 8.46433 58.3887 8.7236 58.889 9.05912ZM52.6272 8.66259C53.2943 7.79328 53.7946 7.68653 54.113 7.68653C54.1282 7.68653 54.1434 7.68653 54.1737 7.68653C54.4011 7.68653 54.9166 7.76278 55.5989 8.66259C56.2205 9.47089 56.7209 10.6147 57.1151 12.0941C56.1599 11.9416 55.1592 11.8653 54.0979 11.8653C53.0517 11.8653 52.0662 11.9416 51.1261 12.0788C51.5052 10.6147 52.0207 9.47089 52.6272 8.66259ZM46.0014 12.9939C46.8201 11.301 47.9118 10.0199 49.3522 9.07437C49.8374 8.7541 50.3529 8.49483 50.8835 8.28132C50.2619 9.30313 49.7616 10.6147 49.3825 12.2313C49.3673 12.3228 49.3522 12.3991 49.3218 12.4906C49.0186 12.5821 48.7002 12.6736 48.4121 12.7804C47.2447 13.1921 46.2591 13.7259 45.4556 14.3665C45.6072 13.8784 45.8043 13.4362 46.0014 12.9939ZM44.7581 18.8503C44.7581 17.9352 45.0765 17.1269 45.7436 16.3644C46.4866 15.5103 47.5631 14.8392 48.958 14.336C48.9731 14.336 48.9731 14.336 48.9883 14.3207C48.7912 15.7238 48.6851 17.2337 48.6851 18.8503C48.6851 20.4669 48.7912 21.9767 48.9883 23.3798C48.9731 23.3798 48.9731 23.3798 48.958 23.3646C47.5631 22.8765 46.4714 22.1902 45.7285 21.3514C45.0765 20.6041 44.7429 19.7806 44.7429 18.8503C44.7581 18.8655 44.7581 18.8655 44.7581 18.8503C44.7581 18.8655 44.7581 18.8503 44.7581 18.8503ZM5.36733 51.3502H10.113L12.4631 42.5656L14.8132 51.3502H19.6044L23.1826 38.6918H24.9566V35.5501H17.9821V38.6918H19.7257L16.9814 48.2237H16.6782L14.1006 38.6918H15.9352V35.5501H8.93039V38.6918H10.5072L10.6892 39.3171L8.33908 48.2085H8.03584L5.33701 38.6766H7.03515V35.5349H0V38.6766H1.77395L5.36733 51.3502ZM34.7512 51.3502H42.5141V48.2085H40.5886L36.0551 35.5501H28.0041V38.6918H30.2026L30.2178 38.7071L26.5334 48.2085H24.6685V51.3502H32.204V48.2085H29.8084L30.5968 46.1343H36.1916L36.9345 48.2085H34.7512V51.3502ZM31.5217 43.5111L33.2653 38.8596H33.6444L35.3122 43.5111H31.5217ZM53.1881 51.3502H60.4811V48.2085H58.8587L55.796 44.4415C56.7815 44.1212 57.5548 43.6026 58.1006 42.8553C58.6465 42.1233 58.9345 41.2235 58.9345 40.1712C58.9345 38.7376 58.419 37.609 57.4032 36.7854C56.3873 35.9619 55.0076 35.5501 53.2488 35.5501H44.6975V38.6918H46.7595V48.2237H44.6975V51.3654H51.6265V48.2237H50.0345V45.1277H52.2784L54.7195 48.2237H53.173V51.3502H53.1881ZM52.9152 42.6113H50.0496V38.5241H52.9152C53.6733 38.5241 54.295 38.7071 54.7498 39.0883C55.2047 39.4696 55.4321 39.9577 55.4321 40.583C55.4321 41.193 55.2047 41.6963 54.7498 42.0623C54.295 42.4283 53.6885 42.6113 52.9152 42.6113ZM65.3784 47.8882C64.969 47.4764 64.4687 47.2781 63.8622 47.2781C63.2709 47.2781 62.7553 47.4764 62.346 47.8882C61.9366 48.3 61.7243 48.8032 61.7243 49.4285C61.7243 50.0233 61.9366 50.5419 62.346 50.9536C62.7553 51.3654 63.2557 51.5789 63.8622 51.5789C64.4535 51.5789 64.969 51.3654 65.3784 50.9536C65.7877 50.5419 66 50.0386 66 49.4285C66 48.8032 65.8029 48.3 65.3784 47.8882ZM0 59.0062H2.06203V68.538H0V71.6797H7.39904V68.538H5.33701V59.0062H7.39904V55.8645H0V59.0062ZM19.4225 59.0062H21.5148V66.1436L14.889 55.8797H8.85458V59.0214H10.9469L10.9621 59.0367V68.538H8.90007V71.6797H16.5569V68.538H14.1006V60.6228L21.348 71.8628H24.6533V59.0214H26.4728V55.8797H19.4225V59.0062ZM29.1413 67.6077C28.55 67.6077 28.0345 67.806 27.6251 68.2178C27.2157 68.6295 27.0034 69.1328 27.0034 69.7581C27.0034 70.3529 27.2157 70.8714 27.6251 71.2832C28.0345 71.695 28.5348 71.9085 29.1413 71.9085C29.7326 71.9085 30.2481 71.695 30.6575 71.2832C31.0669 70.8714 31.2791 70.3682 31.2791 69.7581C31.2791 69.1481 31.0669 68.6295 30.6575 68.2178C30.2329 67.806 29.7326 67.6077 29.1413 67.6077ZM48.5183 55.8645H40.9979V59.0062H43.2571V65.1218C43.2571 65.8234 43.1206 66.4639 42.8325 67.0129C42.5445 67.5772 42.1502 68.0043 41.6347 68.3093C41.1192 68.6143 40.5279 68.7668 39.8759 68.7668C39.1785 68.7668 38.5569 68.6143 38.011 68.3093C37.4652 68.0043 37.0558 67.562 36.7526 67.0129C36.4493 66.4639 36.2977 65.8234 36.2977 65.1218V59.0062H38.5569V55.8645H31.0365V59.0062H32.9621V65.2286C32.9621 66.5402 33.2502 67.7145 33.8415 68.7363C34.4328 69.7734 35.2516 70.5664 36.2826 71.146C37.3287 71.7103 38.5114 72 39.8456 72C41.1344 72 42.2867 71.7103 43.3026 71.146C44.3184 70.5817 45.122 69.7734 45.6981 68.7363C46.2743 67.6992 46.5624 66.5402 46.5624 65.2286V59.0062H48.5183V55.8645ZM58.8436 55.8645H50.7926V59.0062H52.991L53.0062 59.0214L49.3218 68.5228H47.4569V71.6645H54.9924V68.5228H52.612L53.4004 66.4487H58.98L59.723 68.5228H57.5396V71.6645H65.3026V68.5228H63.377L58.8436 55.8645ZM54.3101 63.8255L56.0538 59.1739H56.4328L58.1006 63.8255H54.3101ZM4.29083 28.9312C4.39697 29.1142 4.54859 29.2972 4.71537 29.4955C4.88215 29.6937 5.07926 29.8615 5.27636 30.0293C5.88284 30.4868 6.61061 30.8528 7.45968 31.1273C8.29359 31.4018 9.15782 31.5391 10.0524 31.5391C11.7354 31.5391 13.2516 31.2036 14.601 30.5478C15.9504 29.892 17.0117 28.9617 17.7698 27.7721C18.5279 26.5825 18.907 25.2404 18.907 23.7306C18.907 22.4495 18.634 21.2904 18.0731 20.2381C17.5121 19.1858 16.754 18.3622 15.7684 17.7522C14.7981 17.1422 13.7216 16.8371 12.5693 16.8371H12.0992C11.9173 16.8371 11.7505 16.8524 11.5837 16.8676L18.1034 11.4535V7.01548H4.26051V5.78015H0V14.4275H4.26051V11.4383C4.26051 11.423 4.26051 11.4078 4.27567 11.4078C4.29083 11.4078 4.29083 11.4078 4.29083 11.3925C4.29083 11.3773 4.306 11.3773 4.32116 11.3773H12.7815L4.9428 17.8284L7.0958 20.7719L7.33839 20.5736C7.62647 20.2991 8.02068 20.1008 8.47554 19.9788C8.94556 19.8568 9.41558 19.7958 9.8856 19.7958C10.6285 19.7958 11.3108 19.9483 11.9325 20.2381C12.5389 20.5431 13.0241 20.9702 13.388 21.5192C13.7367 22.0835 13.9187 22.7088 13.9187 23.4256C13.9187 24.1271 13.7367 24.7829 13.3728 25.3777C13.009 25.9725 12.4783 26.4453 11.7808 26.7808C11.0834 27.1163 10.2798 27.2993 9.37009 27.2993C8.3694 27.2993 7.47485 27.0858 6.68642 26.6588C5.898 26.2318 5.30669 25.6522 4.88215 24.9202C4.45762 24.1881 4.24535 23.3798 4.24535 22.48V22.0072H0V31.0206H4.29083V28.9312ZM25.8663 30.0293C27.4128 31.0358 29.2019 31.5391 31.2185 31.5391C33.144 31.5391 34.8422 31.1426 36.2977 30.3495C37.7533 29.5565 38.8601 28.5194 39.6334 27.2383C40.4066 25.9572 40.7857 24.5846 40.7857 23.1205C40.7857 21.687 40.4369 20.3601 39.7395 19.14C39.042 17.9352 38.0262 16.9591 36.6919 16.2423C35.3577 15.5255 33.7657 15.1595 31.9462 15.1595C30.6272 15.1595 29.4142 15.4188 28.3074 15.9373C27.2006 16.4559 26.2908 17.1727 25.5631 18.1182V17.8742C25.5631 16.5779 25.7753 15.3883 26.215 14.336C26.6396 13.2836 27.2612 12.4601 28.0799 11.8501C28.8835 11.24 29.8539 10.935 30.9607 10.935C31.7795 10.935 32.4921 11.057 33.1137 11.3163C33.7202 11.5755 34.2054 11.9111 34.5389 12.3381C34.8725 12.7651 35.0544 13.2531 35.0848 13.7717V13.9699H39.785V6.63421H35.858V8.25081C35.4032 7.83904 34.827 7.48826 34.1144 7.18324C33.0682 6.72571 31.9917 6.49695 30.8697 6.49695C29.0352 6.49695 27.3522 7.01548 25.836 8.05255C24.3198 9.08962 23.122 10.5842 22.2426 12.5211C21.3632 14.458 20.9083 16.6999 20.9083 19.2468C20.9083 21.7175 21.3329 23.8831 22.1971 25.7285C23.1068 27.5891 24.3198 29.0227 25.8663 30.0293ZM27.1551 20.9549C27.5644 20.2991 28.1254 19.7806 28.8532 19.3993C29.581 19.018 30.3997 18.8198 31.3094 18.8198C32.1434 18.8198 32.9318 19.018 33.6595 19.3993C34.3873 19.7958 34.9635 20.3144 35.4032 21.0007C35.8277 21.6717 36.0551 22.4342 36.0551 23.2883C36.0551 24.0966 35.858 24.8134 35.4487 25.4692C35.0393 26.125 34.4783 26.6283 33.7808 26.9943C33.0834 27.3603 32.295 27.5433 31.4307 27.5433C30.4755 27.5433 29.6265 27.3298 28.8835 26.9028C28.1406 26.4758 27.5644 25.9267 27.1551 25.2557C26.7457 24.5846 26.5486 23.8831 26.5486 23.151C26.5486 22.3427 26.7457 21.6107 27.1551 20.9549Z" fill="white"/>
<path d="M65.9999 2.9892C65.9999 2.13514 65.7118 1.41834 65.1357 0.854056C64.5595 0.289769 63.862 0 63.0281 0C62.1942 0 61.4816 0.289769 60.9206 0.854056C60.3445 1.41834 60.0564 2.13514 60.0564 2.9892H65.9999Z" fill="#0B8BFF"/>
<path d="M65.9999 2.9892C65.9999 3.84325 65.7118 4.56005 65.1357 5.12434C64.5595 5.68862 63.862 5.97839 63.0281 5.97839C62.1942 5.97839 61.4816 5.68862 60.9206 5.12434C60.3445 4.56005 60.0564 3.84325 60.0564 2.9892H65.9999Z" fill="#F7CE03"/>
</svg>