<svg width="233" height="60" viewBox="0 0 233 60" fill="none" xmlns="http://www.w3.org/2000/svg">
<path d="M109.42 17.4918C108.179 17.4531 107.17 18.4227 107.131 19.625V30.7951C101.818 26.5287 94.0222 27.382 89.7558 32.6955C88.0105 34.9063 87.0409 37.6212 87.0409 40.4525C86.9245 47.2787 92.3544 52.9025 99.1806 53.0188C106.007 53.1352 111.631 47.7053 111.747 40.8791V19.7802C111.747 19.1596 111.514 18.5778 111.088 18.1512C110.622 17.7246 110.04 17.4918 109.42 17.4918ZM106.511 43.4389C105.735 45.3006 104.261 46.7744 102.4 47.5889C100.46 48.4034 98.2885 48.4034 96.3493 47.5889C94.4876 46.8132 93.0526 45.3006 92.2769 43.4777C91.4624 41.5773 91.4624 39.4053 92.2769 37.4661C93.0526 35.6044 94.5264 34.1306 96.3493 33.3549C98.2885 32.5404 100.46 32.5404 102.4 33.3549C104.261 34.1694 105.735 35.6432 106.511 37.5049C107.325 39.3665 107.325 41.5385 106.511 43.4389ZM135.212 31.7259C130.402 26.9166 122.568 26.9166 117.759 31.7259C115.431 34.053 114.152 37.1946 114.152 40.4525C114.035 47.2787 119.465 52.9025 126.291 53.0188C133.117 53.1352 138.741 47.7053 138.858 40.8791V40.4525C138.858 38.8235 138.547 37.2334 137.927 35.7208C137.306 34.2081 136.375 32.8507 135.212 31.7259ZM133.622 43.4002C133.234 44.331 132.652 45.1455 131.954 45.8436C131.256 46.5417 130.402 47.1235 129.51 47.5114C127.571 48.3258 125.399 48.3258 123.46 47.5114C121.598 46.7357 120.124 45.223 119.349 43.4002C118.534 41.4997 118.534 39.3277 119.349 37.3885C120.124 35.5268 121.598 34.0918 123.46 33.2773C125.399 32.4628 127.571 32.4628 129.51 33.2773C130.441 33.6652 131.256 34.2469 131.954 34.9451C132.652 35.6432 133.234 36.4964 133.622 37.3885C134.436 39.3665 134.436 41.5385 133.622 43.4002ZM186.291 30.3684C186.291 30.0582 186.214 29.7479 186.098 29.4764C185.981 29.2049 185.787 28.9722 185.593 28.7395C185.399 28.5455 185.128 28.3516 184.856 28.2353C184.585 28.1189 184.275 28.0413 183.964 28.0413C183.538 28.0413 183.111 28.1577 182.723 28.3904L169.536 36.9619V19.8189C169.536 19.1984 169.304 18.6166 168.877 18.19C168.45 17.7633 167.869 17.4918 167.248 17.4918C165.968 17.4918 164.96 18.5003 164.921 19.7802V50.459C164.921 51.0796 165.154 51.6613 165.58 52.088C166.007 52.5534 166.589 52.7861 167.209 52.7861C167.83 52.7861 168.412 52.5534 168.838 52.088C169.265 51.6613 169.536 51.0796 169.498 50.459V42.5081L172.174 40.7628L182.374 52.2043C182.801 52.5922 183.344 52.8249 183.926 52.7861C184.236 52.7861 184.546 52.7473 184.818 52.5922C185.089 52.4758 185.322 52.3207 185.555 52.088C185.748 51.8553 185.942 51.6226 186.059 51.3511C186.175 51.0796 186.253 50.7693 186.253 50.459C186.253 49.8772 186.02 49.2955 185.632 48.8688L176.169 38.203L185.399 32.1913C186.02 31.8035 186.33 31.1054 186.291 30.3684ZM148.011 34.9451C148.709 34.2469 149.562 33.6652 150.493 33.2773C151.463 32.8895 152.471 32.6567 153.518 32.6567C154.449 32.6567 155.341 32.8119 156.194 33.1222C157.048 33.4712 157.862 33.9366 158.56 34.5572C158.987 34.9063 159.53 35.0614 160.073 35.0614C160.693 35.1002 161.314 34.8675 161.741 34.4021C162.167 33.9754 162.4 33.3549 162.4 32.7343C162.4 32.075 162.128 31.4156 161.585 30.989C159.375 29.011 156.505 27.925 153.518 28.0026C146.692 28.0026 141.146 33.5488 141.146 40.3749C141.146 47.2011 146.653 52.7085 153.441 52.7473C156.427 52.7473 159.297 51.7001 161.547 49.7609C162.012 49.3343 162.284 48.7137 162.284 48.0543C162.322 46.8132 161.353 45.8048 160.15 45.766H159.995C159.452 45.766 158.948 45.9212 158.521 46.2315C157.823 46.852 157.048 47.3174 156.194 47.6665C155.341 47.9768 154.41 48.1319 153.518 48.1319C152.471 48.1319 151.463 47.938 150.493 47.5114C149.562 47.1235 148.748 46.5417 148.011 45.8436C144.986 42.8184 144.986 37.9315 147.972 34.9063C148.011 34.9838 148.011 34.9838 148.011 34.9451ZM232.096 29.6315C231.631 29.2049 231.127 28.8946 230.545 28.7007C229.886 28.468 229.188 28.3128 228.489 28.2353C227.791 28.1577 227.093 28.1189 226.395 28.1189C224.999 28.1189 223.564 28.3516 222.245 28.8558C220.926 29.3212 219.724 30.0194 218.638 30.8726V30.4072C218.599 29.1273 217.513 28.1577 216.233 28.1965C215.653 28.2158 215.102 28.455 214.692 28.8654C214.281 29.2759 214.042 29.827 214.023 30.4072V50.5366C214.061 51.8165 215.147 52.7861 216.427 52.7473C217.008 52.728 217.559 52.4888 217.969 52.0784C218.38 51.6679 218.619 51.1168 218.638 50.5366V40.4913C218.638 39.4441 218.832 38.4357 219.259 37.4661C219.646 36.5352 220.189 35.7208 220.926 35.0226C221.624 34.3245 222.478 33.7427 223.37 33.3549C224.339 32.967 225.348 32.7343 226.395 32.7343C227.442 32.7343 228.451 32.9282 229.42 33.2773C229.731 33.4324 230.041 33.51 230.39 33.51C230.7 33.51 231.01 33.4712 231.282 33.3161C231.553 33.1997 231.786 33.0446 232.019 32.8119C232.213 32.618 232.407 32.3465 232.523 32.075C232.639 31.8035 232.717 31.4932 232.717 31.1829C232.756 30.6011 232.523 30.0582 232.096 29.6315ZM210.687 35.7208C208.709 31.1441 204.21 28.1577 199.246 28.1189C192.419 28.1189 186.912 33.6264 186.873 40.4525C186.873 47.2787 192.419 52.8249 199.246 52.8249C202.193 52.8249 205.063 51.7777 207.313 49.8385L207.39 49.7609C207.584 49.6057 207.778 49.4118 207.895 49.1791C208.632 48.0931 208.36 46.6581 207.313 45.9212C206.421 45.3394 205.257 45.4558 204.482 46.1927C204.404 46.2702 204.171 46.4642 204.171 46.5029L204.133 46.5417C203.473 47.0847 202.736 47.5501 201.922 47.8216C201.068 48.1319 200.176 48.2871 199.246 48.2483C198.392 48.2483 197.578 48.1319 196.763 47.8604C195.988 47.5889 195.251 47.2399 194.591 46.7357C193.932 46.2702 193.35 45.6885 192.885 45.0291C192.381 44.3698 192.032 43.5941 191.799 42.8184H209.252C209.873 42.8184 210.454 42.5857 210.881 42.159C211.346 41.7324 211.579 41.1506 211.54 40.5301C211.579 38.8623 211.269 37.2334 210.687 35.7208ZM191.799 38.203C192.032 37.3885 192.381 36.6516 192.885 35.9922C193.35 35.3329 193.932 34.7511 194.591 34.2857C195.251 33.8203 195.988 33.4324 196.763 33.1609C197.539 32.8895 198.392 32.7731 199.207 32.7731C200.021 32.7731 200.875 32.8895 201.65 33.1609C203.202 33.6651 204.559 34.6736 205.529 35.9922C206.033 36.6516 206.382 37.4273 206.654 38.203H191.799ZM224.223 49.4506C223.331 49.4506 222.633 50.1875 222.633 51.0796C222.633 51.9716 223.37 52.6698 224.262 52.6698C225.154 52.6698 225.852 51.9328 225.852 51.0796C225.852 50.1487 225.115 49.4506 224.223 49.4506ZM224.223 52.3207C223.525 52.3595 222.943 51.8165 222.904 51.1184C222.866 50.4202 223.409 49.8384 224.107 49.7997C224.805 49.7609 225.387 50.3039 225.425 51.002V51.0796C225.464 51.7389 224.921 52.3207 224.262 52.3207H224.223Z" fill="#0091E2"/>
<path d="M224.608 51.0794C224.802 51.0406 224.919 50.8855 224.919 50.6916C224.919 50.5364 224.88 50.4201 224.764 50.3425C224.608 50.2649 224.414 50.2262 224.221 50.2262C224.027 50.2262 223.794 50.2262 223.6 50.2649V51.8551H223.949V51.2346H224.104C224.298 51.2346 224.414 51.3121 224.453 51.4673C224.492 51.5836 224.531 51.7388 224.57 51.8551H224.957C224.88 51.7388 224.841 51.5836 224.841 51.4673C224.88 51.3121 224.764 51.157 224.608 51.0794ZM224.143 50.9631H223.949V50.4977H224.143C224.376 50.4977 224.492 50.614 224.492 50.7304C224.531 50.8855 224.337 51.0019 224.143 50.9631ZM82.8108 22.6889C82.5781 22.495 80.4837 20.9048 75.9847 20.9048C74.8211 20.9048 73.6188 21.0211 72.4552 21.2151C71.602 15.281 66.6763 12.4109 66.4824 12.2557L65.28 11.5576L64.5043 12.6824C63.5347 14.195 62.7978 15.9015 62.3712 17.6468C61.5567 21.0211 62.0609 24.2015 63.7674 26.9164C61.7118 28.08 58.3763 28.3515 57.6782 28.3903L2.60365 28.3903C1.16861 28.3903 0.00506209 29.5538 0.00506209 30.9888C-0.0725077 35.7982 0.741975 40.6075 2.40973 45.1453C4.31019 50.1098 7.14148 53.7944 10.7873 56.0439C14.8985 58.5649 21.6082 60 29.1713 60C32.5844 60 35.9974 59.6897 39.3717 59.0691C44.0647 58.2159 48.5638 56.5869 52.7137 54.221C56.1268 52.243 59.1908 49.722 61.7894 46.7743C66.1721 41.8486 68.7707 36.3412 70.6711 31.4543H71.4468C76.2174 31.4543 79.165 29.5538 80.794 27.9248C81.88 26.9164 82.6945 25.6753 83.2762 24.2791L83.6253 23.2706L82.8108 22.6889Z" fill="#0091E2"/>
<path d="M7.72184 26.8004H15.091C15.44 26.8004 15.7503 26.5289 15.7503 26.141L15.7503 19.5476C15.7503 19.1985 15.4788 18.8882 15.091 18.8882H7.72184C7.37278 18.8882 7.0625 19.1597 7.0625 19.5476L7.0625 26.141C7.10128 26.5289 7.37278 26.8004 7.72184 26.8004ZM17.8835 26.8004L25.2526 26.8004C25.6017 26.8004 25.912 26.5289 25.912 26.141V19.5476C25.912 19.1985 25.6405 18.8882 25.2526 18.8882L17.8835 18.8882C17.5344 18.8882 17.2241 19.1597 17.2241 19.5476L17.2241 26.141C17.2629 26.5289 17.5344 26.8004 17.8835 26.8004ZM28.2391 26.8004H35.6082C35.9572 26.8004 36.2675 26.5289 36.2675 26.141V19.5476C36.2675 19.1985 35.996 18.8882 35.6082 18.8882H28.2391C27.89 18.8882 27.5797 19.1597 27.5797 19.5476V26.141C27.5797 26.5289 27.8512 26.8004 28.2391 26.8004ZM38.4395 26.8004H45.8086C46.1577 26.8004 46.468 26.5289 46.468 26.141V19.5476C46.468 19.1985 46.1965 18.8882 45.8086 18.8882H38.4395C38.0904 18.8882 37.7801 19.1597 37.7801 19.5476V26.141C37.7801 26.5289 38.0904 26.8004 38.4395 26.8004ZM17.8835 17.3756L25.2526 17.3756C25.6017 17.3756 25.912 17.0654 25.912 16.7163L25.912 10.1229C25.912 9.7738 25.6405 9.46351 25.2526 9.46351H17.8835C17.5344 9.46351 17.2241 9.73501 17.2241 10.1229V16.7163C17.2629 17.0654 17.5344 17.3756 17.8835 17.3756ZM28.2391 17.3756H35.6082C35.9572 17.3756 36.2675 17.0654 36.2675 16.7163V10.1229C36.2675 9.7738 35.996 9.46351 35.6082 9.46351L28.2391 9.46351C27.89 9.46351 27.5797 9.73501 27.5797 10.1229L27.5797 16.7163C27.5797 17.0654 27.8512 17.3756 28.2391 17.3756ZM38.4395 17.3756H45.8086C46.1577 17.3756 46.468 17.0654 46.468 16.7163V10.1229C46.468 9.7738 46.1577 9.46351 45.8086 9.46351L38.4395 9.46351C38.0904 9.46351 37.7801 9.73501 37.7801 10.1229V16.7163C37.7801 17.0654 38.0904 17.3756 38.4395 17.3756ZM38.4395 7.91212L45.8086 7.91212C46.1577 7.91212 46.468 7.64063 46.468 7.25278V0.659348C46.468 0.310284 46.1577 0 45.8086 0L38.4395 0C38.0904 0 37.7801 0.271499 37.7801 0.659348V7.25278C37.7801 7.60184 38.0904 7.91212 38.4395 7.91212ZM48.7175 26.8004L56.0866 26.8004C56.4357 26.8004 56.746 26.5289 56.746 26.141V19.5476C56.746 19.1985 56.4745 18.8882 56.0866 18.8882L48.7175 18.8882C48.3684 18.8882 48.0581 19.1597 48.0581 19.5476V26.141C48.0969 26.5289 48.3684 26.8004 48.7175 26.8004Z" fill="#0091E2"/>
</svg>
