<svg width="74" height="111" viewBox="0 0 74 111" fill="none" xmlns="http://www.w3.org/2000/svg">
<path fill-rule="evenodd" clip-rule="evenodd" d="M52.382 103.837L54.0392 102.575L55.6256 101.242L57.1586 99.8552L58.6376 98.3976L60.0634 96.8692L61.4182 95.305L62.7013 93.6695L63.9312 91.9993L65.0895 90.2749L66.177 88.5148L67.2104 86.7196L68.1733 84.8715L69.0644 83.0051L69.8841 81.1031L70.6325 79.1839L71.3105 77.2458L71.9157 75.2909L72.4507 73.3183L72.8961 71.3268L73.2702 69.337L73.574 67.3279L73.8049 65.3373L73.9473 63.3464L74.0017 61.3563V10.5561H58.8868V16.0661H53.4159C53.3979 15.4976 53.4159 14.9466 53.4692 14.3779C53.5047 14.0043 53.5766 13.649 53.6476 13.2757C53.7189 13.0092 53.7905 12.7601 53.8793 12.5113C53.9684 12.2805 54.0753 12.0668 54.1824 11.8538C54.307 11.6584 54.4321 11.4804 54.5748 11.3025L54.8953 11.0008C55.0731 10.8583 55.2338 10.7518 55.4303 10.6272L55.8754 10.4496L56.1249 10.3782L57.4083 10.0942V-0.00195312H44.8254V4.40602H43.5419V-0.00195312H30.424V4.40602H29.1411V-0.00195312H16.5398L16.6292 10.1119C17.1817 10.2185 17.7519 10.3073 18.2867 10.485C18.4115 10.5384 18.5539 10.5915 18.6788 10.6632C19.0531 10.876 19.3204 11.1251 19.5876 11.4627L19.7483 11.6938C20.1226 12.3159 20.354 13.0092 20.4789 13.7198V16.0663H15.096V10.5561H0V61.4269L0.0535574 63.3998L0.196192 65.4081L0.409867 67.3993L0.713174 69.3899L1.08752 71.3802L1.53263 73.3714L2.04989 75.3446L2.65567 77.2998L3.33277 79.237L4.06371 81.1568L4.88344 83.058L5.75701 84.9249L6.71938 86.7556L7.7353 88.5502L8.82227 90.3103L9.96307 92.0345L11.1929 93.7052L12.4761 95.3224L13.8131 96.9046L15.2211 98.4153L16.6824 99.8727L18.2154 101.259L19.8015 102.593L21.4591 103.854L23.1524 105.028L24.9167 106.129L26.7343 107.16L28.6061 108.085L30.5308 108.938L32.5088 109.702L34.5412 110.36L36.8939 111L39.264 110.36L41.2961 109.702L43.2744 108.938L45.1992 108.085L47.0706 107.143L48.9065 106.129L50.6706 105.028L52.382 103.837Z" fill="white"/>
<path fill-rule="evenodd" clip-rule="evenodd" d="M36.8942 109.738C58.6382 104.495 72.5584 81.9921 72.7718 61.3382V11.7654H60.1178V17.2753H52.2571C51.9721 14.3958 52.2044 9.84559 56.179 9.13491V1.20703H46.0555V5.61556H42.2949V1.20703H31.6544V5.61556H27.9115V1.20703H17.9484L17.8596 9.13491C20.3544 9.57908 21.3348 11.4986 21.7269 13.6137V17.2756H13.8492V11.7654H1.23047V61.4096C1.42666 82.0635 15.1682 104.495 36.8944 109.738" fill="#00A650"/>
<path fill-rule="evenodd" clip-rule="evenodd" d="M3.24219 33.4136V13.6126H11.8502V19.23H23.7386V13.6129C23.7206 10.9111 21.8316 8.40514 19.8175 7.85387V3.12598H25.9308V7.51624H33.6126V3.12598H40.332V7.51624H48.0312V3.12598H54.1975V7.85387C51.8451 8.4937 50.2057 11.2133 50.2592 13.6129V19.23H62.1296V13.6129H70.7559V33.3605L3.24219 33.4136ZM60.1155 77.1923V81.4403H64.4284C64.4284 82.8628 54.6792 90.2745 54.6792 89.545C54.7148 89.545 57.2461 85.1373 57.2461 84.5689C57.2461 84.5689 55.4282 81.4229 55.3569 81.4229L60.1155 77.1923ZM14.5778 73.904V80.3029H12.5456V35.0666H22.8831V78.3477C22.8831 78.4011 21.0116 80.6757 21.0116 80.3029L14.5778 73.904ZM31.652 35.0666H42.2925V82.0627C42.2925 82.8982 31.6698 82.756 31.652 82.0984V35.0666Z" fill="white"/>
<path fill-rule="evenodd" clip-rule="evenodd" d="M54.7865 80.7835L51.8281 76.5707V35.0674H62.1303V80.3034H60.7936V74.7574L54.7865 80.7835Z" fill="white"/>
<path fill-rule="evenodd" clip-rule="evenodd" d="M32.8306 80.6413C32.6347 80.1432 32.6347 80.1432 32.1532 79.717C30.7985 79.9661 29.3017 80.3574 28.0363 80.2152C28.0718 79.9121 28.1431 79.5925 28.2144 79.3083C27.5728 79.3083 27.448 79.45 26.8599 79.45C26.8599 77.6016 27.2698 76.713 28.3748 75.3088C29.0341 75.3088 29.8364 75.3619 30.5135 75.3976C30.246 72.8203 28.0898 70.5986 27.448 68.039C26.5211 67.5765 26.2181 67.364 25.826 66.7065C24.2043 66.7065 20.9781 70.2432 19.8375 71.2207C19.4277 73.5667 19.6594 74.7935 17.1996 75.4687C17.1819 75.1311 17.1819 74.5087 17.1641 74.1888C15.9165 75.0246 14.2948 75.469 12.9222 75.469C12.8334 75.0246 12.7438 74.5978 12.655 74.1888C12.6189 74.3136 12.6014 74.4379 12.5659 74.5624C12.4055 74.491 12.2271 74.4561 12.0489 74.4199C11.9776 73.9043 11.9241 73.407 11.8528 72.9266C11.5678 72.9091 11.3183 72.874 11.0508 72.874C11.1396 70.8648 11.8172 71.0959 12.3517 69.7274C16.6474 69.8699 16.3618 69.1761 18.8036 65.657C19.3919 65.3374 19.5167 65.1597 19.7129 64.6082C19.1069 64.5908 18.6077 64.7507 18.0196 64.715C17.9663 64.5905 17.9306 64.4308 17.877 64.2354C19.1424 63.2748 19.8375 62.0669 20.7644 60.8221C20.6753 60.7341 20.5862 60.6449 20.5146 60.5738C19.8226 60.7529 19.1334 60.9425 18.4473 61.1425C18.9107 59.3473 21.4415 58.1747 21.3527 55.7751C20.5685 56.3438 20.2296 56.6277 19.3205 56.752C19.4454 56.2372 19.4454 56.2372 20.0692 55.4549C20.4969 51.8821 20.4969 51.8821 20.9428 50.6199C21.7981 49.3579 21.7981 49.3579 22.0653 48.665C21.9585 48.5225 21.8694 48.3805 21.7803 48.2385C20.9958 48.4336 20.9958 49.1806 20.6931 49.8912C20.5146 49.9269 20.3545 49.9803 20.1938 50.0335C19.6771 48.1317 19.3744 45.4833 20.105 43.866H21.1384C21.7625 44.4704 22.814 44.5766 23.7586 44.1145C23.7408 43.9191 23.7408 43.7057 23.7408 43.5101C22.9744 42.9062 22.0653 43.3327 21.2456 43.4035C20.5786 43.1768 19.9071 42.9635 19.2315 42.7637C18.8929 41.8748 19.0356 41.4129 19.1066 40.5951C19.2137 40.5774 19.3383 40.5597 19.4812 40.542C19.6239 39.8488 19.802 39.1729 19.9799 38.4977C21.4773 37.7867 22.4752 38.0001 24.2578 38.0181C24.2933 37.8936 24.3111 37.769 24.3289 37.6625C25.3806 37.3249 25.3806 37.3249 26.6637 37.1823C26.6815 37.0583 26.6995 36.9335 26.7173 36.827C27.7513 36.3468 27.5906 36.2763 28.909 36.4005C28.909 36.5071 28.9273 36.6319 28.9451 36.7559C29.4446 36.827 29.9788 36.8804 30.4957 36.9512C31.351 38.5154 31.5827 38.7468 33.258 39.973C34.1138 41.9462 34.8619 45.4301 36.8582 46.9054C35.6822 47.2251 35.6822 47.2251 35.0406 47.1362C35.7355 48.7358 36.1817 50.6199 36.5203 51.1709C36.8943 51.1355 37.2862 51.0823 37.678 51.0469C37.8212 50.8513 37.9458 50.6733 38.0709 50.4779C38.6587 52.1841 37.6605 52.3443 35.9675 52.895C38.8546 54.7614 43.0609 53.8193 46.2688 52.8416C49.1212 52.9133 54.2361 54.1752 56.3029 51.7399C56.8921 51.0469 56.624 50.5845 56.054 49.9089C54.2181 49.4645 51.402 50.0689 49.9052 50.8156C44.5045 50.8156 41.3857 49.4291 41.3857 44.1145C43.7563 40.1867 45.8945 40.6663 50.4213 40.4532C51.6695 38.5691 54.0577 39.5645 56.0898 39.8133C56.3923 39.5288 56.3923 39.5288 56.5349 38.9244C56.7849 39.049 57.0169 39.1729 57.2839 39.2978C57.2839 40.2221 57.3194 40.7728 56.7849 41.7151C57.8536 42.5323 58.2463 43.0659 59.8147 43.3327V43.9545C58.2463 44.0613 57.1055 45.5541 55.7155 45.2519C55.7327 45.4473 55.7513 45.6609 55.8045 45.8566C55.698 45.9631 55.5903 46.0697 55.4657 46.1765C52.5076 45.0034 51.2954 46.1942 49.5308 43.4035C44.3444 41.7505 41.5999 46.5321 47.6411 48.0251C52.6138 47.7227 58.9769 44.4167 59.8863 51.7399C59.066 54.8685 57.2123 55.1173 54.1826 55.526C54.2719 56.0942 55.1094 57.3212 55.537 58.9917C55.6619 62.2622 54.5924 63.5247 57.5336 65.4974C57.8184 65.9241 58.264 66.2972 58.5487 66.7416H58.8701C59.6188 64.7867 60.1355 65.1412 62.2739 64.6085C62.2922 65.2306 62.1318 65.835 62.1673 66.4566C62.3272 66.4211 62.5236 66.4034 62.684 66.3863C62.4881 67.7191 62.4704 69.0699 62.2739 70.4212H61.6864C61.5435 70.2253 61.4186 70.0119 61.2938 69.8162C61.0978 69.7993 60.7238 69.8162 60.5634 69.8162C60.4912 70.0299 60.474 70.1898 60.4207 70.4212C60.5098 70.5457 62.2922 72.2159 62.7018 72.3764C62.684 72.6069 62.6663 72.838 62.6308 73.0871C62.3458 73.1048 62.096 73.1405 61.8288 73.1759C61.1692 75.5224 61.6145 75.984 59.8319 78.2066C58.5132 78.6327 57.0877 79.5388 56.8921 79.45C56.6062 78.5616 56.6062 78.5616 56.6956 78.1703H56.3573C56.1431 78.4371 55.9291 78.7393 55.7329 79.0238H55.1452C54.8774 78.5616 54.8774 78.5616 54.8774 77.6196C53.7724 78.188 53.7724 78.188 53.0595 78.3308C52.6499 76.8198 52.7207 75.3804 54.0577 74.4733C56.7133 74.0648 56.4106 73.7623 56.4106 71.2207C55.7862 69.1055 55.5198 69.0167 53.5404 68.9456C53.4522 69.6031 53.3628 70.2967 53.2735 70.9896H52.6141C52.5958 70.8645 52.5786 70.7406 52.5608 70.6163C52.4002 70.5457 52.257 70.4918 52.0971 70.4569C52.3824 71.1144 52.4712 71.3981 52.4182 72.3221C52.5786 72.3941 52.7207 72.4829 52.8994 72.5892C52.8811 72.8203 52.8633 73.0516 52.8456 73.3007C52.5608 73.3007 52.2756 73.3184 52.0083 73.3359C51.9193 73.798 51.8296 74.2956 51.7408 74.776C51.5802 74.7041 51.402 74.6687 51.2239 74.6155C51.1178 74.3469 51.0226 74.0742 50.9383 73.798C50.2615 74.6869 50.0658 79.5031 47.9088 78.775C47.8378 78.4374 47.7484 78.0994 47.6769 77.797C47.3561 78.0455 47.3561 78.0455 47.0536 77.9575C46.9998 78.0815 46.982 78.2066 46.9645 78.3308C45.6811 78.6325 44.8433 79.0238 44.0416 79.0238C43.9697 78.7393 43.9162 78.4371 43.8451 78.1703C43.5601 78.1529 43.2929 78.1172 43.0432 78.1172C43.132 77.6016 43.2394 77.0689 43.3459 76.5707C42.9899 76.6418 42.6688 76.6953 42.3483 76.7838C42.0983 73.0871 44.6116 73.9937 47.0536 73.6732C49.5128 68.9096 45.9663 69.3726 44.8611 65.7639V63.3648C42.6508 62.2982 39.7104 64.8216 38.0878 65.8173C36.6449 66.1552 35.201 66.4928 33.7394 66.8482C33.7394 68.626 33.7575 70.4029 33.7752 72.2159C34.4701 74.3136 36.6984 79.9658 32.8306 80.6413Z" fill="#231F20"/>
<path fill-rule="evenodd" clip-rule="evenodd" d="M30.2096 79.3795C29.3893 78.7397 29.4431 78.722 29.3363 77.9216C29.9776 77.8153 30.6017 77.7268 31.2252 77.6382V77.1224C30.2096 77.2286 29.3363 77.1224 28.7122 77.8336C28.4805 77.62 28.2846 77.442 28.0886 77.2464C28.4272 76.4466 28.4624 76.2338 29.3363 76.0198C29.389 76.1087 29.4251 76.2155 29.4612 76.3223C30.3877 76.3223 30.3877 76.3223 30.958 75.9847C31.0648 75.2914 31.1717 74.5982 31.2965 73.9224C31.4037 73.9047 31.5285 73.8875 31.6706 73.8693C31.5638 72.785 30.6369 72.3945 30.3697 71.665C30.2273 71.6476 30.1027 71.6299 29.9956 71.6299C29.5142 70.2611 28.4624 68.6795 28.6411 67.4881C28.8193 67.3998 29.0155 67.3459 29.2111 67.2756V66.9194C27.3399 66.4572 27.34 66.4572 26.5913 65.9774C26.1456 65.071 24.916 63.2578 25.8781 62.4583C26.1636 62.5648 26.1636 62.5648 26.5199 63.3115C26.7161 63.2938 26.9123 63.2938 27.1438 63.2938C27.6249 62.6534 28.0886 61.9958 28.5696 61.3383C28.5518 62.4583 28.5518 62.4583 28.8015 62.7251C29.5502 62.494 32.2411 58.0141 32.4906 57.3571C32.58 57.7655 32.4906 58.068 33.0964 58.3702C33.4172 57.8015 34.059 56.7881 34.7189 56.6818C35.093 55.7035 35.592 54.7261 35.4318 53.8197C40.2798 54.7261 41.5987 55.0103 46.4816 53.6778C50.0999 53.8729 54.1461 55.1177 57.1756 52.2022C57.7101 50.5137 57.1223 49.7317 56.6228 49.3052C56.1067 48.8787 55.1615 48.8605 53.5037 48.8605C49.1556 50.1224 45.2872 50.8159 42.4714 46.9056C41.2776 41.6087 46.3037 40.5067 50.724 41.6087C51.7752 39.1562 54.2882 40.4358 56.6764 40.5601C56.231 41.1999 55.8924 41.4313 55.2148 41.7689C55.2148 41.8934 55.2328 42.0177 55.2506 42.142C56.9974 42.5684 56.9974 42.5684 58.0667 43.1194V43.7415C54.6445 45.3771 55.1254 43.0483 53.0406 43.2442C52.9693 43.3508 52.8982 43.475 52.8621 43.5999C53.4868 43.9906 54.1275 44.4171 54.7514 44.8258C51.6683 44.6482 51.4899 44.8792 50.2964 42.5684C41.5987 40.187 40.5287 49.554 49.7431 48.6474C53.5934 47.8122 58.797 46.1592 58.797 51.9534C57.7817 54.3527 55.2686 54.6555 52.8799 54.904C53.5756 56.2725 54.2349 57.4639 54.6631 59.206C54.8762 62.7782 54.8762 62.7782 55.144 63.2578C55.0192 63.3115 54.912 63.3826 54.8052 63.4357C54.627 62.8139 54.4489 62.2098 54.2882 61.6048H53.7532C53.8961 64.2358 56.4272 65.4086 58.0841 67.5064C59.7602 67.5064 59.4922 65.8177 61.5423 65.5335C61.5598 65.9774 61.5962 66.4218 61.6134 66.8663C60.8117 67.3998 60.8117 67.3998 60.7226 67.7906C61.0614 67.684 61.4175 67.5769 61.7918 67.4881C61.7918 67.7017 61.8098 67.9148 61.8279 68.1282C59.6356 69.0885 59.7958 68.8032 59.7244 71.2211C60.8117 71.3808 61.4713 71.3456 61.3991 72.7498C61.2746 72.5716 60.883 72.2877 60.7939 72.1272C60.4018 72.2163 60.4554 72.1631 60.3477 72.4119C60.5086 72.8207 60.5622 72.9455 60.954 72.9986C60.883 73.2294 61.0073 73.3363 60.954 73.5671H60.3477C59.8668 72.6959 59.9384 72.8207 59.7955 71.7898H59.475C59.475 72.5193 59.4389 73.0875 59.475 73.8515C60.5794 75.4871 60.9005 75.6999 59.4389 77.3535H57.9776C57.8775 77.0826 57.7825 76.8098 57.6926 76.5354C57.5325 76.5711 57.3893 76.6422 57.2292 76.6959C57.2111 76.8202 57.1934 76.9444 57.1934 77.0692C57.0158 77.1224 56.8726 77.1578 56.7122 77.2112C56.5101 77.0608 56.3021 76.9184 56.0886 76.7845C56.0345 76.4463 55.9996 76.1087 55.9457 75.7887C55.8208 75.7353 55.6968 75.6642 55.5891 75.6291C55.4462 75.9667 55.3397 76.3046 55.2328 76.6599C54.912 76.5888 54.5738 76.5537 54.2707 76.5183C54.021 76.0561 54.021 76.0561 54.0565 75.3092C54.7158 74.6873 56.1067 75.114 57.2827 73.6736C57.2827 70.8478 57.7101 69.1411 54.9656 68.1456C51.579 68.1456 50.6349 67.3104 48.1746 65.3907C44.8957 61.5694 44.076 61.3206 39.8161 63.7022C39.798 63.8265 39.78 63.9513 39.78 64.0756C37.5525 64.8754 35.7171 65.5869 33.471 65.9602C34.2194 63.8265 34.2194 63.8265 34.273 63.0627H33.9522C33.9339 63.1872 33.9164 63.3115 33.9164 63.4357C33.7741 63.4357 33.6489 63.4717 33.5243 63.4891C33.4352 63.8805 33.3462 64.2889 33.2568 64.6977C32.9896 64.7511 32.7404 64.7871 32.4729 64.8222C33.2216 68.964 32.4013 72.092 34.4689 76.1978C34.1306 77.1578 34.0233 77.7619 33.9702 79.0242C33.4352 79.0773 32.9008 79.1127 32.3838 79.1664C32.3657 78.8459 32.3483 78.5083 32.3125 78.1707C32.0808 78.2241 31.849 78.2958 31.5996 78.3486C31.5638 78.6331 31.5285 78.9002 31.5102 79.1664C31.0826 79.2378 30.6369 79.3087 30.2096 79.3795Z" fill="#E6A909"/>
<path fill-rule="evenodd" clip-rule="evenodd" d="M53.3071 90.3106C52.6655 90.0439 52.3622 89.8305 51.8453 88.4443C51.8453 88.1778 55.2854 86.7022 55.2854 86.4182C55.4816 86.2403 53.5383 89.5283 53.3071 90.3106ZM20.3169 89.6C20.3879 89.1198 11.0664 83.3076 11.0664 81.441H15.6471V76.5352L20.5305 81.5475L18.0885 84.9252L20.3169 89.6Z" fill="white"/>
<path fill-rule="evenodd" clip-rule="evenodd" d="M21.7095 90.2937L19.6774 86.1873C19.6774 86.1873 23.1886 88.1246 23.1886 88.2134C23.4023 88.4799 22.0656 90.2937 21.7095 90.2937ZM37.5539 90.9152C31.0127 90.9329 23.0462 87.8224 19.4102 84.9254L23.3667 79.4154C27.769 82.8808 31.9928 83.8583 37.5539 83.8583C43.2041 83.8765 47.7487 82.2587 52.3646 78.9707L56.3751 84.6406C52.8286 87.8223 44.1129 90.8967 37.5539 90.9152ZM51.8299 100.122C51.8476 99.0205 51.7591 92.6748 51.8299 90.4705C52.2572 90.9686 52.9352 91.164 53.6481 91.6436C56.6958 89.813 59.601 87.5381 62.1676 85.3516C62.1676 85.1919 62.2206 88.178 62.1321 89.0312C61.6681 90.7553 53.6656 98.4695 51.8299 100.122ZM31.6546 105.544V91.2703C36.1992 92.3374 37.8925 92.1772 42.295 91.4665V105.739C42.295 106.308 36.8946 107.534 36.8946 107.534C36.8946 107.623 31.6546 106.486 31.6546 105.544Z" fill="white"/>
<path fill-rule="evenodd" clip-rule="evenodd" d="M23.1167 100.264C23.0632 100.584 13.5458 92.1583 12.5476 89.6344L12.4766 84.96C12.5124 84.96 18.4472 90.3805 21.7803 91.358C21.8158 91.358 22.4219 90.7005 22.4219 90.665C22.4752 90.665 22.8317 90.0961 22.8317 90.0429L23.117 100.263" fill="white"/>
<path fill-rule="evenodd" clip-rule="evenodd" d="M15.6498 30.8012L15.5785 30.908H15.6498V30.8012ZM15.6498 21.6653V21.7362C15.1864 22.3406 12.4236 26.0733 12.4236 26.1267L15.2222 30.908H12.067L9.98213 27.3707V30.908H7.27262V22.767L6.61328 21.6653H9.98213V25.5754C10.1783 25.3089 12.816 21.665 12.8515 21.665L15.6498 21.6653ZM15.6498 21.7362V21.6653H15.7031C15.685 21.6653 15.6675 21.7007 15.6498 21.7362ZM19.963 22.767V25.8953L18.5727 28.4904H19.963V31.1745L19.82 31.4056L18.412 28.7926L17.2715 30.908H15.6498V30.8012L19.963 22.767ZM24.9535 30.6589L20.569 21.6653L19.963 22.767V25.8953L20.0343 25.7708L21.3532 28.4904H19.963V31.1745L21.4601 28.686L22.5296 30.9083H24.9535V30.6589ZM24.9535 21.6653V21.8607L24.8464 21.6653H24.9535ZM24.9535 30.9083L25.0784 30.908L24.9535 30.6589V30.9083ZM29.409 21.6653V23.2829C29.106 23.0869 28.7317 22.9807 28.3218 22.9807V27.3173C28.7317 27.3173 29.0883 27.2104 29.409 27.0508V28.4018C29.0705 28.4549 28.7139 28.4904 28.3218 28.4904V30.908H25.6128V22.9807L24.9535 21.8607V21.6653H29.409ZM32.7596 24.42C32.4571 22.9267 31.1734 21.6653 29.7831 21.6653H29.409V23.2829C30.1045 23.7093 30.4963 24.5268 30.4963 25.113C30.4963 25.9842 30.0861 26.6954 29.409 27.0508V28.4018C31.5655 28.0462 32.5098 26.624 32.7596 25.6288V24.42ZM32.7596 21.7719L32.6885 21.6653H32.7596V21.7719ZM32.7596 25.6288C32.8074 25.449 32.8315 25.2637 32.8312 25.0776C32.8312 24.8645 32.8131 24.6334 32.7596 24.42V25.6288ZM46.3226 22.767V25.8953L44.9149 28.4904H46.3226V31.1745L46.1806 31.4056L44.7548 28.7926L43.6143 30.908H41.9387L46.3226 22.767ZM33.4727 30.908V22.9807L32.7596 21.7719V21.6653H41.4217V30.908H38.7125V22.9807H36.1823V30.908H33.4727ZM50.1907 28.3661L46.9115 21.6653L46.3226 22.767V25.8953L46.3948 25.7708L47.7135 28.4904H46.3226V31.1745L47.8028 28.686L48.8898 30.9083H50.1907V28.3661ZM50.1907 21.6653V24.5268C50.156 24.6177 50.1379 24.7141 50.1372 24.8113H48.9431L50.1372 21.6653H50.1907ZM50.1907 30.9083V28.3661L51.4209 30.908L50.1907 30.9083ZM59.1917 24.42L58.1752 21.6653H50.1907V24.5268C50.4044 23.9401 51.3132 23.5848 52.7576 23.5848V30.908H55.5018V23.5848C57.2489 23.5848 58.1394 24.0647 58.1394 24.8113H59.1917V24.42ZM59.1917 21.6653V21.8961L59.0488 21.6653H59.1917ZM59.1917 21.8961L59.8685 22.9453V30.908L64.6806 26.0373V30.908H67.3899V21.6653L62.5772 26.4109V21.6653H59.1917V21.8961ZM59.1917 24.8113V24.42L59.3515 24.8111L59.1917 24.8113Z" fill="#E6A909"/>
<path fill-rule="evenodd" clip-rule="evenodd" d="M51.4209 30.908H48.8898L47.8028 28.686L46.1806 31.4056L44.7548 28.7926L43.6143 30.908H41.9387L46.9115 21.6653L51.4209 30.908ZM44.9149 28.4904L46.3948 25.7711L47.7135 28.4904H44.9149ZM7.27262 30.908V22.767L6.61328 21.6653H9.98213V25.5754C10.1783 25.3089 12.816 21.665 12.8515 21.665H15.7031C15.4894 21.9141 12.4236 26.0733 12.4236 26.1267L15.2222 30.908H12.067L9.98213 27.3707V30.908H7.27262ZM25.0784 30.908H22.5296L21.4601 28.686L19.82 31.4056L18.412 28.7926L17.2715 30.908H15.5785L20.569 21.6653L25.0784 30.908ZM18.5727 28.4904L20.0343 25.7711L21.3532 28.4904H18.5727ZM25.6128 30.908V22.9807L24.8464 21.6653H29.7831C31.3699 21.6653 32.8312 23.318 32.8312 25.0776C32.8667 26.0733 31.7975 28.4904 28.3218 28.4904V30.908H25.6128ZM28.3218 27.317V22.9807C29.7121 22.9807 30.4963 24.2781 30.4963 25.113C30.4963 26.3932 29.623 27.317 28.3218 27.317ZM59.8685 30.908V22.9453L59.0488 21.6653H62.5775V26.4109L67.3899 21.6653V30.908H64.6806V26.0373L59.8685 30.908ZM52.7573 30.908V23.5848C51.082 23.5848 50.1372 24.0647 50.1372 24.8113H48.9431L50.1372 21.6653H58.1752L59.3515 24.8113H58.1394C58.1394 24.0647 57.2486 23.5848 55.5018 23.5848V30.908H52.7573ZM33.4727 30.908V22.9807L32.6885 21.6653H41.4217V30.908H38.7125V22.9807H36.1823V30.908H33.4727ZM60.421 69.3898V68.9633C60.6533 68.9273 60.8847 68.9094 61.1342 68.8916C61.1697 69.0519 61.2055 69.2121 61.2763 69.3898H60.4213M33.2585 80.2146C33.1931 80.1298 33.1337 80.0406 33.0806 79.9476C33.2233 79.8947 33.3479 79.8413 33.4727 79.8059C33.3837 79.9301 33.3304 80.0721 33.2585 80.2146ZM28.6784 79.8059V79.1658C28.8385 79.2192 28.9989 79.2543 29.1593 79.3263C29.2129 79.4682 29.2664 79.6276 29.338 79.8059H28.6784ZM27.1635 78.757C27.2704 78.4368 27.3772 78.1169 27.5021 77.8327H28.0904C28.1436 78.0638 28.1792 78.2948 28.2502 78.5434C27.8764 78.6145 27.5021 78.6684 27.1635 78.757ZM44.5591 78.5434C44.6296 78.348 44.7018 78.1877 44.7908 78.0281C44.8974 78.0638 45.004 78.0992 45.1291 78.1526C45.0223 78.4188 45.0223 78.4188 44.5589 78.5434M57.1951 78.5434C57.2306 78.3837 57.2844 78.2063 57.3377 78.0638C57.4981 77.9929 57.6768 77.9572 57.8541 77.921C57.7798 78.0734 57.7261 78.2349 57.6943 78.4014C57.5156 78.4368 57.3377 78.4902 57.1951 78.5434ZM48.2657 78.1169C48.337 77.9389 48.3903 77.7613 48.4794 77.6013C48.783 77.6719 48.783 77.6719 48.9253 78.1169H48.2657ZM55.2345 78.1169C55.3059 77.8687 55.3594 77.6193 55.4482 77.3882C55.6441 77.4951 55.8409 77.6193 56.0546 77.7439C55.7865 77.8684 55.5018 77.9929 55.2345 78.1169ZM53.274 77.4951V76.8724C53.7019 76.9795 53.7019 76.9795 54.0402 77.2814C53.773 77.3528 53.5055 77.4059 53.274 77.4951ZM43.685 77.2814C43.7569 77.1751 43.8274 77.0686 43.9167 76.9795C43.9703 77.0686 44.0422 77.1751 44.131 77.2814H43.685ZM42.83 76.0192V75.3973H43.2574C43.0437 75.9306 43.0437 75.9306 42.83 76.0192ZM13.2258 74.9709V74.3488C13.3859 74.3836 13.5283 74.4376 13.707 74.4907C13.7425 74.651 13.8141 74.8112 13.8849 74.9709H13.2258ZM17.8062 74.3488C17.8598 74.2419 17.9311 74.1351 18.0199 74.0288C18.0735 74.1351 18.1448 74.2419 18.2341 74.3488H17.8062ZM12.3523 73.7266C12.4236 73.4601 12.4771 73.2111 12.5665 72.9797C12.6553 73.0151 12.7621 73.0337 12.869 73.0514C12.8515 73.2111 12.8515 73.3887 12.8515 73.5664C12.673 73.6201 12.5132 73.6558 12.3523 73.7266ZM11.7107 72.4647C11.6574 72.145 11.6396 71.8248 11.6216 71.5404C11.782 71.5049 11.9601 71.4518 12.1386 71.4158C12.2096 71.6829 12.2635 71.9668 12.3523 72.2516C12.1386 72.3219 11.9249 72.3761 11.7107 72.4647ZM45.8775 77.7081C45.6994 77.5839 45.521 77.4594 45.3431 77.3528C45.3431 76.7838 45.3431 76.7838 45.5928 76.5348C45.2182 76.5176 44.8439 76.5176 44.4698 76.5176C44.452 76.0192 44.4337 75.5393 44.4165 75.0597C44.1665 75.166 43.9348 75.2728 43.685 75.3973C44.0422 73.4067 45.842 74.4196 47.5534 74.4907C50.3153 69.4961 47.8739 69.5674 45.7352 65.7633C45.7885 63.9866 45.7885 63.9866 45.9131 63.8798C48.4261 66.6877 48.9431 67.8608 52.686 69.0165C52.7212 69.2475 52.7748 69.4786 52.8461 69.7271C52.3297 69.7271 51.8302 69.7631 51.3493 69.7805C51.3851 70.1896 51.4026 70.6337 51.4384 71.0785C51.5452 71.0785 51.6873 71.0956 51.8124 71.1142C51.866 71.4158 51.9015 71.7363 51.9725 72.0377C51.6873 72.0377 51.4026 72.0562 51.1353 72.0914C51.2791 72.4901 51.4098 72.8933 51.5274 73.3004C51.082 73.2645 50.6367 73.2465 50.2085 73.2111C49.2816 74.4376 50.0484 76.9795 48.6223 76.9261C48.551 76.7838 48.4794 76.6416 48.4261 76.4816C47.5708 76.8906 46.7153 77.2814 45.8775 77.7081Z" fill="#E6A909"/>
<path fill-rule="evenodd" clip-rule="evenodd" d="M31.9583 73.3008C31.4588 70.8474 31.4949 68.217 30.8711 66.1721H31.5124C31.8693 68.5372 32.2433 70.9186 32.5996 73.3008H31.9583ZM50.0127 65.7462C48.3017 64.4663 48.0522 64.0041 47.1795 62.3865C48.2484 62.9021 49.9062 64.4131 50.4409 65.7462H50.0127ZM35.434 64.9104V64.0752C36.8421 63.4 37.7506 61.765 39.1225 61.5516C38.9627 62.0315 38.9627 62.0315 38.3741 62.5828C38.5706 62.7247 38.5706 62.7247 39.9248 62.1203C40.0144 61.8533 40.1035 61.6045 40.2101 61.338C40.5672 61.2671 40.9232 61.1957 41.2976 61.1426C40.7986 62.8313 36.8421 64.2529 35.434 64.9104ZM32.172 64.4837C32.0824 64.2834 32.0109 64.0754 31.9583 63.8624H32.5996V64.4837H32.172Z" fill="#231F20"/>
<path fill-rule="evenodd" clip-rule="evenodd" d="M14.5258 74.3487C14.0804 73.5495 14.2228 73.1933 14.2408 72.5001C13.9375 72.5001 13.6345 72.5001 13.3495 72.5186C13.314 72.2873 13.2601 72.0562 13.2246 71.8248C13.831 71.6829 13.831 71.6829 14.4725 71.7714V71.2379C14.0449 71.0785 14.0449 71.0784 13.2071 71.1141C13.1178 71.203 13.029 71.2913 12.9396 71.3629C12.9219 71.0785 12.9219 70.7762 12.9219 70.4912C13.4031 70.243 15.1496 70.243 16.4686 70.0116C16.7003 69.7271 19.3379 66.1903 19.9085 66.1012C20.764 64.6082 21.2452 63.8444 22.6174 62.8838C22.7423 63.2931 22.8849 63.7196 23.0453 64.1637C23.6336 64.1637 23.6336 64.1637 24.3821 63.6661C24.8455 65.0703 24.8455 65.0703 24.8277 65.6033C23.6511 66.6876 20.5498 69.4429 18.9281 69.9942C18.7499 70.3847 18.7499 70.3847 18.7322 72.9448C18.5005 73.0514 18.251 73.1756 18.019 73.3004C18.0015 73.1759 17.966 73.0514 17.9479 72.9263C17.2528 73.1402 16.5577 73.3356 15.8806 73.5495C15.8093 73.6912 15.7557 73.8511 15.6841 73.9934C15.2948 74.1011 14.9085 74.2196 14.5258 74.3487Z" fill="#E6A909"/>
<path fill-rule="evenodd" clip-rule="evenodd" d="M19.9776 63.4351C20.976 61.925 21.6887 60.9644 22.081 59.2942C21.6712 59.4182 21.2791 59.5605 20.8867 59.7027C20.8689 59.8267 20.8512 59.9692 20.8512 60.094H20.4055V59.6673C20.5123 59.6493 20.6553 59.6316 20.7798 59.5959C21.7067 57.6941 22.0452 56.6275 22.295 54.69C22.081 54.708 21.8849 54.7255 21.6887 54.7789C21.5463 55.0097 21.4034 55.241 21.2788 55.4904H20.8512C22.3663 51.0644 21.1006 50.3001 25.1821 48.0072C25.325 47.7759 25.4851 47.5451 25.6278 47.3134C25.7882 47.3494 25.9663 47.3848 26.1445 47.4382C26.0688 48.2076 26.0034 48.9779 25.9486 49.7491C26.18 49.8025 26.412 49.891 26.6615 49.9801C26.6437 49.6245 26.6437 49.2515 26.6437 48.8959C27.8913 47.9538 28.4438 47.5808 29.228 46.2649C29.3352 46.5499 29.442 46.8695 29.5844 47.1895C29.7448 47.2072 29.9412 47.2249 30.1369 47.2426C30.7962 45.8207 31.4736 44.8255 31.2241 43.3679H30.9033C30.7252 44.1857 30.5828 45.0035 30.4219 45.8384H29.7803C29.6379 45.3945 29.513 44.9852 29.4062 44.5587C29.2636 44.5056 29.139 44.4342 29.0319 44.3988C28.7646 46.3183 28.6575 47.0118 26.7147 47.9361C26.6792 47.3494 26.6437 46.7627 26.5899 46.1763C25.9663 46.2123 25.2715 46.7096 25.1999 47.3137C23.2216 48.0601 23.2216 48.0601 22.9543 48.3092C22.8117 47.9892 22.6513 47.6693 22.5267 47.3494C22.2414 47.3674 21.9562 47.3848 21.6887 47.4382C21.4927 47.687 21.2968 47.9361 21.1364 48.2023H20.5481C20.5481 46.905 20.6908 46.7273 21.2433 45.7498C21.0116 45.7139 20.8156 45.6784 20.6195 45.6253V45.0032C22.0991 44.9321 23.4355 45.2517 24.3979 43.9366C24.2555 43.5276 24.1484 43.1368 24.0413 42.7278C23.6314 42.5678 20.5837 42.5678 20.1025 42.337C19.8352 41.1816 19.8352 41.1816 19.9776 40.5949C20.4591 40.4352 20.9405 40.2573 21.4392 40.1148V39.5818C21.2433 39.5643 21.0471 39.5463 20.8509 39.5463C20.9047 39.2621 20.9758 38.9776 21.0648 38.7111C22.1346 38.64 23.0434 38.5335 24.22 38.8351C25.5742 37.9113 26.2158 37.8754 27.9801 38.1599C28.7646 37.6977 28.925 37.52 30.0475 37.5737C30.529 39.1727 30.6894 39.2087 32.2936 40.3638C33.4699 42.1768 34.2183 44.541 35.0028 46.6742C34.6462 46.6742 34.3071 46.7096 33.9511 46.7273V47.2426C34.076 47.2603 34.2183 47.2963 34.3435 47.3134C34.9312 49.4289 34.7886 50.3892 36.6778 51.9705C35.3949 52.2727 35.0383 51.8462 34.0047 51.8462C35.3056 53.9791 34.3612 55.259 33.2557 57.5696H32.8283C32.6857 57.09 32.5611 56.5749 32.454 56.094C32.2042 56.0408 31.9906 55.9874 31.7769 55.952C31.3487 57.9603 30.4402 59.4362 29.3349 61.3377H28.9067C28.766 60.916 28.6413 60.4891 28.5329 60.058C28.3725 60.058 28.2474 60.094 28.1233 60.1117C27.6593 61.1955 27.2495 61.5688 26.8757 62.3511C26.5983 61.9016 26.313 61.457 26.0199 61.0175C25.8376 60.9843 25.6529 60.9666 25.4677 60.9644C25.1643 61.9775 25.0395 62.2443 24.1484 62.849C24.1307 62.9727 24.1126 63.1152 24.1126 63.24C22.9543 62.9196 23.2574 61.8887 23.168 61.178C21.992 61.6219 21.2788 63.0801 19.9776 63.4351Z" fill="#E6A909"/>
<path fill-rule="evenodd" clip-rule="evenodd" d="M27.3767 59.2407C27.3412 57.8902 27.3054 57.0901 26.0755 56.4326C25.826 56.5211 25.5943 56.6094 25.3629 56.6813C25.2213 57.1148 25.0964 57.5535 24.9882 57.9964H24.3289C24.0081 56.7516 24.0081 56.7516 23.9015 54.4411H24.3289C24.4002 55.0989 24.4538 55.7565 24.5426 56.4326C24.9885 56.2189 25.6301 55.1706 25.8618 55.1706C26.2539 56.1481 26.5567 56.0589 27.4302 56.8947C27.733 54.655 28.624 53.0729 29.5514 51.0823C29.7113 51.1354 29.8539 51.1708 30.0323 51.2245C30.3173 52.0243 30.3173 52.0243 30.2108 52.5573H30.6381C31.28 50.9932 32.2423 50.407 32.3137 48.718C32.4741 48.6469 32.6525 48.6118 32.8306 48.5761C32.7771 50.407 32.2423 51.349 31.2975 53.1792H30.6381C30.5668 53.4642 30.4958 53.7307 30.4244 54.0149H29.7826C29.8364 53.5176 29.9075 53.0375 29.9968 52.5573H29.5514C28.624 54.8684 28.5352 56.9121 27.8223 59.2407H27.3767ZM22.582 45.8385V45.2164C26.3788 44.7897 25.3273 43.0478 23.0635 41.6796C23.0457 41.306 23.028 40.9507 23.028 40.5951C23.5092 40.737 24.0436 41.484 24.5428 41.6439V42.0701C25.3629 42.4791 25.7905 42.4791 26.949 42.4791V43.3326C26.5277 43.3007 26.1059 43.277 25.6836 43.2615C25.8796 45.4472 24.3467 45.572 22.582 45.8385ZM25.6301 40.8087C25.4031 40.3937 25.1652 39.9846 24.9169 39.5819C24.7923 39.5645 24.6497 39.5465 24.5428 39.5465C24.6852 39.2977 24.8104 39.0489 24.9349 38.7998C25.4342 38.7998 26.058 39.1911 27.163 39.5465C27.0914 39.6884 27.0559 39.8664 27.0023 40.0263C26.7173 40.0086 26.4676 39.9906 26.2003 39.9906C25.9151 40.6662 25.9151 40.6662 25.6301 40.8087ZM29.3375 39.3331V38.0889H29.9968C29.9252 38.4442 29.8542 38.8001 29.8184 39.1729C29.6402 39.2088 29.4976 39.28 29.3375 39.3331ZM28.4636 38.7113C28.5175 38.5336 28.553 38.3734 28.624 38.2314C28.7489 38.2314 28.8738 38.2314 29.0342 38.2491C28.9984 38.3911 28.9451 38.5336 28.9093 38.7113H28.4636Z" fill="#231F20"/>
<path fill-rule="evenodd" clip-rule="evenodd" d="M27.3746 37.2362C27.3746 37.0405 27.3746 37.0405 28.4616 36.8271V37.2359H27.3746M25.4141 39.7601V39.5467H25.8597V39.7598L25.4141 39.7601Z" fill="#E6A909"/>
<path fill-rule="evenodd" clip-rule="evenodd" d="M19.3203 67.6295C19.8731 66.6874 20.3898 65.586 21.4948 65.3369C21.3344 66.5632 20.4256 67.1322 19.3203 67.6295Z" fill="#231F20"/>
<path fill-rule="evenodd" clip-rule="evenodd" d="M32.7418 11.7646H35.1125V12.6356C35.0944 12.5996 37.9815 12.671 37.9815 15.0532C37.999 17.4346 35.1122 17.1681 35.1122 17.2749V17.8256H33.4547V17.2749C33.4547 17.2749 30.3891 17.3457 30.3711 15.0349C30.3711 12.7244 33.5257 12.7424 33.4547 12.6533V12.4045L32.7773 12.3334L32.7418 11.7646Z" fill="#00A650"/>
<path fill-rule="evenodd" clip-rule="evenodd" d="M33.4522 13.969V16.0664C33.4522 16.0844 32.133 16.0487 32.133 15.0176C32.1152 14.0044 33.4342 13.9867 33.4522 13.969ZM35.11 13.969V16.0664C35.1275 16.0844 36.4287 15.9062 36.4106 15.0176C36.3926 14.1109 35.11 13.9158 35.11 13.969Z" fill="white"/>
<path fill-rule="evenodd" clip-rule="evenodd" d="M37.8915 11.7646H40.1548V13.8621L42.1331 11.7646H43.613L41.4563 14.5016L43.613 17.8256H41.4205L40.1548 15.6393V17.8256H38.587V12.4045L37.8915 12.3691V11.7646ZM27.0729 84.2137L26.9841 84.3557L25.1127 86.5771C25.0053 86.7016 24.8985 86.8084 24.7739 86.8798C24.649 86.9504 24.4886 86.9504 24.2927 86.8798C24.1678 86.8439 24.0252 86.773 23.8828 86.6659L24.3995 86.0972C24.4708 86.1866 24.5422 86.2577 24.6312 86.2754C24.7561 86.328 24.881 86.2574 25.0233 86.0972L27.1443 83.6087L26.6808 83.4668L26.8057 83.1291L27.9288 83.4847L28.1066 87.6442L28.5168 87.7862L28.4099 88.1238L26.6095 87.5551L26.7166 87.1992L27.1978 87.3597L27.0729 84.3914L27.1087 84.2137H27.0729ZM31.2257 88.4968L32.0638 85.0495L31.5643 84.9246L31.6536 84.587L32.8477 84.853V85.795L32.634 86.6659L32.8477 86.7193V87.0929C32.83 87.0929 32.8119 87.0929 32.7944 87.0752L32.5447 87.0221L32.1345 88.7105L32.4556 88.7813C32.598 88.8173 32.7226 88.8173 32.8477 88.7991V89.2075C32.7051 89.1901 32.5447 89.1721 32.3663 89.137L30.6555 88.7279L30.7268 88.3906L31.2257 88.4968ZM32.8477 86.7193L33.1685 86.7907C33.6674 86.9153 34.0238 87.0929 34.2557 87.3594C34.4875 87.6259 34.5585 87.9461 34.4694 88.3195C34.3806 88.6751 34.1667 88.9416 33.8459 89.1013C33.5964 89.2258 33.2756 89.2615 32.8477 89.2075V88.7991C32.883 88.7813 32.919 88.7813 32.9371 88.7636C33.0822 88.7257 33.2125 88.6452 33.3111 88.5325C33.4177 88.408 33.4896 88.2655 33.5426 88.1061C33.5964 87.8924 33.5606 87.6796 33.4538 87.4834C33.3467 87.3063 33.1507 87.1641 32.8477 87.0929V86.7193ZM32.8477 84.853L33.5609 85.0309L33.4715 85.3685L32.9723 85.262L32.8477 85.795V84.853Z" fill="#00A650"/>
<path fill-rule="evenodd" clip-rule="evenodd" d="M32.1353 88.7104L32.4564 88.7812C32.6348 88.8172 32.7949 88.8172 32.9379 88.7635C33.083 88.7256 33.2133 88.6451 33.3119 88.5324C33.4185 88.4079 33.4904 88.2654 33.5434 88.106C33.5972 87.8923 33.5614 87.6795 33.4546 87.4833C33.3474 87.2879 33.116 87.1462 32.7952 87.0751L32.5455 87.022L32.1353 88.7104ZM31.2265 88.4967L32.0646 85.0494L31.5651 84.9245L31.6544 84.5869L33.5614 85.0308L33.4723 85.3684L32.9731 85.2619L32.6345 86.6658L33.1693 86.7903C33.6682 86.9149 34.0245 87.0928 34.2565 87.3593C34.4882 87.6258 34.5593 87.946 34.4702 88.3194C34.3814 88.675 34.1675 88.9415 33.8467 89.1012C33.5256 89.2791 33.0267 89.2791 32.367 89.1371L30.6562 88.7276L30.7276 88.3905L31.2265 88.4967ZM36.5562 85.7949V85.4396L38.5877 85.4221H38.6588V85.8312C38.544 85.793 38.4235 85.7747 38.3025 85.7772L37.9989 85.7949V87.2528H38.32C38.4448 87.2345 38.5517 87.2174 38.6588 87.1817V87.6438C38.5345 87.6078 38.4265 87.6078 38.3025 87.6078H37.9989V89.3325H38.3918C38.4806 89.3325 38.5697 89.3145 38.6588 89.2965V89.6879L36.5562 89.7058V89.3502L37.0726 89.3325L37.0546 85.7949H36.5562ZM38.6588 85.4221C38.8195 85.4396 38.9441 85.4396 39.0689 85.457C39.2113 85.493 39.3536 85.5287 39.4608 85.5821C39.675 85.6886 39.8173 85.8129 39.9064 85.9557C39.9958 86.0971 40.0305 86.2396 40.0305 86.3819C40.0305 86.6658 39.9419 86.8972 39.7641 87.0571C39.5854 87.2342 39.3714 87.3236 39.1047 87.3593V87.3953C39.2471 87.3953 39.3714 87.4127 39.496 87.4484C39.6212 87.4836 39.7458 87.555 39.8887 87.6441C40.1204 87.7861 40.245 88.0349 40.245 88.4079C40.245 88.693 40.1737 88.9232 40.0305 89.1191C39.8889 89.2963 39.6919 89.4573 39.4608 89.5451C39.2113 89.6344 38.9618 89.6879 38.7121 89.6879H38.6588V89.2963C38.8195 89.2614 38.9441 89.19 39.0689 89.0655C39.229 88.8878 39.3187 88.6927 39.3187 88.4436C39.3187 88.0883 39.2113 87.8569 38.9796 87.7501C38.873 87.7144 38.7659 87.6795 38.6588 87.6441V87.1817L38.7659 87.1282C38.8902 87.0574 38.9796 86.9503 39.0512 86.826C39.1047 86.7015 39.14 86.577 39.14 86.4524C39.14 86.2753 39.0689 86.1145 38.926 85.9908C38.851 85.9171 38.7594 85.8624 38.6588 85.8312V85.4221Z" fill="#00A650"/>
<path fill-rule="evenodd" clip-rule="evenodd" d="M37.9974 87.2528H38.3188C38.4975 87.2346 38.6398 87.1992 38.7647 87.1283C38.889 87.0575 38.9784 86.9504 39.05 86.8261C39.1035 86.7016 39.1388 86.577 39.1388 86.4525C39.1388 86.2754 39.0677 86.1146 38.9248 85.9909C38.7825 85.8489 38.5685 85.7772 38.3013 85.7772L37.9977 85.795L37.9974 87.2528ZM37.9974 89.3326H38.3906C38.6576 89.3326 38.889 89.2437 39.0677 89.0655C39.2278 88.8878 39.3175 88.6927 39.3175 88.4437C39.3175 88.0883 39.2101 87.857 38.9784 87.7501C38.7657 87.6542 38.5347 87.6057 38.3013 87.6079H37.9977V89.3326H37.9974ZM36.555 85.795V85.4396L38.5865 85.4222C38.7647 85.4222 38.9248 85.4396 39.0677 85.457C39.2101 85.493 39.3524 85.5287 39.4596 85.5821C39.6738 85.6887 39.8161 85.8129 39.9052 85.9557C39.9946 86.0972 40.0293 86.2397 40.0293 86.3819C40.0293 86.6659 39.9407 86.8972 39.7629 87.0572C39.5842 87.2343 39.3702 87.3237 39.1035 87.3594V87.3954C39.2459 87.3954 39.3702 87.4128 39.4948 87.4485C39.6199 87.4836 39.7445 87.555 39.8875 87.6442C40.1192 87.7861 40.2438 88.0349 40.2438 88.408C40.2438 88.693 40.1724 88.9233 40.0293 89.1192C39.8877 89.2963 39.6907 89.4574 39.4596 89.5451C39.2101 89.6345 38.9606 89.6879 38.7109 89.6879L36.5547 89.7059V89.3503L37.0714 89.3326L37.0534 85.795H36.555ZM43.2027 85.1197L43.9331 88.5862L44.4323 88.4791L44.5034 88.8347L42.6142 89.226L42.5248 88.8701L43.024 88.7813L42.2937 85.2976L41.7944 85.4039L41.7231 85.0494L43.6129 84.6578L43.7009 85.0131L43.2027 85.1197ZM45.0917 84.6578L44.9668 84.3199L46.8738 83.6449C46.9634 83.6267 47.0525 83.5915 47.1233 83.5733V84.0003C46.9984 84.0003 46.8738 84.0357 46.7314 84.0711L46.4462 84.1779L46.9454 85.5459L47.1233 85.4933V85.8664L47.07 85.8841L47.1233 86.026V88.0883L46.4284 88.3374L46.3035 87.9992L46.7847 87.8215L45.5726 84.4799L45.0917 84.6578ZM47.8722 87.8393L47.1233 88.0883V86.026L47.6755 87.5196L47.8722 87.4485V87.8393ZM47.1233 83.5733C47.2129 83.5561 47.2842 83.5376 47.355 83.5201C47.4976 83.5024 47.6402 83.5024 47.7474 83.5201H47.8722V85.707C47.6758 85.707 47.5154 85.7424 47.355 85.795L47.1233 85.8664V85.4933L47.2481 85.457C47.4085 85.3865 47.5517 85.2976 47.6402 85.1911C47.7293 85.0843 47.7829 84.96 47.8012 84.818C47.8012 84.6932 47.8012 84.569 47.7474 84.4444C47.6938 84.2662 47.5692 84.1428 47.3908 84.0711C47.3017 84.0357 47.2129 84.0185 47.1233 84.0003V83.5733ZM47.8722 83.5201C48.0501 83.5561 48.193 83.6267 48.2996 83.7155C48.4245 83.822 48.5138 83.9463 48.5674 84.0711C48.6739 84.3556 48.6564 84.587 48.5493 84.818C48.4422 85.0309 48.2641 85.1911 48.0323 85.2976L48.0501 85.3336C48.1687 85.2842 48.2962 85.2597 48.4247 85.2617C48.5674 85.2617 48.7095 85.2802 48.8521 85.3154C49.1376 85.3685 49.3516 85.5821 49.4762 85.9195C49.5653 86.1865 49.583 86.4176 49.5117 86.649C49.4407 86.8798 49.2978 87.0752 49.1016 87.2528C48.9237 87.4128 48.692 87.5373 48.4608 87.6259L47.8722 87.8393V87.4485L48.0323 87.3954C48.2821 87.3065 48.4608 87.1463 48.5674 86.9332C48.6739 86.7016 48.6922 86.4887 48.6029 86.2574C48.478 85.9195 48.2996 85.7424 48.0323 85.7244C47.9796 85.7069 47.925 85.707 47.8722 85.707V83.5201Z" fill="#00A650"/>
<path fill-rule="evenodd" clip-rule="evenodd" d="M46.9473 85.5468L47.2504 85.458C47.4105 85.3874 47.5537 85.2985 47.6422 85.192C47.7313 85.0852 47.7848 84.9609 47.8031 84.819C47.8031 84.6941 47.8031 84.5699 47.7493 84.4453C47.6957 84.2671 47.5711 84.1437 47.3927 84.072C47.2148 83.9832 47.0006 83.9832 46.7334 84.072L46.4481 84.1788L46.9473 85.5468ZM47.6777 87.5205L48.0343 87.3963C48.284 87.3074 48.4627 87.1472 48.5693 86.9341C48.6759 86.7025 48.6942 86.4897 48.6048 86.2583C48.48 85.9204 48.3015 85.7433 48.0343 85.7253C47.8061 85.6931 47.5735 85.7173 47.3569 85.7959L47.0719 85.885L47.6777 87.5205ZM45.0936 84.6587L44.9688 84.3208L46.8757 83.6458C47.0544 83.5924 47.2148 83.557 47.3569 83.5213C47.4995 83.5033 47.6422 83.5033 47.7493 83.5213C47.999 83.5385 48.1766 83.6099 48.3015 83.7164C48.4264 83.823 48.5158 83.9472 48.5693 84.072C48.6759 84.3565 48.6584 84.5879 48.5513 84.819C48.4442 85.0318 48.266 85.192 48.0343 85.2986L48.0521 85.3345C48.1706 85.2851 48.2982 85.2606 48.4267 85.2626C48.5693 85.2626 48.7114 85.2811 48.854 85.3163C49.1396 85.3694 49.3535 85.583 49.4781 85.9204C49.5672 86.1875 49.585 86.4185 49.5136 86.6499C49.4426 86.8807 49.2997 87.0761 49.1035 87.2537C48.9256 87.4137 48.6939 87.5382 48.4627 87.6268L46.4303 88.338L46.3055 88.0004L46.7866 87.8225L45.5745 84.4808L45.0936 84.6587Z" fill="#00A650"/>
<path fill-rule="evenodd" clip-rule="evenodd" d="M32.5078 96.1933V100.975H31.3315V98.415C31.3315 98.0419 31.3137 97.8283 31.2957 97.7403C31.2782 97.6686 31.2429 97.6158 31.1533 97.5806C31.082 97.5444 30.9035 97.5266 30.6186 97.5266H30.5117V96.9585C31.082 96.8337 31.5096 96.5846 31.8129 96.1936H32.5075M34.8427 99.3219C34.8249 99.3219 34.8249 99.3219 34.8071 99.3393C34.6823 99.4107 34.5399 99.4461 34.3617 99.4461C34.13 99.4461 33.9158 99.3753 33.7557 99.2505C33.5773 99.1265 33.4704 98.9848 33.4166 98.8066C33.3633 98.6284 33.3455 98.3976 33.3455 98.0956V97.7046C33.3455 97.3493 33.3633 97.0819 33.3813 96.9225C33.4152 96.7484 33.4884 96.5843 33.5953 96.4426C33.7202 96.3009 33.8803 96.1761 34.0765 96.1045C34.2902 96.0156 34.5221 95.9805 34.7891 95.9805H34.8427V96.7446C34.7891 96.7446 34.7361 96.7805 34.6825 96.8337C34.6109 96.8868 34.5932 97.0288 34.5932 97.2599V98.2019C34.5932 98.415 34.6109 98.5395 34.6645 98.5929C34.7183 98.6284 34.7891 98.6643 34.8427 98.6643V99.3219ZM33.3455 99.7658H34.5932V100.211C34.6109 100.264 34.6293 100.317 34.6825 100.353C34.7183 100.389 34.7713 100.424 34.8427 100.424V101.188C34.4863 101.188 34.2011 101.135 33.9696 101.028C33.756 100.904 33.5953 100.744 33.4885 100.548C33.3991 100.335 33.3455 100.069 33.3455 99.7658ZM34.8427 100.424H34.8604C34.8907 100.424 34.9207 100.417 34.9484 100.405C34.9761 100.393 35.001 100.375 35.0214 100.353C35.0568 100.314 35.0758 100.263 35.0744 100.211C35.0924 100.139 35.0924 100.015 35.0924 99.8375V99.0377C35.0388 99.1622 34.9495 99.2508 34.8427 99.3219V98.6643C34.9317 98.6643 34.9853 98.6284 35.0211 98.5752C35.0744 98.5041 35.0924 98.3801 35.0924 98.2019V97.2961C35.0924 97.0648 35.0744 96.9225 35.0388 96.8511C35.0033 96.7805 34.9317 96.7446 34.8427 96.7446V95.9805C35.1451 95.9805 35.4129 96.0336 35.6088 96.1227C35.8228 96.2113 35.9835 96.3533 36.1081 96.5132C36.2152 96.6912 36.2865 96.8868 36.2865 97.0648C36.304 97.2599 36.3223 97.6332 36.3223 98.1842V98.8774C36.3223 99.4816 36.304 99.8903 36.2865 100.086C36.2865 100.282 36.2152 100.477 36.0906 100.655C35.9657 100.833 35.8056 100.975 35.5913 101.064C35.3777 101.153 35.1279 101.188 34.8427 101.188V100.424ZM38.5858 96.762C38.5143 96.762 38.4604 96.7805 38.4246 96.816C38.3713 96.8511 38.3539 96.9045 38.3539 96.9585C38.3355 97.0288 38.3355 97.1536 38.3355 97.3493V98.149C38.3899 98.0245 38.4787 97.9177 38.5858 97.8645V98.5221C38.4968 98.5221 38.4432 98.5395 38.4077 98.6112C38.3539 98.6643 38.3355 98.7889 38.3355 98.9848V99.8906C38.3355 100.104 38.3539 100.246 38.3899 100.317C38.4432 100.389 38.4968 100.424 38.5858 100.424V101.188C38.2828 101.188 38.0153 101.153 37.8194 101.064C37.6054 100.957 37.4448 100.833 37.3202 100.655C37.2136 100.477 37.1417 100.3 37.1245 100.104C37.1062 99.9086 37.0885 99.535 37.0885 98.9845V98.2907C37.0885 97.6869 37.1062 97.2961 37.1245 97.0819C37.1447 96.8771 37.2182 96.6811 37.3377 96.5132C37.4631 96.3355 37.6232 96.2116 37.8544 96.1227C38.0865 96.0279 38.335 95.9795 38.5858 95.9805V96.762ZM38.5858 97.8645C38.6033 97.8466 38.6033 97.8466 38.6214 97.8466C38.7457 97.7757 38.8883 97.7403 39.0848 97.7403C39.2985 97.7403 39.5121 97.7929 39.6731 97.9177C39.8314 98.0253 39.9503 98.1814 40.0116 98.3624C40.0644 98.5395 40.083 98.7709 40.083 99.0731V99.4816C40.083 99.82 40.0644 100.086 40.0469 100.264C40.0116 100.424 39.94 100.584 39.8332 100.744C39.7083 100.886 39.5479 100.993 39.3517 101.082C39.1561 101.153 38.9066 101.188 38.6391 101.188H38.5858V100.424C38.6391 100.424 38.6924 100.389 38.7457 100.353C38.8176 100.3 38.835 100.158 38.835 99.9266V98.9845C38.835 98.8066 38.8176 98.6818 38.7818 98.6109C38.7457 98.5395 38.6746 98.5224 38.5858 98.5224V97.8645ZM40.083 97.4195H38.835V96.9756C38.8346 96.9456 38.828 96.916 38.8158 96.8886C38.8036 96.8612 38.786 96.8365 38.764 96.816C38.7118 96.7797 38.6494 96.7609 38.5858 96.762V95.9805H38.6033C38.9422 95.9805 39.2272 96.0336 39.4589 96.1582C39.69 96.265 39.8512 96.4244 39.94 96.6386C40.0286 96.8337 40.083 97.1002 40.083 97.4195ZM42.9168 98.273C43.0952 98.327 43.2376 98.4333 43.3267 98.5752C43.3977 98.7177 43.451 99.0374 43.451 99.5532C43.451 99.9266 43.416 100.228 43.3267 100.424C43.2376 100.637 43.0952 100.797 42.8804 100.904C42.667 101.01 42.3998 101.082 42.0613 101.082C41.6869 101.082 41.3839 101.01 41.1699 100.886C40.9557 100.762 40.8133 100.602 40.7601 100.424C40.6882 100.228 40.6535 99.9086 40.6535 99.4641V99.0731H41.8298V99.8549C41.8298 100.069 41.847 100.193 41.8831 100.246C41.9003 100.3 41.9544 100.335 42.0432 100.335C42.132 100.335 42.1861 100.3 42.2211 100.228C42.2574 100.158 42.2574 99.9791 42.2574 99.6772V99.3396C42.2574 99.1625 42.2394 99.02 42.2039 98.9486C42.1684 98.8594 42.0965 98.8066 42.0255 98.7709C41.9364 98.7532 41.7757 98.7355 41.5445 98.7355V98.0419C41.8298 98.0419 42.0077 98.0245 42.0787 98.0068C42.1501 97.9708 42.1861 97.9351 42.2211 97.8645C42.2574 97.7929 42.2574 97.6686 42.2574 97.5087V97.2596C42.2574 97.0819 42.2394 96.9757 42.2039 96.9225C42.1861 96.8691 42.132 96.8337 42.0432 96.8337C42.0111 96.8336 41.9796 96.8417 41.9515 96.8572C41.9235 96.8728 41.8999 96.8953 41.8831 96.9225C41.847 96.9757 41.8298 97.1002 41.8298 97.2776V97.6686H40.6535V97.2599C40.6535 96.816 40.7601 96.4955 40.956 96.3355C41.1699 96.1761 41.4907 96.1045 41.9544 96.1045C42.5241 96.1045 42.8987 96.2116 43.0949 96.4426C43.3086 96.6557 43.3977 96.9757 43.3977 97.3664C43.3977 97.6332 43.3622 97.8286 43.2911 97.9351C43.2195 98.0597 43.0952 98.1662 42.9168 98.273Z" fill="#E6A909"/>
</svg>
