<svg width="168" height="80" viewBox="0 0 168 80" fill="none" xmlns="http://www.w3.org/2000/svg">
<path d="M13.3481 79.9999C20.7047 79.9999 26.6767 74.0279 26.6767 66.6713V53.3428H13.3481C5.99151 53.3428 0.0195312 59.3148 0.0195312 66.6713C0.0195312 74.0279 5.99151 79.9999 13.3481 79.9999Z" fill="#0ACF83"/>
<path d="M0 39.9995C0 32.6429 5.97198 26.6709 13.3286 26.6709H26.6571V53.342H13.3286C5.97198 53.342 0 47.37 0 40.0135V39.9995Z" fill="#A259FF"/>
<path d="M0 13.3286C0 5.97198 5.97198 0 13.3286 0H26.6571V26.6711H13.3286C5.97198 26.6711 0 20.6991 0 13.3426V13.3286Z" fill="#F24E1E"/>
<path d="M26.5508 0H39.8794C47.2359 0 53.2079 5.97198 53.2079 13.3286C53.2079 20.6852 47.2359 26.6571 39.8794 26.6571H26.5508V0Z" fill="#FF7262"/>
<path d="M53.3478 39.9995C53.3478 47.3561 47.3758 53.328 40.0192 53.328C32.6626 53.328 26.5508 47.3561 26.5508 39.9995C26.5508 32.6429 32.5228 26.6709 39.8794 26.6709C47.2359 26.6709 53.2079 32.6429 53.2079 39.9995H53.3478Z" fill="#1ABCFE"/>
<path d="M67.918 22.0981V50.042H71.5123V36.6994H80.1556V33.2309H71.5123V25.5946H82.743V22.0981H67.918ZM89.2465 27.7764C90.5472 27.7764 91.5961 26.7275 91.5961 25.4268C91.5961 24.1261 90.5332 23.217 89.2465 23.217C87.9598 23.217 86.8968 24.266 86.8968 25.5667C86.8968 26.196 87.1486 26.7834 87.5961 27.245C88.0437 27.7065 88.6311 27.9443 89.2745 27.9443L89.2465 27.7764ZM87.4283 31.3009V50.042H90.8828V31.3009H87.3164H87.4283ZM104.379 30.7414C99.596 30.7414 96.2674 34.9372 96.2674 39.5805C96.2674 44.2239 99.624 48.3917 104.379 48.3917C105.369 48.409 106.351 48.2202 107.263 47.8374C108.176 47.4545 108.999 46.886 109.68 46.1679V48.6574C109.67 50.1531 109.09 51.5887 108.058 52.6713C107.536 53.2033 106.914 53.6258 106.227 53.914C105.54 54.2022 104.802 54.3503 104.058 54.3496C102.914 54.3135 101.805 53.9441 100.869 53.2867L99.0506 56.4056C100.447 57.3035 102.059 57.8083 103.719 57.8668C105.378 57.9253 107.022 57.5353 108.478 56.7378C109.934 55.9404 111.148 54.765 111.992 53.3356C112.836 51.9061 113.279 50.2755 113.274 48.6154V31.2729H109.68V32.9512C108.999 32.2331 108.176 31.6646 107.263 31.2817C106.351 30.8989 105.369 30.7241 104.379 30.7414ZM99.8758 39.5805C99.7939 38.6713 99.9679 37.7572 100.378 36.9416C100.788 36.126 101.419 35.4415 102.197 34.9652C103.792 33.9862 105.792 33.9862 107.372 34.9652C108.953 35.9442 109.848 37.7344 109.694 39.5805C109.776 40.4898 109.602 41.4039 109.192 42.2194C108.781 43.035 108.151 43.7196 107.372 44.1959C105.778 45.1749 103.778 45.1749 102.197 44.1959C100.617 43.2169 99.7219 41.4267 99.8758 39.5805Z" fill="black"/>
<path d="M126.239 34.4059C125.205 34.4096 124.215 34.8219 123.484 35.5528C122.753 36.2838 122.34 37.2742 122.337 38.308V50.168H118.742V31.4269H122.337V33.0073C123.427 31.5528 125.162 30.7136 126.98 30.7416C129.274 30.6856 131.413 31.9164 132.546 33.9164C133.945 31.9583 135.959 30.7695 138.141 30.7416C142.239 30.7416 144.784 34.0423 144.798 38.1261V50.0561H141.204V38.1681C141.309 37.4276 141.2 36.6723 140.89 35.9918C140.579 35.3112 140.081 34.7338 139.452 34.3277C138.824 33.9217 138.093 33.704 137.345 33.7005C136.597 33.697 135.864 33.9078 135.232 34.308C134.603 34.7177 134.106 35.2993 133.798 35.9836C133.491 36.6679 133.386 37.4262 133.497 38.1681V50.0281H130.043V38.1821C130.039 37.1483 129.627 36.158 128.896 35.427C128.165 34.696 127.174 34.2837 126.141 34.28L126.239 34.4059ZM164.001 33.4269C163.182 32.5732 162.198 31.8958 161.109 31.4364C160.019 30.977 158.847 30.7453 157.665 30.7556C152.308 30.7556 148.574 35.287 148.574 40.5457C148.574 45.8044 152.35 50.3358 157.665 50.3358C158.847 50.3461 160.019 50.1144 161.109 49.655C162.198 49.1956 163.182 48.5182 164.001 47.6645V49.7904H167.595V31.0493H164.001V33.4269ZM152.113 40.6995C151.931 38.4618 153.022 36.308 154.938 35.1332C156.854 33.9583 159.133 33.9583 161.175 35.1332C162.111 35.7136 162.869 36.5396 163.367 37.5211C163.865 38.5026 164.084 39.602 164.001 40.6995C164.182 42.9373 163.091 45.0911 161.175 46.2659C159.259 47.4407 156.98 47.4407 154.938 46.2659C154.002 45.6855 153.245 44.8595 152.746 43.878C152.248 42.8965 152.029 41.7971 152.113 40.6995Z" fill="black"/>
</svg>
