<svg width="153" height="39" viewBox="0 0 153 39" fill="none" xmlns="http://www.w3.org/2000/svg">
<path d="M124.447 19.1327H128.193V14.9756H116.412V19.1327H120.193V34.5622H116.395V38.2818H128.22V34.5622H124.447V19.1327Z" fill="white"/>
<path d="M8.0439 19.1327H11.7989V14.9756H0.00875275V19.1327H3.79875V34.5622H0V38.2818H11.8251V34.5622H8.0439V19.1327Z" fill="white"/>
<path d="M5.85517 3.65009L9.22503 11.0542H10.713L6.074 0.823242H5.6276L1.05859 11.0542H2.54658L5.85517 3.65009Z" fill="white"/>
<path d="M26.2391 11.2298C27.7446 11.2298 29.0401 10.7047 30.0904 9.67195C31.1408 8.63047 31.6747 7.3527 31.6747 5.86489C31.6747 4.35957 31.1408 3.0818 30.0904 2.04908C29.0401 1.02511 27.7184 0.5 26.1604 0.5C25.1975 0.5 24.296 0.7363 23.4645 1.2089C22.6417 1.6815 21.9765 2.34664 21.4951 3.17807C21.0137 4.00949 20.7773 4.92844 20.7773 5.90865C20.7773 7.37896 21.3113 8.63923 22.3616 9.67195C23.412 10.7047 24.7161 11.2298 26.2391 11.2298ZM22.1428 5.8999C22.1428 5.13848 22.3266 4.43834 22.6767 3.82571C23.0356 3.20432 23.5345 2.71422 24.1735 2.34664C24.8124 1.97906 25.4864 1.79527 26.1954 1.79527C26.9219 1.79527 27.6133 1.97906 28.2523 2.34664C28.9 2.71422 29.3989 3.20432 29.7578 3.8082C30.1079 4.41208 30.2917 5.10348 30.2917 5.85614C30.2917 6.6088 30.1079 7.30894 29.7578 7.93033C29.4077 8.54296 28.9 9.04181 28.2698 9.39189C27.6396 9.75071 26.9394 9.92575 26.1954 9.92575C25.0838 9.92575 24.1122 9.53192 23.3244 8.76175C22.5454 7.98284 22.1428 7.02888 22.1428 5.8999Z" fill="white"/>
<path d="M44.712 6.68698L48.9922 11.0542H50.839L45.3422 5.43547L50.4889 0.823242H48.5983L44.712 4.32398V0.823242H43.3203V11.0542H44.712V6.68698Z" fill="white"/>
<path d="M65.7604 0.823242L60.7188 11.0542H62.2417L63.8523 7.79847H68.0887L69.708 11.0542H71.1959L66.2243 0.823242H65.7604ZM67.476 6.51195H64.4912L65.988 3.47505L67.476 6.51195Z" fill="white"/>
<path d="M86.9528 0.823242L82.375 11.0542H83.8717L87.1803 3.65009L90.5415 11.0542H92.0382L87.3904 0.823242H86.9528Z" fill="white"/>
<path d="M109.771 5.593C109.29 5.47923 108.414 5.42672 107.11 5.42672H106.541V0.823242H105.176V11.0542H107.399C108.598 11.0542 109.395 11.0016 109.824 10.9054C110.445 10.7566 110.961 10.4503 111.355 9.99518C111.758 9.53134 111.959 8.94496 111.959 8.25357C111.959 7.55342 111.758 6.96704 111.373 6.51195C110.988 6.05685 110.445 5.75054 109.771 5.593ZM110.559 8.24481C110.559 8.54238 110.48 8.81368 110.305 9.05874C110.139 9.30379 109.92 9.47883 109.649 9.58385C109.36 9.68887 108.878 9.75013 108.204 9.75013H106.55V6.73074L108.125 6.71324C108.808 6.71324 109.307 6.7745 109.613 6.88828C109.911 7.00205 110.139 7.17709 110.305 7.42214C110.471 7.66719 110.559 7.9385 110.559 8.24481Z" fill="white"/>
<path d="M130.015 4.97162H125.096V0.823242H123.73V11.0542H125.096V6.27565H130.015V11.0542H131.38V0.823242H130.015V4.97162Z" fill="white"/>
<path d="M144.649 7.79847H148.886L150.505 11.0542H151.993L147.021 0.823242H146.557L141.516 11.0542H143.039L144.649 7.79847ZM145.288 6.51195L146.785 3.47505L148.273 6.51195H145.288Z" fill="white"/>
<path d="M33.7524 32.1725C32.3695 33.5553 30.4526 34.343 28.4832 34.343C24.1243 34.343 21.0695 31.1486 21.0695 26.5714C21.0695 21.9241 24.0455 18.7997 28.4832 18.7997C30.4526 18.7997 32.3695 19.5874 33.7524 20.9702L33.875 21.0927L36.7897 18.1783L36.6759 18.0558C34.5052 15.8503 31.5992 14.6426 28.492 14.6426C21.6384 14.6426 16.8594 19.5436 16.8594 26.5714C16.8594 33.4853 21.7522 38.5001 28.492 38.5001C31.5905 38.5001 34.4964 37.3011 36.6759 35.1219L36.7897 35.0081L33.875 32.0588L33.7524 32.1725Z" fill="white"/>
<path d="M42.6445 19.1327H48.7015V38.1768H52.8241V19.1327H58.8986V14.9756H42.6445V19.1327Z" fill="white"/>
<path d="M102.33 14.9756H93.918V38.273H98.0756V29.0486H101.699C102.417 29.0486 103.109 28.9786 103.765 28.8298C109.288 27.622 110.111 23.9112 110.111 21.8108C110.111 15.0544 102.408 14.9756 102.33 14.9756ZM102.662 24.8914C102.662 24.8914 102.347 24.9177 102.189 24.9177H98.1281V19.1327H102.032C102.041 19.1327 102.251 19.159 102.566 19.1502C103.415 19.1415 104.579 19.2815 105.297 19.9904C105.743 20.428 105.971 21.0406 105.971 21.8195C105.997 24.6201 103.003 24.8739 102.662 24.8914Z" fill="white"/>
<path d="M144.581 14.9756C144.502 14.9756 136.8 15.0544 136.8 21.8108C136.8 23.7625 137.517 27.1057 142.034 28.541L137.99 34.571H134.375V38.2818H135.504H138.06H139.697H139.951L146.121 29.0573H148.843V38.1855H153.001V14.9756H144.581ZM144.38 24.9352C144.239 24.9352 140.948 24.8652 140.94 22.0471C140.931 19.3428 144.003 19.159 144.353 19.1502L144.87 19.1327H148.791V24.9264C148.257 24.9352 146.489 24.9702 144.87 24.9702C144.712 24.9615 144.397 24.9352 144.38 24.9352Z" fill="white"/>
<path d="M87.8443 26.554C87.8443 24.331 87.2054 22.248 86.1112 20.4802L88.527 18.0647L85.3585 14.8965L83.0477 17.207C81.1484 15.8417 78.8288 15.0278 76.3168 15.0278C73.8659 15.0278 71.599 15.7979 69.7346 17.102L67.5551 14.9227L64.3516 18.1259L66.6011 20.3751C65.4544 22.1605 64.7892 24.2872 64.7892 26.5627C64.7892 28.8469 65.4544 30.9736 66.6098 32.759L64.4478 34.9032L67.6514 38.1064L69.7433 36.0147C71.6077 37.31 73.8747 38.0714 76.308 38.0714C78.7326 38.0714 80.982 37.3187 82.8464 36.0322L84.8946 38.0802L88.1682 34.807L86.05 32.689C87.1878 30.9211 87.8443 28.8119 87.8443 26.554ZM68.4829 26.554C68.4829 22.2393 71.9928 18.721 76.3168 18.721C80.6319 18.721 84.1506 22.2305 84.1506 26.554C84.1506 30.8774 80.6407 34.3869 76.3168 34.3869C72.0016 34.3869 68.4829 30.8686 68.4829 26.554Z" fill="#F05300"/>
<path d="M76.4405 29.3373C78.0019 29.3373 79.2677 28.0717 79.2677 26.5104C79.2677 24.9492 78.0019 23.6836 76.4405 23.6836C74.8791 23.6836 73.6133 24.9492 73.6133 26.5104C73.6133 28.0717 74.8791 29.3373 76.4405 29.3373Z" fill="#F05300"/>
</svg>
