<svg width="266" height="61" viewBox="0 0 266 61" fill="none" xmlns="http://www.w3.org/2000/svg">
<path d="M39.2002 0.300022C31.0002 -0.999978 24.1002 2.40002 19.4002 8.20002C16.3002 8.90002 13.6002 10.6 11.8002 13.9C8.80019 15.1 6.00019 17 3.70019 19.7C-1.19981 25.8 -1.09981 34.2 2.90019 40.8C6.70019 47.1 12.4002 50.2 18.7002 51.2C20.8002 54.4 23.6002 57 27.1002 58.7C31.7002 60.9 36.7002 60.8 40.9002 58.6C45.2002 59 49.6002 58 52.7002 54.6C58.0002 48.8 56.8002 40.1 55.1002 32.8C60.8002 19.8 53.9002 2.60002 39.2002 0.300022ZM33.1002 2.60002C44.8002 -0.0999782 55.1002 9.20002 54.7002 23.7C54.6002 26.1 54.6002 26.8 53.9002 28.8C52.9002 31 52.5002 23.9 51.3002 20.7C48.2002 12.5 40.3002 9.50002 32.8002 8.50002C30.0002 8.10002 27.6002 7.70002 24.5002 7.70002C26.8002 5.60002 29.8002 3.40002 33.1002 2.60002ZM39.3002 55.6C38.1002 55.5 37.9002 55.5 36.8002 55.1C35.0002 54.6 33.2002 53.9 31.5002 53C38.4002 53.2 45.5002 47.2 49.4002 41.1C49.3002 46.8 45.6002 52.9 39.3002 55.6ZM13.5002 16.4C14.0002 16.3 14.5002 16.2 15.0002 16.1C14.2002 18.1 13.6002 20.3 13.3002 22.5C12.6002 24.5 12.5002 26.7 13.0002 29C13.1002 30.3 13.2002 31.6 13.5002 33C13.6002 34.4 13.7002 35.8 13.9002 37C14.1002 38.8 14.0002 38.9 14.5002 40.7C11.8002 37.7 10.7002 32.4 10.7002 27.6C10.6002 23.7 11.4002 20.3 13.5002 16.4ZM18.7002 47.2C17.4002 45.1 17.3002 42.6 17.1002 42C17.5002 42.7 19.7002 46.4 20.9002 47.5C20.7002 47.5 18.8002 47.3 18.7002 47.2ZM47.9002 38.5C46.4002 40 44.7002 41.3 42.9002 42.4C45.1002 38.4 46.0002 33.5 45.6002 28.8C47.1002 31.2 48.1002 33.9 48.5002 36.9C48.4002 37.4 48.2002 38 47.9002 38.5ZM18.3002 39C20.2002 40.7 23.1002 42.4 25.5002 43.2C26.9002 45.3 28.6002 47 30.6002 47.8C29.1002 48.2 27.4002 48.5 25.8002 48.6C20.1002 45.5 18.8002 40.6 18.3002 39ZM22.2002 16.2C19.6002 18.7 16.5002 25.6 15.7002 29.5C15.7002 27.5 15.5002 22.7 15.8002 20.7C16.1002 20.3 18.5002 16.9 22.2002 16.2ZM27.3002 40.7C25.8002 38.4 24.6002 35.6 23.9002 33.3C22.8002 29.7 22.3002 26.5 22.8002 23.2C23.8002 17.4 30.8002 15.1 33.8002 17.8C41.9002 24.8 37.2002 34 33.8002 33.2C35.6002 32.1 37.0002 30 36.8002 27.3C36.5002 21.1 28.9002 19.3 25.5002 23.8C21.5002 29 25.4002 36 31.1002 36.5C34.2002 36.7 36.7002 35.4 38.4002 33.2C38.4002 41.2 32.1002 41.7 27.3002 40.7ZM20.0002 23.2C20.0002 27.3 21.0002 33.1 22.2002 36.5C22.5002 37.3 22.8002 38.1 23.2002 38.9C21.6002 38.5 18.3002 37.7 17.2002 34.6C16.7002 30.2 18.6002 26.3 20.0002 23.2ZM31.3002 43.6C39.2002 42.3 42.0002 34.8 40.9002 27.9C41.1002 26.9 39.2002 22 38.4002 19.9C45.2002 28 43.0002 38.7 38.4002 41.8C35.5002 43.7 34.0002 44.1 29.9002 43.7C30.4002 43.7 30.9002 43.7 31.3002 43.6ZM21.0002 14.6C20.8002 14.7 17.5002 16.8 17.3002 16.9C17.4002 16.8 17.3002 15.3 18.0002 14.6C19.8002 14.1 20.9002 14.6 21.0002 14.6ZM27.6002 14.1C26.3002 13.3 21.5002 12.1 19.6002 12.6C21.6002 9.90002 30.6002 10.1 33.1002 13.9C31.8002 13.6 29.4002 13.6 27.6002 14.1ZM38.4002 47.5C40.0002 46.8 43.0002 45.2 44.5002 44.3C42.7002 46 40.2002 48.9 35.6002 49.6C30.8002 50.3 30.6002 49.8 30.5002 49.9C31.3002 49.5 37.8002 48 38.4002 47.5ZM49.0002 30.8C47.7002 28.2 45.8002 25.2 44.1002 23.2C43.1002 19.8 42.1002 17.9 39.5002 15.3C38.1002 13.9 36.4002 12.6 34.6002 11.6C39.1002 12.4 44.4002 13.5 47.4002 17.3C50.2002 20.8 50.5002 25.9 50.0002 30.6C50.0002 31.2 49.3002 31.3 49.0002 30.8ZM18.3002 10.6C18.3002 10.6 16.9002 12.9 16.8002 13.1C16.6002 13.1 14.4002 13.7 14.2002 13.7C15.3002 11 18.0002 10.8 18.3002 10.6ZM1.90019 31.8C1.30019 24.5 6.00019 19.3 11.1002 16.9C6.80019 28.1 7.40019 39 16.0002 47.5C9.10019 45.6 2.60019 40.6 1.90019 31.8ZM21.1002 51.4C21.6002 51.4 23.4002 51.6 24.0002 51.6C24.3002 51.7 24.6002 51.7 24.9002 51.7C27.0002 53.4 29.2002 54.8 31.6002 56C32.5002 56.5 33.6002 56.9 34.6002 57.3C30.2002 57.4 24.5002 55.3 21.1002 51.4ZM54.0002 47.5C52.7002 51.9 48.9002 54.8 45.2002 55.5C45.9002 54.8 46.5002 54.1 47.1002 53.3C50.6002 48.6 51.8002 43.6 51.3002 38.8C52.0002 38 53.1002 35.9 53.7002 35C54.5002 39 55.1002 43.8 54.0002 47.5Z" fill="#000"/>
<path d="M31.2001 33.3C33.7406 33.3 35.8001 31.0615 35.8001 28.3C35.8001 25.5386 33.7406 23.3 31.2001 23.3C28.6596 23.3 26.6001 25.5386 26.6001 28.3C26.6001 31.0615 28.6596 33.3 31.2001 33.3Z" fill="#000"/>
<path d="M79.2001 36.3001C77.7001 36.3001 76.4001 35.9001 75.3001 35.2001C74.1001 34.5001 73.2001 33.5001 72.6001 32.2001C71.9001 31.0001 71.6001 29.5001 71.6001 28.0001C71.6001 26.4001 72.0001 25.0001 72.7001 23.7001C73.4001 22.4001 74.4001 21.5001 75.7001 20.7001C76.9001 20.0001 78.3001 19.6001 79.9001 19.6001C81.5001 19.6001 82.9001 20.0001 84.1001 20.7001C85.3001 21.4001 86.3001 22.4001 87.0001 23.7001C87.6001 25.0001 88.0001 26.4001 88.0001 28.0001H86.8001C86.8001 29.6001 86.5001 31.0001 85.8001 32.2001C85.1001 33.4001 84.2001 34.4001 83.1001 35.2001C81.9001 35.9001 80.6001 36.3001 79.2001 36.3001ZM79.8001 33.6001C80.8001 33.6001 81.7001 33.4001 82.5001 32.9001C83.3001 32.4001 83.9001 31.7001 84.4001 30.9001C84.9001 30.1001 85.1001 29.1001 85.1001 28.0001C85.1001 26.9001 84.9001 26.0001 84.4001 25.1001C83.9001 24.3001 83.3001 23.6001 82.5001 23.1001C81.7001 22.6001 80.8001 22.4001 79.8001 22.4001C78.8001 22.4001 77.9001 22.6001 77.1001 23.1001C76.3001 23.6001 75.7001 24.3001 75.2001 25.1001C74.7001 25.9001 74.5001 26.9001 74.5001 28.0001C74.5001 29.1001 74.7001 30.0001 75.2001 30.9001C75.7001 31.7001 76.3001 32.4001 77.1001 32.9001C77.9001 33.4001 78.8001 33.6001 79.8001 33.6001ZM86.5001 36.2001C86.1001 36.2001 85.7001 36.1001 85.4001 35.8001C85.1001 35.5001 85.0001 35.1001 85.0001 34.7001V30.1001L85.6001 26.9001L88.0001 28.0001V34.7001C88.0001 35.1001 87.9001 35.5001 87.6001 35.8001C87.3001 36.1001 86.9001 36.2001 86.5001 36.2001Z" fill="#000"/>
<path d="M100.8 36.3C99.2001 36.3 97.8001 35.9001 96.6001 35.2001C95.4001 34.5001 94.4001 33.5001 93.7001 32.2001C93.0001 30.9001 92.6001 29.5 92.6001 27.9V14.3C92.6001 13.8 92.7001 13.5 93.0001 13.2C93.3001 12.9 93.7001 12.8 94.1001 12.8C94.6001 12.8 94.9001 12.9 95.2001 13.2C95.5001 13.5 95.6001 13.8 95.6001 14.3V22.4C96.3001 21.6 97.1001 20.9 98.1001 20.4C99.1001 19.9 100.2 19.7 101.3 19.7C102.8 19.7 104.1 20.1 105.2 20.8C106.4 21.5 107.3 22.5 107.9 23.8C108.6 25 108.9 26.5 108.9 28C108.9 29.5 108.5 31 107.8 32.3C107.1 33.6 106.1 34.6 104.9 35.3C103.8 35.9 102.4 36.3 100.8 36.3ZM100.8 33.6C101.8 33.6 102.7 33.4001 103.5 32.9001C104.3 32.4001 104.9 31.7 105.4 30.9C105.9 30 106.1 29.1 106.1 28C106.1 26.9 105.9 26 105.4 25.1C104.9 24.3 104.3 23.6 103.5 23.1C102.7 22.6 101.8 22.4 100.8 22.4C99.8001 22.4 98.9001 22.6 98.1001 23.1C97.3001 23.6 96.7001 24.3 96.2001 25.1C95.7001 25.9 95.5001 26.9 95.5001 28C95.5001 29.1 95.7001 30 96.2001 30.9C96.7001 31.8 97.3001 32.4001 98.1001 32.9001C98.9001 33.4001 99.8001 33.6 100.8 33.6Z" fill="#000"/>
<path d="M115.1 36.2001C114.6 36.2001 114.3 36.1001 114 35.8001C113.7 35.6001 113.6 35.2001 113.6 34.7001V21.3001C113.6 20.8001 113.7 20.5001 114 20.2001C114.3 19.9001 114.6 19.8001 115.1 19.8001C115.6 19.8001 116 19.9001 116.2 20.2001C116.4 20.4001 116.6 20.8001 116.6 21.3001V34.7001C116.6 35.2001 116.5 35.5001 116.2 35.8001C116 36.1001 115.6 36.2001 115.1 36.2001ZM115.1 26.0001C115.1 24.8001 115.4 23.7001 116 22.8001C116.6 21.9001 117.4 21.1001 118.4 20.5001C119.4 19.9001 120.5 19.7001 121.7 19.7001C122.9 19.7001 123.8 19.9001 124.4 20.3001C125 20.7001 125.2 21.2001 125.1 21.7001C125 22.0001 124.9 22.2001 124.8 22.3001C124.6 22.4001 124.4 22.5001 124.2 22.6001C124 22.6001 123.7 22.6001 123.5 22.6001C122.2 22.3001 121.1 22.3001 120.1 22.5001C119.1 22.7001 118.3 23.1001 117.7 23.7001C117.1 24.3001 116.8 25.1001 116.8 26.0001H115.1Z" fill="#000"/>
<path d="M133.8 36.3001C132.3 36.3001 131 35.9001 129.9 35.2001C128.7 34.5001 127.8 33.5001 127.2 32.2001C126.5 31.0001 126.2 29.5001 126.2 28.0001C126.2 26.4001 126.6 25.0001 127.3 23.7001C128 22.4001 129 21.5001 130.3 20.7001C131.5 20.0001 132.9 19.6001 134.5 19.6001C136.1 19.6001 137.5 20.0001 138.7 20.7001C139.9 21.4001 140.9 22.4001 141.6 23.7001C142.3 25.0001 142.7 26.4001 142.7 28.0001H141.5C141.5 29.6001 141.2 31.0001 140.5 32.2001C139.8 33.4001 138.9 34.4001 137.8 35.2001C136.5 35.9001 135.2 36.3001 133.8 36.3001ZM134.4 33.6001C135.4 33.6001 136.3 33.4001 137.1 32.9001C137.9 32.4001 138.5 31.7001 139 30.9001C139.5 30.1001 139.7 29.1001 139.7 28.0001C139.7 26.9001 139.5 26.0001 139 25.1001C138.5 24.3001 137.9 23.6001 137.1 23.1001C136.3 22.6001 135.4 22.4001 134.4 22.4001C133.4 22.4001 132.5 22.6001 131.7 23.1001C130.9 23.6001 130.3 24.3001 129.8 25.1001C129.3 25.9001 129.1 26.9001 129.1 28.0001C129.1 29.1001 129.3 30.0001 129.8 30.9001C130.3 31.7001 130.9 32.4001 131.7 32.9001C132.5 33.4001 133.4 33.6001 134.4 33.6001ZM141.1 36.2001C140.7 36.2001 140.3 36.1001 140 35.8001C139.7 35.5001 139.6 35.1001 139.6 34.7001V30.1001L140.2 26.9001L142.7 28.0001V34.7001C142.7 35.1001 142.6 35.5001 142.3 35.8001C141.9 36.1001 141.5 36.2001 141.1 36.2001Z" fill="#000"/>
<path d="M163.8 36.3C162.4 36.3 161.1 35.9 160 35.2C158.9 34.5 158 33.5 157.3 32.3C156.6 31.1 156.3 29.7 156.3 28.2C156.3 26.7 156.7 25.3 157.4 24C158.1 22.8 159.1 21.8 160.3 21.1C161.5 20.4 162.9 20 164.4 20C165.9 20 167.3 20.4 168.5 21.1C169.7 21.8 170.7 22.8 171.4 24C172.1 25.2 172.5 26.6 172.5 28.2H171.4C171.4 29.7 171.1 31.1 170.4 32.3C169.7 33.5 168.9 34.5 167.7 35.2C166.5 36 165.2 36.3 163.8 36.3ZM164.4 33.7C165.4 33.7 166.3 33.5 167.1 33C167.9 32.5 168.5 31.9 168.9 31C169.3 30.2 169.6 29.2 169.6 28.2C169.6 27.1 169.4 26.2 168.9 25.4C168.5 24.6 167.8 23.9 167.1 23.4C166.3 22.9 165.4 22.7 164.4 22.7C163.4 22.7 162.5 22.9 161.8 23.4C161 23.9 160.4 24.5 159.9 25.4C159.4 26.2 159.2 27.2 159.2 28.2C159.2 29.2 159.4 30.2 159.9 31C160.4 31.8 161 32.5 161.8 33C162.6 33.5 163.4 33.7 164.4 33.7ZM170.9 36.2C170.5 36.2 170.1 36.1 169.8 35.8C169.5 35.5 169.4 35.2 169.4 34.7V30.2L170 27.1L172.4 28.2V34.7C172.4 35.1 172.3 35.5 172 35.8C171.7 36.1 171.4 36.2 170.9 36.2Z" fill="#000"/>
<path d="M183.6 36.3C182.1 36.3 180.8 36 179.7 35.3C178.6 34.6 177.7 33.7 177.1 32.4C176.5 31.2 176.1 29.8 176.1 28.2C176.1 26.6 176.4 25.2 177.1 24C177.8 22.8 178.7 21.8 180 21.1C181.2 20.4 182.6 20.1 184.2 20.1C185.8 20.1 187.1 20.4 188.4 21.1C189.7 21.8 190.6 22.7 191.3 24C192 25.2 192.3 26.6 192.3 28.2H190.6C190.6 29.8 190.3 31.2 189.7 32.4C189.1 33.6 188.3 34.6 187.3 35.3C186.1 36 184.9 36.3 183.6 36.3ZM184.1 42.8C182.7 42.8 181.4 42.5 180.2 42C179 41.5 178 40.7 177.1 39.6C176.8 39.3 176.8 38.9 176.8 38.6C176.9 38.2 177.1 38 177.4 37.8C177.8 37.6 178.1 37.5 178.5 37.6C178.9 37.7 179.2 37.9 179.4 38.2C179.9 38.9 180.6 39.4 181.4 39.8C182.2 40.2 183.1 40.4 184.1 40.4C185 40.4 185.9 40.2 186.7 39.7C187.5 39.3 188.1 38.6 188.6 37.7C189.1 36.8 189.3 35.7 189.3 34.5V30.3L190.3 27.7L192.2 28.3V34.6C192.2 36.1 191.9 37.5 191.2 38.8C190.5 40.1 189.6 41.1 188.3 41.8C187.1 42.5 185.7 42.8 184.1 42.8ZM184.1 33.7C185.1 33.7 186 33.5 186.8 33C187.6 32.5 188.2 31.9 188.6 31.1C189 30.3 189.3 29.3 189.3 28.3C189.3 27.2 189.1 26.3 188.6 25.4C188.2 24.6 187.6 23.9 186.8 23.5C186 23 185.1 22.8 184.1 22.8C183.1 22.8 182.2 23 181.4 23.5C180.6 24 180 24.6 179.6 25.4C179.2 26.2 178.9 27.2 178.9 28.3C178.9 29.4 179.1 30.3 179.6 31.1C180 31.9 180.7 32.6 181.4 33C182.2 33.4 183.1 33.7 184.1 33.7Z" fill="#000"/>
<path d="M204.2 36.3C202.6 36.3 201.1 36 199.9 35.3C198.6 34.6 197.7 33.7 196.9 32.4C196.2 31.2 195.8 29.8 195.8 28.2C195.8 26.6 196.1 25.2 196.8 24C197.5 22.8 198.4 21.8 199.6 21.1C200.8 20.4 202.2 20.1 203.7 20.1C205.2 20.1 206.5 20.4 207.6 21.1C208.7 21.8 209.5 22.7 210.1 23.9C210.7 25.1 211 26.4 211 28C211 28.4 210.9 28.7 210.6 28.9C210.3 29.1 210 29.3 209.6 29.3H197.8V27H209.5L208.3 27.8C208.3 26.8 208.1 26 207.7 25.2C207.3 24.4 206.8 23.8 206.1 23.4C205.4 23 204.6 22.7 203.6 22.7C202.5 22.7 201.5 22.9 200.7 23.4C199.9 23.9 199.3 24.6 198.9 25.4C198.5 26.2 198.3 27.2 198.3 28.3C198.3 29.4 198.5 30.3 199 31.2C199.5 32 200.2 32.7 201 33.2C201.9 33.7 202.8 33.9 204 33.9C204.6 33.9 205.2 33.8 205.9 33.6C206.5 33.4 207 33.1 207.4 32.8C207.7 32.6 208 32.5 208.4 32.5C208.7 32.5 209 32.6 209.3 32.8C209.6 33.1 209.8 33.4 209.8 33.8C209.8 34.2 209.7 34.5 209.3 34.7C208.6 35.2 207.8 35.7 206.8 36C206 36.1 205.1 36.3 204.2 36.3Z" fill="#000"/>
<path d="M216.3 36.2C215.9 36.2 215.5 36.1 215.2 35.8C214.9 35.5 214.8 35.2 214.8 34.7V21.7C214.8 21.3 214.9 20.9 215.2 20.6C215.5 20.3 215.8 20.2 216.3 20.2C216.7 20.2 217.1 20.3 217.4 20.6C217.7 20.9 217.8 21.2 217.8 21.7V34.8C217.8 35.2 217.7 35.6 217.4 35.9C217.1 36.1 216.8 36.2 216.3 36.2ZM228.4 36.2C228 36.2 227.6 36.1 227.3 35.8C227 35.5 226.9 35.2 226.9 34.7V27.5C226.9 26.4 226.7 25.5 226.3 24.8C225.9 24.1 225.3 23.6 224.6 23.2C223.9 22.9 223.1 22.7 222.2 22.7C221.4 22.7 220.6 22.9 220 23.2C219.3 23.5 218.8 24 218.4 24.5C218 25.1 217.8 25.7 217.8 26.4H216C216 25.2 216.3 24.1 216.9 23.1C217.5 22.1 218.3 21.4 219.3 20.8C220.3 20.2 221.5 20 222.8 20C224.1 20 225.4 20.3 226.4 20.9C227.5 21.5 228.3 22.3 228.9 23.4C229.5 24.5 229.8 25.9 229.8 27.5V34.7C229.8 35.1 229.7 35.5 229.4 35.8C229.1 36.1 228.8 36.2 228.4 36.2Z" fill="#000"/>
<path d="M242.1 36.3C240.5 36.3 239.1 35.9 237.9 35.2C236.7 34.5 235.7 33.5 235 32.3C234.3 31.1 234 29.7 234 28.2C234 26.6 234.3 25.2 235 24C235.7 22.8 236.6 21.8 237.8 21.1C239 20.4 240.4 20.1 241.9 20.1C243.1 20.1 244.1 20.3 245.1 20.8C246.1 21.2 246.9 21.9 247.7 22.8C248 23.1 248.1 23.4 248 23.8C247.9 24.1 247.7 24.4 247.4 24.7C247.1 24.9 246.8 25 246.5 24.9C246.2 24.8 245.9 24.7 245.6 24.4C244.6 23.4 243.5 22.9 242 22.9C241 22.9 240.1 23.1 239.4 23.6C238.6 24.1 238 24.7 237.6 25.5C237.2 26.3 237 27.3 237 28.4C237 29.5 237.2 30.4 237.7 31.2C238.1 32 238.7 32.7 239.5 33.1C240.3 33.5 241.2 33.8 242.2 33.8C242.9 33.8 243.5 33.7 244 33.6C244.5 33.4 245 33.2 245.4 32.8C245.7 32.5 246 32.4 246.4 32.4C246.8 32.4 247 32.5 247.3 32.7C247.6 33 247.8 33.3 247.9 33.6C247.9 33.9 247.8 34.2 247.5 34.5C245.9 35.7 244.2 36.3 242.1 36.3Z" fill="#000"/>
<path d="M258.7 35.4999C258.3 35.6999 258 35.6999 257.7 35.4999C257.4 35.3999 257.1 35.0999 256.9 34.7999L250.2 22.0999C250 21.6999 250 21.3999 250.1 20.9999C250.2 20.6999 250.5 20.3999 250.9 20.2999C251.3 20.0999 251.6 20.0999 252 20.2999C252.3 20.3999 252.6 20.6999 252.8 20.9999L259.2 33.6999C259.4 34.0999 259.5 34.3999 259.4 34.7999C259.3 35.1999 259.1 35.3999 258.7 35.4999ZM255.3 43.1999C255.1 43.1999 254.9 43.0999 254.6 42.9999C253.7 42.5999 253.5 41.9999 253.9 41.1999L262.8 20.9999C263.2 20.1999 263.8 19.8999 264.6 20.2999C265.5 20.6999 265.7 21.2999 265.3 22.0999L256.3 42.1999C256.2 42.8999 255.8 43.1999 255.3 43.1999Z" fill="#000"/>
</svg>
