<svg width="169" height="64" viewBox="0 0 169 64" fill="none" xmlns="http://www.w3.org/2000/svg">
<path d="M41.4131 0.302536C32.7596 -1.06936 25.478 2.51868 20.518 8.63947C17.2466 9.37819 14.3972 11.1722 12.4977 14.6547C9.33174 15.9211 6.37688 17.9262 3.94967 20.7755C-1.22134 27.2129 -1.11581 36.0775 3.10542 43.0425C7.1156 49.691 13.1309 52.9624 19.7793 54.0177C21.9954 57.3947 24.9503 60.1385 28.6439 61.9326C33.4983 64.2542 38.7748 64.1487 43.2071 61.827C47.745 62.2491 52.3883 61.1938 55.6598 57.6058C61.2529 51.485 59.9865 42.3038 58.1925 34.6001C64.2078 20.8811 56.9262 2.72975 41.4131 0.302536ZM34.9757 2.72975C47.3228 -0.119587 58.1925 9.69478 57.7704 24.9968C57.6649 27.5295 57.6649 28.2682 56.9262 30.3788C55.8708 32.7005 55.4487 25.2078 54.1824 21.8308C50.9109 13.1773 42.574 10.0114 34.6591 8.95607C31.7043 8.53394 29.1715 8.11182 25.9001 8.11182C28.3273 5.89567 31.4932 3.57399 34.9757 2.72975ZM41.5187 58.6611C40.2523 58.5556 40.0412 58.5556 38.8804 58.1334C36.9808 57.6058 35.0813 56.8671 33.2872 55.9173C40.5689 56.1284 48.0616 49.7965 52.1773 43.3591C52.0717 49.3744 48.1671 55.8118 41.5187 58.6611ZM14.2917 17.293C14.8193 17.1875 15.347 17.0819 15.8747 16.9764C15.0304 19.087 14.3972 21.4087 14.0806 23.7304C13.3419 25.841 13.2364 28.1627 13.764 30.5899C13.8696 31.9618 13.9751 33.3337 14.2917 34.8111C14.3972 36.2886 14.5028 37.766 14.7138 39.0324C14.9249 40.9319 14.8193 41.0374 15.347 42.937C12.4977 39.7711 11.3368 34.1779 11.3368 29.1125C11.2313 24.9968 12.0755 21.4087 14.2917 17.293ZM19.7793 49.7965C18.4074 47.5804 18.3019 44.9421 18.0908 44.3089C18.5129 45.0476 20.8346 48.9523 22.101 50.1131C21.8899 50.1131 19.8848 49.902 19.7793 49.7965ZM50.5943 40.6153C49.0113 42.1983 47.2173 43.5702 45.3178 44.731C47.6394 40.5098 48.5892 35.3388 48.1671 30.3788C49.7501 32.9116 50.8054 35.7609 51.2275 38.9268C51.122 39.4545 50.9109 40.0877 50.5943 40.6153ZM19.3572 41.143C21.3623 42.937 24.4227 44.731 26.9554 45.5753C28.4328 47.7914 30.2268 49.5854 32.3375 50.4297C30.7545 50.8518 28.9605 51.1684 27.272 51.2739C21.2567 48.0025 19.8848 42.8315 19.3572 41.143ZM23.4729 17.0819C20.7291 19.7202 17.4576 27.0018 16.6134 31.1175C16.6134 29.0069 16.4023 23.9414 16.7189 21.8308C17.0355 21.4087 19.5682 17.8207 23.4729 17.0819ZM28.8549 42.937C27.272 40.5098 26.0056 37.5549 25.2669 35.1277C24.1061 31.3286 23.5784 27.9516 24.1061 24.4691C25.1614 18.3483 32.5485 15.9211 35.7145 18.7704C44.2625 26.1576 39.3025 35.8664 35.7145 35.0222C37.614 33.8613 39.0914 31.6452 38.8804 28.7959C38.5638 22.253 30.5434 20.3534 26.9554 25.1023C22.7342 30.5899 26.8499 37.9771 32.8651 38.5047C36.1366 38.7158 38.7748 37.3439 40.5689 35.0222C40.5689 43.4647 33.9204 43.9923 28.8549 42.937ZM21.1512 24.4691C21.1512 28.7959 22.2065 34.9167 23.4729 38.5047C23.7895 39.3489 24.1061 40.1932 24.5282 41.0374C22.8397 40.6153 19.3572 39.7711 18.1963 36.4996C17.6687 31.8563 19.6738 27.7406 21.1512 24.4691ZM33.0762 45.9974C41.4131 44.6255 44.368 36.7107 43.2071 29.429C43.4182 28.3737 41.4131 23.2027 40.5689 20.9866C47.745 29.5346 45.4233 40.8264 40.5689 44.0978C37.5085 46.1029 35.9255 46.525 31.5987 46.1029C32.1264 46.1029 32.6541 46.1029 33.0762 45.9974ZM22.2065 15.3934C21.9954 15.499 18.5129 17.7151 18.3019 17.8207C18.4074 17.7151 18.3019 16.1322 19.0406 15.3934C20.9401 14.8658 22.101 15.3934 22.2065 15.3934ZM29.1715 14.8658C27.7996 14.0215 22.7342 12.7552 20.7291 13.2828C22.8397 10.4335 32.3375 10.6446 34.9757 14.6547C33.6038 14.3381 31.0711 14.3381 29.1715 14.8658ZM40.5689 50.1131C42.2574 49.3744 45.4233 47.6859 47.0063 46.7361C45.1067 48.5301 42.4684 51.5905 37.614 52.3292C32.5485 53.068 32.3375 52.5403 32.2319 52.6458C33.0762 52.2237 39.9357 50.6408 40.5689 50.1131ZM51.7551 32.4894C50.3832 29.7456 48.3782 26.5797 46.5841 24.4691C45.5288 20.8811 44.4735 18.876 41.7297 16.1322C40.2523 14.6547 38.4583 13.2828 36.5587 12.2275C41.3076 13.0718 46.9007 14.2326 50.0666 18.2428C53.0215 21.9364 53.3381 27.3184 52.8104 32.2784C52.8104 32.9116 52.0717 33.0171 51.7551 32.4894ZM19.3572 11.1722C19.3572 11.1722 17.8797 13.5994 17.7742 13.8105C17.5631 13.8105 15.2415 14.4437 15.0304 14.4437C16.1912 11.5943 19.0406 11.3833 19.3572 11.1722ZM2.05012 33.5448C1.41693 25.841 6.37688 20.3534 11.759 17.8207C7.22113 29.6401 7.85431 41.143 16.93 50.1131C9.64834 48.108 2.78883 42.8315 2.05012 33.5448ZM22.312 54.2288C22.8397 54.2288 24.7392 54.4399 25.3724 54.4399C25.689 54.5454 26.0056 54.5454 26.3222 54.5454C28.5384 56.3394 30.86 57.8168 33.3928 59.0832C34.3426 59.6109 35.5034 60.033 36.5587 60.4551C31.9153 60.5606 25.9001 58.3445 22.312 54.2288ZM57.0317 50.1131C55.6598 54.7565 51.6496 57.8168 47.745 58.5556C48.4837 57.8168 49.1169 57.0781 49.7501 56.2339C53.4436 51.2739 54.71 45.9974 54.1824 40.9319C54.9211 40.0877 56.0819 37.8715 56.7151 36.9217C57.5593 41.143 58.1925 46.2085 57.0317 50.1131Z" fill="currentColor"/>
<path d="M32.9706 35.1277C35.6517 35.1277 37.825 32.7653 37.825 29.8512C37.825 26.937 35.6517 24.5746 32.9706 24.5746C30.2896 24.5746 28.1162 26.937 28.1162 29.8512C28.1162 32.7653 30.2896 35.1277 32.9706 35.1277Z" fill="currentColor"/>
<path d="M84.7862 32.1728C82.8867 32.1728 81.0927 31.6451 79.6152 30.6954C78.1378 29.7456 76.8714 28.4792 76.0272 26.7907C75.1829 25.1022 74.6553 23.3082 74.6553 21.1976C74.6553 19.087 75.1829 17.2929 76.1327 15.6045C77.0825 13.916 78.3489 12.6496 80.0374 11.6998C81.7258 10.75 83.5199 10.2224 85.6305 10.2224C87.6356 10.2224 89.5351 10.75 91.1181 11.6998C92.7011 12.6496 94.073 13.916 95.0227 15.6045C95.9725 17.2929 96.5002 19.087 96.5002 21.1976H94.9172C94.9172 23.3082 94.4951 25.1022 93.5453 26.7907C92.701 28.4792 91.4347 29.7456 89.9572 30.6954C88.3743 31.6451 86.6858 32.1728 84.7862 32.1728ZM85.525 28.5847C86.8969 28.5847 88.0577 28.2682 89.113 27.635C90.1683 27.0018 91.0126 26.1575 91.6457 24.9967C92.2789 23.8359 92.5955 22.675 92.5955 21.1976C92.5955 19.8257 92.2789 18.5593 91.6457 17.3985C91.0126 16.2376 90.1683 15.3934 89.113 14.7602C88.0577 14.127 86.8969 13.8104 85.525 13.8104C84.2586 13.8104 82.9922 14.127 81.9369 14.7602C80.8816 15.3934 80.0373 16.2376 79.4042 17.3985C78.771 18.5593 78.4544 19.8257 78.4544 21.1976C78.4544 22.5695 78.771 23.8359 79.4042 24.9967C80.0373 26.1575 80.8816 27.0018 81.9369 27.635C83.0977 28.2682 84.2586 28.5847 85.525 28.5847ZM94.3895 32.0673C93.8619 32.0673 93.3342 31.8562 92.9121 31.5396C92.49 31.223 92.3845 30.6954 92.3845 30.0622V24.0469L93.1232 19.8257L96.3946 21.1976V29.9566C96.3946 30.4843 96.1836 31.012 95.867 31.4341C95.4449 31.8562 95.0227 32.0673 94.3895 32.0673Z" fill="currentColor"/>
<path d="M113.28 32.1728C111.275 32.1728 109.375 31.6452 107.792 30.6954C106.209 29.7456 104.837 28.4792 103.887 26.7908C102.938 25.1023 102.41 23.3082 102.41 21.1976V3.25737C102.41 2.62419 102.621 2.20207 102.938 1.77994C103.36 1.46335 103.782 1.25229 104.415 1.25229C105.048 1.25229 105.47 1.46335 105.892 1.77994C106.209 2.09654 106.42 2.62419 106.42 3.25737V13.916C107.37 12.8607 108.425 11.9109 109.797 11.2777C111.063 10.6445 112.541 10.3279 114.124 10.3279C116.023 10.3279 117.817 10.8556 119.295 11.8054C120.772 12.7552 122.039 14.0215 122.883 15.71C123.727 17.3985 124.255 19.1925 124.255 21.3032C124.255 23.4138 123.727 25.2078 122.777 26.8963C121.828 28.5848 120.561 29.8511 118.873 30.8009C117.184 31.6452 115.285 32.1728 113.28 32.1728ZM113.28 28.5848C114.651 28.5848 115.812 28.2682 116.868 27.635C117.923 27.0018 118.767 26.052 119.4 24.9967C120.034 23.8359 120.35 22.5695 120.35 21.1976C120.35 19.8257 120.034 18.5593 119.4 17.3985C118.767 16.3432 117.923 15.3934 116.868 14.7602C115.812 14.1271 114.651 13.8105 113.28 13.8105C112.013 13.8105 110.747 14.1271 109.692 14.7602C108.636 15.3934 107.792 16.2377 107.159 17.3985C106.526 18.4538 106.209 19.7202 106.209 21.1976C106.209 22.5695 106.526 23.8359 107.159 24.9967C107.792 26.1576 108.636 27.0018 109.692 27.635C110.747 28.2682 111.908 28.5848 113.28 28.5848Z" fill="currentColor"/>
<path d="M132.064 31.9617C131.431 31.9617 130.903 31.7507 130.586 31.4341C130.27 31.1175 130.059 30.5898 130.059 29.9566V12.4385C130.059 11.8053 130.27 11.2777 130.586 10.9611C130.903 10.6445 131.431 10.4334 132.064 10.4334C132.697 10.4334 133.225 10.6445 133.541 10.9611C133.858 11.2777 134.069 11.8053 134.069 12.4385V30.0622C134.069 30.6954 133.858 31.223 133.541 31.5396C133.225 31.8562 132.803 31.9617 132.064 31.9617ZM132.064 18.5593C132.064 16.9764 132.486 15.6045 133.225 14.3381C133.963 13.0717 135.019 12.1219 136.391 11.3832C137.657 10.6445 139.134 10.3279 140.717 10.3279C142.3 10.3279 143.461 10.539 144.2 11.0666C144.939 11.5943 145.255 12.2275 145.044 12.8607C144.939 13.1772 144.833 13.4938 144.622 13.7049C144.411 13.916 144.094 14.0215 143.883 14.127C143.567 14.2326 143.25 14.127 142.934 14.127C141.245 13.8104 139.768 13.8104 138.396 14.0215C137.024 14.3381 135.969 14.8657 135.23 15.6045C134.491 16.3432 134.069 17.3985 134.069 18.5593H132.064Z" fill="currentColor"/>
<path d="M156.758 32.1728C154.859 32.1728 153.065 31.6451 151.587 30.6954C150.11 29.7456 148.843 28.4792 147.999 26.7907C147.155 25.1022 146.627 23.3082 146.627 21.1976C146.627 19.087 147.155 17.2929 148.105 15.6045C149.054 13.916 150.321 12.6496 152.009 11.6998C153.698 10.75 155.492 10.2224 157.602 10.2224C159.607 10.2224 161.507 10.75 163.09 11.6998C164.673 12.6496 166.045 13.916 166.995 15.6045C167.944 17.2929 168.472 19.087 168.472 21.1976H166.784C166.784 23.3082 166.361 25.1022 165.412 26.7907C164.567 28.4792 163.301 29.7456 161.824 30.6954C160.346 31.6451 158.658 32.1728 156.758 32.1728ZM157.497 28.5847C158.869 28.5847 160.03 28.2682 161.085 27.635C162.14 27.0018 162.984 26.1575 163.618 24.9967C164.251 23.8359 164.567 22.675 164.567 21.1976C164.567 19.8257 164.251 18.5593 163.618 17.3985C162.984 16.2376 162.14 15.3934 161.085 14.7602C160.03 14.127 158.869 13.8104 157.497 13.8104C156.231 13.8104 154.964 14.127 153.909 14.7602C152.854 15.3934 152.009 16.2376 151.376 17.3985C150.743 18.5593 150.426 19.8257 150.426 21.1976C150.426 22.5695 150.743 23.8359 151.376 24.9967C152.009 26.1575 152.854 27.0018 153.909 27.635C154.964 28.2682 156.231 28.5847 157.497 28.5847ZM166.361 32.0673C165.834 32.0673 165.306 31.8562 164.884 31.5396C164.462 31.223 164.356 30.6954 164.356 30.0622V24.0469L165.095 19.8257L168.367 21.1976V29.9566C168.367 30.4843 168.155 31.012 167.839 31.4341C167.417 31.8562 166.889 32.0673 166.361 32.0673Z" fill="currentColor"/>
<path d="M76.766 51.9071C76.0273 51.2739 75.7107 50.5352 75.7107 49.4799C75.7107 47.4748 77.0826 46.4195 79.7209 46.2084L82.8868 45.9974V44.9421C82.8868 43.5702 82.0425 42.8314 80.3541 42.8314C79.7209 42.8314 79.1932 42.937 78.6656 43.148C78.1379 43.3591 77.9268 43.6757 77.8213 44.2033H76.0273C76.1328 43.3591 76.5549 42.6204 77.3992 42.0927C78.2434 41.5651 79.1932 41.2485 80.3541 41.2485C81.726 41.2485 82.7813 41.5651 83.4144 42.1983C84.0476 42.8314 84.4698 43.7812 84.4698 44.9421V52.5403H82.7813V50.9573H82.5702C82.2536 51.5905 81.726 52.0126 81.1983 52.3292C80.5651 52.6458 79.9319 52.7513 79.1932 52.7513C78.349 52.8569 77.3992 52.5403 76.766 51.9071ZM81.937 50.4297C82.5702 49.902 82.7813 49.2688 82.7813 48.4246V47.3693L79.8264 47.5803C78.2434 47.6859 77.3992 48.319 77.3992 49.3744C77.3992 49.902 77.6103 50.3241 78.0324 50.6407C78.4545 50.9573 78.9822 51.0628 79.6153 51.0628C80.6706 51.2739 81.4094 50.9573 81.937 50.4297Z" fill="currentColor"/>
<path d="M93.8619 56.0228C93.0177 55.4951 92.5955 54.7564 92.49 53.8066H94.3896C94.4951 54.2288 94.8117 54.6509 95.2338 54.862C95.7615 55.1785 96.3946 55.2841 97.1334 55.2841C98.0831 55.2841 98.9274 55.073 99.455 54.5454C99.9827 54.0177 100.299 53.4901 100.299 52.6458V50.4297H100.088C99.7716 51.0628 99.244 51.485 98.7163 51.8016C98.0831 52.1181 97.4499 52.3292 96.7112 52.3292C95.2338 52.3292 94.1785 51.8016 93.3342 50.8518C92.49 49.7965 92.0679 48.5301 92.0679 46.8416C92.0679 45.1531 92.49 43.8867 93.3342 42.8314C94.1785 41.7761 95.3393 41.2485 96.7112 41.2485C97.4499 41.2485 98.1887 41.4595 98.8218 41.7761C99.455 42.0927 99.9827 42.6204 100.299 43.148V41.354H101.988V52.5403C101.988 53.8066 101.566 54.7564 100.616 55.4951C99.7716 56.2339 98.5053 56.5504 97.0278 56.5504C95.7615 56.867 94.7061 56.5504 93.8619 56.0228ZM99.3495 49.7965C99.8772 49.0578 100.194 48.108 100.194 46.9471C100.194 45.7863 99.8772 44.8365 99.3495 44.0978C98.7163 43.3591 97.9776 43.0425 96.9223 43.0425C95.867 43.0425 95.1283 43.3591 94.6006 44.0978C94.073 44.8365 93.7564 45.7863 93.7564 46.9471C93.7564 48.108 94.073 49.1633 94.6006 49.7965C95.1283 50.5352 95.9725 50.8518 96.9223 50.8518C97.9776 50.9573 98.8218 50.5352 99.3495 49.7965Z" fill="currentColor"/>
<path d="M117.29 49.7965C117.606 49.7965 117.923 49.7965 118.134 49.7965C118.345 49.7965 118.662 49.7965 118.978 49.7965C118.662 50.7463 118.134 51.485 117.395 52.0126C116.551 52.5403 115.601 52.8569 114.335 52.8569C112.858 52.8569 111.591 52.3292 110.747 51.2739C109.903 50.2186 109.375 48.8467 109.375 47.1582C109.375 45.4697 109.797 43.9923 110.747 43.0425C111.697 41.9872 112.858 41.4595 114.335 41.4595C115.812 41.4595 116.973 41.9872 117.817 42.937C118.662 43.8867 119.084 45.2586 119.084 46.9471V47.5803H111.169V47.6859C111.169 48.7412 111.486 49.6909 112.119 50.3241C112.646 50.9573 113.491 51.2739 114.335 51.2739C115.074 51.2739 115.601 51.1684 116.129 50.8518C116.657 50.5352 116.973 50.2186 117.29 49.7965ZM112.119 43.8867C111.591 44.5199 111.275 45.2586 111.169 46.2084H117.29C117.29 45.2586 116.973 44.4144 116.446 43.8867C115.918 43.3591 115.179 43.0425 114.335 43.0425C113.491 42.937 112.752 43.2536 112.119 43.8867Z" fill="currentColor"/>
<path d="M126.577 52.6458C126.577 51.1684 126.577 49.902 126.577 48.7412C126.577 47.6859 126.577 46.525 126.577 45.4697C126.577 44.4144 126.577 43.0425 126.577 41.5651H128.265V43.3591H128.476C128.793 42.7259 129.215 42.3038 129.743 41.9872C130.27 41.6706 131.009 41.4595 131.853 41.4595C133.12 41.4595 134.069 41.7761 134.703 42.5148C135.336 43.2536 135.652 44.2033 135.652 45.5752V52.7513H133.858V45.9974C133.858 45.0476 133.647 44.3089 133.225 43.7812C132.803 43.2536 132.17 43.0425 131.22 43.0425C130.376 43.0425 129.637 43.3591 129.109 43.8867C128.582 44.4144 128.371 45.1531 128.371 46.2084V52.7513H126.577V52.6458Z" fill="currentColor"/>
<path d="M152.537 44.9421C152.221 44.9421 151.904 44.9421 151.693 44.9421C151.482 44.9421 151.165 44.9421 150.849 44.9421C150.743 44.4144 150.427 43.8867 149.899 43.5702C149.371 43.148 148.738 42.937 148 42.937C147.05 42.937 146.206 43.2536 145.678 43.9923C145.045 44.731 144.834 45.6808 144.834 46.9471C144.834 48.2135 145.15 49.2688 145.678 50.0075C146.206 50.7463 147.05 51.1684 148 51.1684C148.738 51.1684 149.371 50.9573 149.899 50.6407C150.427 50.3241 150.743 49.7965 150.849 49.1633H152.643C152.537 50.2186 152.01 51.0628 151.165 51.696C150.321 52.3292 149.266 52.7513 148 52.7513C146.417 52.7513 145.256 52.2237 144.306 51.1684C143.356 50.1131 142.934 48.7412 142.934 46.9471C142.934 45.2586 143.356 43.8867 144.306 42.8314C145.256 41.7761 146.417 41.2485 148 41.2485C149.371 41.2485 150.427 41.5651 151.165 42.3038C151.904 43.148 152.326 43.9923 152.537 44.9421Z" fill="currentColor"/>
<path d="M160.452 56.656C160.346 56.656 160.241 56.656 160.135 56.656C160.03 56.656 159.924 56.656 159.924 56.656V55.1786C160.03 55.1786 160.135 55.1786 160.241 55.1786C160.346 55.1786 160.452 55.1786 160.663 55.1786C161.191 55.1786 161.613 55.073 161.929 54.7565C162.246 54.4399 162.457 54.0177 162.774 53.3845L162.985 52.7514L158.869 41.6706H160.768L163.829 50.7463H164.04L167.1 41.6706H169L164.673 53.3845C164.251 54.6509 163.723 55.4952 163.196 56.0228C162.668 56.5505 161.929 56.7615 160.874 56.7615C160.557 56.656 160.557 56.656 160.452 56.656Z" fill="currentColor"/>
</svg>