<svg width="72" height="80" viewBox="0 0 72 80" fill="none" xmlns="http://www.w3.org/2000/svg">
<path d="M10.7141 66.7555C10.7141 63.5705 9.78558 61.9353 7.92774 61.8463C7.19048 61.8115 6.45402 61.9298 5.76476 62.1937C5.20412 62.3908 4.82744 62.5836 4.62888 62.7799V70.3814C5.81732 71.1114 6.87289 71.4494 7.79269 71.4034C9.73959 71.2778 10.7141 69.7244 10.7141 66.7628V66.7555ZM13.0063 66.8869C13.0063 68.5046 12.618 69.8478 11.8383 70.9165C10.9682 72.1254 9.76222 72.7473 8.2212 72.7816C7.05904 72.8181 5.86185 72.4619 4.62961 71.7158V78.6245L2.63672 77.9296V62.5945C2.96376 62.2025 3.38497 61.8645 3.8945 61.5725C5.08075 60.8965 6.52249 60.549 8.21828 60.5322L8.24748 60.56C9.79799 60.541 10.9923 61.163 11.8245 62.4251C12.607 63.5829 12.9925 65.0663 12.9925 66.8803L13.0063 66.8869ZM25.1849 71.4224C25.1849 73.5926 24.9622 75.0943 24.5177 75.9308C24.0731 76.7674 23.2205 77.4346 21.9641 77.931C20.9458 78.323 19.8449 78.5369 18.6631 78.5734L18.3346 77.3456C19.5362 77.185 20.3822 77.0258 20.8728 76.8659C21.8386 76.5462 22.5007 76.0629 22.8657 75.4059C23.1577 74.8708 23.3015 73.8496 23.3015 72.3385V71.8312C21.9386 72.4371 20.5107 72.7363 19.0164 72.7363C18.0724 72.7503 17.154 72.4294 16.4242 71.8304C15.5869 71.172 15.1686 70.3361 15.1686 69.3236V61.2075L17.1615 60.5403V68.7017C17.1615 69.5733 17.4491 70.2449 18.0251 70.7165C18.601 71.188 19.3391 71.4136 20.2603 71.3968C21.1816 71.38 22.1532 71.0318 23.1927 70.3566V60.8352H25.1856V71.4238L25.1849 71.4224ZM32.9666 72.6758L32.3096 72.7035C31.1825 72.7035 30.3036 72.4407 29.6758 71.9151C29.048 71.3895 28.7363 70.6617 28.7363 69.7346V62.0601H27.3712V60.8337H28.7363V57.5779L30.727 56.8845V60.8323H32.9666V62.0587H30.7329V69.6798C30.7329 70.4113 30.9336 70.9209 31.3344 71.2318C31.6789 71.4815 32.2264 71.6238 32.9718 71.6603V72.6823L32.9666 72.6758ZM45.032 72.5152H43.0391V64.9962C43.0391 64.2312 42.8566 63.5727 42.4917 63.0223C42.3059 62.7272 42.0462 62.4858 41.7384 62.322C41.4306 62.1582 41.0853 62.0778 40.7367 62.0886C39.8228 62.0886 38.6803 62.5595 37.3094 63.5019V72.5174H35.3165V54.5405L37.3094 53.9272V62.1054C38.5825 61.2002 39.9739 60.7454 41.485 60.7454C42.5406 60.7454 43.3954 61.0929 44.0495 61.7857C44.7035 62.4784 45.0328 63.342 45.0328 64.3735V72.5079L45.032 72.5152ZM55.6258 66.4562C55.6258 65.2327 55.3878 64.2224 54.9147 63.423C54.3526 62.4485 53.4781 61.9353 52.2962 61.8901C50.1114 62.0142 49.0215 63.5442 49.0215 66.4774C49.0215 67.8228 49.2405 68.9462 49.7062 69.8478C50.2902 70.9968 51.1662 71.5632 52.3357 71.5443C54.5293 71.5275 55.6258 69.8346 55.6258 66.4635V66.4562ZM57.8158 66.4694C57.8158 68.2111 57.3602 69.6609 56.4507 70.8179C55.4506 72.1137 54.0672 72.7641 52.3043 72.7641C50.5559 72.7641 49.193 72.1071 48.2163 70.8179C47.3242 69.6601 46.8804 68.2119 46.8804 66.4694C46.8804 64.832 47.3622 63.4544 48.3258 62.3339C49.3441 61.144 50.6837 60.5476 52.3379 60.5476C53.992 60.5476 55.3403 61.1447 56.3784 62.3339C57.342 63.4552 57.8238 64.832 57.8238 66.4694H57.8158ZM69.2329 72.5225H67.2327V64.5757C67.2327 63.7041 66.9648 63.0237 66.4283 62.5332C65.8917 62.0426 65.177 61.8083 64.285 61.8273C63.3389 61.8441 62.4381 62.147 61.584 62.7325V72.5144H59.5911V62.4843C60.7372 61.6681 61.7935 61.1352 62.7571 60.8783C63.6667 60.6461 64.4689 60.5308 65.1603 60.5308C65.6333 60.5308 66.0779 60.5746 66.4962 60.6651C67.2787 60.8418 67.9153 61.1703 68.4066 61.6521C68.9541 62.185 69.2263 62.8244 69.2263 63.572V72.5072L69.2329 72.5225Z" fill="#646464"/>
<path d="M20.898 7.71707C20.898 4.37331 21.8151 2.55428 26.8787 1.68809C30.3164 1.09901 34.7242 1.02538 38.8358 1.68809C42.0832 2.21213 44.8165 4.57703 44.8165 7.71707V18.7488C44.8165 21.9843 42.1628 24.6347 38.8358 24.6347H26.8787C22.8206 24.6347 19.4004 28.0175 19.4004 31.8419V37.1347H15.2891C11.8114 37.1347 9.78667 34.6832 8.93608 31.2528C7.78875 26.6442 7.83746 23.8984 8.93608 19.4847C9.8886 15.6343 12.9322 13.6027 16.4101 13.6027H32.8594V12.13H20.8977V7.71683L20.898 7.71707Z" fill="url(#paint0_linear_26_121)"/>
<path d="M44.817 43.0207C44.817 46.3645 41.8487 48.0581 38.8363 48.9026C34.3042 50.176 30.6668 49.9812 26.8791 48.9026C23.7158 48.0018 20.8984 46.161 20.8984 43.0207V31.9889C20.8984 28.814 23.6053 26.1031 26.8791 26.1031H38.8363C42.8191 26.1031 46.3145 22.7379 46.3145 18.7486V13.603H50.7979C54.2801 13.603 55.9195 16.1324 56.7786 19.485C57.9746 24.1412 58.0279 27.6234 56.7786 31.2531C55.5693 34.7787 54.2756 37.135 50.7979 37.135H32.8598V38.6077H44.817V43.0207Z" fill="url(#paint1_linear_26_121)"/>
<path d="M23.8867 6.98493C23.8867 5.76357 24.8879 4.77588 26.1287 4.77588C27.3646 4.77588 28.3706 5.76332 28.3706 6.98493C28.3706 8.20236 27.3649 9.18956 26.1287 9.18956C24.8884 9.18956 23.8867 8.20211 23.8867 6.98493ZM37.3409 43.7528C37.3409 42.5354 38.3466 41.5482 39.5828 41.5482C40.8231 41.5482 41.8248 42.5356 41.8248 43.7528C41.8248 44.9742 40.8236 45.9619 39.5828 45.9619C38.3469 45.9619 37.3409 44.9744 37.3409 43.7528Z" fill="white"/>
<defs>
<linearGradient id="paint0_linear_26_121" x1="44.8168" y1="15.1807" x2="8.09414" y2="14.8821" gradientUnits="userSpaceOnUse">
<stop stop-color="#366A96"/>
<stop offset="1" stop-color="#3679B0"/>
</linearGradient>
<linearGradient id="paint1_linear_26_121" x1="57.6955" y1="31.6946" x2="-14.9978" y2="31.6946" gradientUnits="userSpaceOnUse">
<stop stop-color="#FFC836"/>
<stop offset="1" stop-color="#FFE873"/>
</linearGradient>
</defs>
</svg>
