<svg width="175" height="70" viewBox="0 0 175 70" fill="none" xmlns="http://www.w3.org/2000/svg">
<path d="M30.7053 8.26709C31.4243 8.26709 32.1448 8.26709 32.8639 8.26709C32.8639 8.26709 32.4595 7.40708 32.3941 5.15686C34.653 5.21953 35.5158 5.61523 35.5158 5.61523C35.5158 4.89611 35.5158 4.177 35.5158 3.45742C35.5158 3.45742 34.653 3.86272 32.3936 3.92722C32.4581 1.66786 32.8639 0.805555 32.8639 0.805555C32.1448 0.805555 31.4243 0.805555 30.7053 0.805555C30.7053 0.805555 31.1018 1.66786 31.1645 3.92631C28.9131 3.86135 28.0547 3.45742 28.0547 3.45742C28.0547 4.177 28.0547 4.89611 28.0547 5.61523C28.0547 5.61523 28.9131 5.2209 31.164 5.15686C31.1004 7.40753 30.7053 8.26709 30.7053 8.26709Z" fill="#870E12"/>
<path d="M58.8675 18.979C58.8739 25.5737 58.8566 30.5887 58.863 37.1829C58.8703 44.988 58.8625 60.9573 58.8611 64.2372C55.7747 63.4449 52.5602 62.761 49.417 62.6645C43.39 62.4792 36.5886 64.1818 31.8677 68.2687C31.8498 68.2839 31.8329 68.3 31.8155 68.3155C27.4021 64.4541 21.2014 62.7637 15.5481 62.6909C11.9448 62.6449 8.26637 63.3493 4.71882 64.1434C4.7131 57.7079 4.7072 50.9907 4.70148 44.5713C4.69434 35.9967 4.71932 19.4621 4.71932 18.9794C4.71882 18.5531 3.03516 17.9218 3.03516 18.3472C3.04142 24.9447 3.04678 30.5938 3.05304 37.1912C3.06054 45.7657 3.03516 64.1961 3.03516 64.6788C3.03552 65.0629 4.11177 64.9823 4.31228 64.9344C7.56322 64.1527 10.9754 63.8191 14.3098 63.7597C20.1471 63.6553 26.69 64.9293 31.0237 69.2056C31.353 69.5304 32.278 69.5304 32.6074 69.2056C37.0031 64.8676 43.4916 63.5707 49.417 63.7295C52.7129 63.8178 56.1036 64.2267 59.2966 65.0794C59.4961 65.1325 60.5327 65.2052 60.5322 64.8246C60.5258 58.2299 60.519 51.3196 60.5125 44.725C60.5039 36.1189 60.5327 18.8495 60.5322 18.3472C60.5318 17.9209 58.8671 18.5536 58.8675 18.979Z" fill="#870E12"/>
<path d="M11.7433 13.15C14.8222 10.8133 17.046 8.22775 20.9357 8.22775C22.9223 8.22775 24.2509 10.2534 24.2509 11.4917C24.2509 12.3535 24.0196 14.0905 22.0971 14.0905C20.4153 14.0905 19.9284 12.0448 20.6122 10.9126C18.132 10.9126 17.9989 14.7533 22.1275 14.7533C23.8957 14.7533 25.7171 13.7273 25.7171 11.5955C25.7171 10.161 24.6995 7.65868 20.9285 7.65868C16.7936 7.65868 14.1512 9.76937 10.8114 12.2716C7.36355 14.8544 4.24842 15.558 0 15.1239V15.7543C0.00320218 15.7547 0.00622141 15.7552 0.00946934 15.7556C0.00892039 22.7949 0.00585639 59.9956 0.00585639 60.2586C0.00585639 60.685 1.64807 61.3166 1.64807 60.8908C1.64894 54.5231 1.65127 19.6778 1.65164 15.95C5.30716 16.2231 8.80206 15.3814 11.7433 13.15Z" fill="#870E12"/>
<path d="M63.5062 15.1239C59.2578 15.558 56.1426 14.8544 52.6948 12.2716C49.3553 9.76937 46.7126 7.65868 42.5777 7.65868C38.8069 7.65868 37.7891 10.161 37.7891 11.5955C37.7891 13.7273 39.6106 14.7533 41.3787 14.7533C45.5072 14.7533 45.3741 10.9126 42.8943 10.9126C43.5781 12.0448 43.091 14.0905 41.4089 14.0905C39.4867 14.0905 39.2552 12.3535 39.2552 11.4917C39.2552 10.2534 40.5841 8.22775 42.5708 8.22775C46.4601 8.22775 48.6838 10.8133 51.7629 13.15C54.7039 15.3814 58.1988 16.2231 61.8548 15.95C61.8548 19.6778 61.8576 54.5226 61.858 60.8908C61.858 61.3166 63.4998 60.685 63.4998 60.2586C63.4998 59.9956 63.4975 22.7949 63.4971 15.7556C63.4998 15.7552 63.503 15.7547 63.5062 15.7543V15.1239Z" fill="#870E12"/>
<path d="M25.0152 36.0139C23.9988 34.1031 20.4281 26.7742 18.903 23.6635C17.8773 21.5716 16.479 20.7765 15.4176 20.5249C14.6885 20.3525 11.081 20.5277 10.2266 20.5309V20.5881C11.3219 21.051 13.5047 23.4732 14.3508 25.3035C14.9199 26.535 18.3356 33.5363 19.5207 35.7806C20.6997 38.0134 23.2908 38.8258 24.3898 38.9604C24.8947 39.0225 25.4199 39.0208 25.9429 39.0093C20.615 46.0395 15.7074 52.5344 16.2655 51.7641C14.5218 53.9091 12.859 54.771 11.2308 55.2645L11.2388 55.57C15.4953 55.57 18.5218 52.4351 19.0486 51.7503C19.9753 50.5463 24.6898 44.237 29.5713 37.7774V53.0353H33.782V33.0134C34.6814 33.7367 35.7326 34.873 36.4911 36.2362C36.8982 36.9681 38.9549 41.7928 40.3108 43.6639C41.449 45.2352 43.2102 45.4823 44.8693 45.4855C41.7847 49.5513 38.6233 53.7141 36.4321 56.5695C35.6805 57.548 34.9229 58.4963 34.0826 59.3769C33.7482 59.7273 31.9929 61.7187 30.4108 61.7187C28.6739 61.7187 27.5619 60.361 27.5619 59.0147C27.5619 57.5544 28.3514 56.0349 30.0686 55.6528C31.6997 55.2906 33.0414 56.1578 33.2921 56.4163C33.2921 56.4163 34.9403 55.953 34.9412 55.9383C34.003 55.1003 31.4595 54.608 29.9632 54.8633C27.6473 55.2581 25.6075 56.8037 25.6075 59.1529C25.6075 60.7334 27.1997 62.4292 30.3844 62.4292C34.2134 62.4292 36.7518 59.5092 37.5949 58.5934C38.0066 58.1477 47.4814 45.5624 52.9045 38.4475H52.8958C53.0253 38.2745 53.1333 38.1291 53.2151 38.0179C53.9846 36.9686 56.7128 33.6319 55.4521 32.1681L52.2874 32.1648V32.3423C53.899 33.2701 51.4864 36.7833 50.2307 38.4475H50.2087C48.8625 40.2202 47.3227 42.2508 45.7362 44.3422C45.3762 43.9841 45.1406 43.5431 44.8945 43.0769C44.1438 41.6535 42.0267 37.507 40.9302 35.2293C40.2033 33.7184 38.7852 32.2454 37.3502 32.1703C36.1695 32.1086 34.9691 32.2184 33.782 32.2298V32.228C36.0057 29.3112 38.0309 26.6841 39.4627 24.8858C40.2317 23.9202 40.9718 22.9586 41.8122 22.0775C42.1466 21.7276 43.9018 19.7358 45.4842 19.7358C47.2207 19.7358 48.3327 21.094 48.3327 22.4398C48.3327 23.9005 47.5436 25.4206 45.8263 25.8021C44.1951 26.1644 42.8533 25.2966 42.6027 25.0386C42.6027 25.0386 40.9544 25.5016 40.9535 25.5167C41.8918 26.3547 44.4348 26.8469 45.9316 26.5912C48.2476 26.1969 50.2874 24.6507 50.2874 22.3017C50.2874 20.7212 48.6946 19.0254 45.5102 19.0254C41.6809 19.0254 39.1429 21.9458 38.2998 22.8611C38.0062 23.18 36.2207 25.4961 33.782 28.6919V11.4623H29.5713V34.2261C28.646 35.4448 27.6984 36.6936 26.7557 37.9375C26.0525 37.4745 25.4591 36.8487 25.0152 36.0139Z" fill="#870E12"/>
<path d="M84.0573 14.7403C83.3569 14.8853 82.8482 15.3496 82.5317 16.1333L80.1973 21.5184C79.5125 23.0756 79.0326 24.0481 78.7572 24.437C78.1607 25.2727 77.3826 25.6899 76.4228 25.6899C75.9091 25.6899 75.4631 25.5861 75.0843 25.3789C74.5651 25.119 74.3062 24.7357 74.3062 24.227C74.3062 23.625 74.5889 23.3244 75.1543 23.3244C75.3876 23.3244 75.6081 23.4068 75.8158 23.5733C76.0024 23.7654 76.0962 23.9727 76.0962 24.1959L76.0802 24.5692C76.0802 24.8757 76.2851 25.0285 76.695 25.0285C77.5303 25.0285 78.2284 24.2709 78.7888 22.7558L74.9521 15.9777C74.5162 15.184 74.0935 14.7769 73.6836 14.7554V14.0862H77.1621V14.7554C76.7211 14.7664 76.5006 14.9169 76.5006 15.2074C76.5006 15.389 76.6278 15.695 76.8821 16.1259L79.5825 20.974H79.5514L81.6758 16.0788C81.8002 15.835 81.8629 15.6118 81.8629 15.4096C81.8629 15.2023 81.7874 15.0363 81.6369 14.9114C81.5019 14.7769 81.297 14.7303 81.0221 14.7714V14.0862H84.0573V14.7403Z" fill="#870E12"/>
<path d="M86.2838 21.2539C86.8487 21.2539 87.2719 21.1089 87.5518 20.8184C87.6452 20.704 87.8346 20.3486 88.1205 19.7516C88.6598 18.6574 89.3597 18.1103 90.2211 18.1103C90.3977 18.1103 90.5381 18.1176 90.6415 18.1336V20.1876H90.0427C89.8661 19.8088 89.6639 19.6194 89.4356 19.6194C89.2225 19.6194 88.9837 19.8454 88.7193 20.2969C88.3615 20.8623 88.0473 21.2255 87.7774 21.3866V21.3788C88.421 21.4877 88.9503 21.8015 89.3652 22.3202C89.6506 22.6423 89.98 23.2383 90.3533 24.1102C90.5248 24.4684 90.6287 24.6784 90.6648 24.7406C90.7943 24.8596 91.0697 24.9849 91.4901 25.1144V25.5499C91.2462 25.6276 91.002 25.6665 90.7581 25.6665C90.0267 25.6665 89.469 25.467 89.0852 25.0677C88.8258 24.8184 88.5377 24.2736 88.2211 23.4328C87.9983 22.9039 87.8062 22.548 87.6452 22.3669C87.3757 22.0608 87.0226 21.9076 86.5871 21.9076H86.1278V23.5965C86.1278 24.4112 86.4004 24.8445 86.9448 24.8961V25.5265H83.8867V24.8961C84.4311 24.8445 84.7037 24.4112 84.7037 23.5965V20.2269C84.7037 19.791 84.6676 19.49 84.5944 19.3239C84.4855 19.1011 84.2499 18.9556 83.8867 18.8879V18.2891H86.9448V18.8879C86.5816 18.9556 86.346 19.1011 86.2367 19.3239C86.1639 19.49 86.1278 19.791 86.1278 20.2269V21.2539H86.2838Z" fill="#870E12"/>
<path d="M95.1126 22.8264C95.1126 24.1027 95.7613 24.7408 97.0582 24.7408C98.3756 24.7408 99.0348 23.7733 99.0348 21.8383C99.0348 19.9133 98.3811 18.9503 97.0737 18.9503C96.42 18.9503 95.9063 19.1919 95.533 19.674C95.2526 20.0322 95.1126 20.4115 95.1126 20.8108V22.8264ZM92.8711 28.0404C93.4159 27.9887 93.6881 27.5706 93.6881 26.7875V21.6516C93.6881 20.852 93.7631 20.2889 93.9141 19.9622C94.4434 18.8003 95.4964 18.2189 97.0737 18.2189C98.0024 18.2189 98.8038 18.4993 99.4786 19.0597C100.272 19.7234 100.669 20.6498 100.669 21.8383C100.669 23.0103 100.262 23.9622 99.447 24.6941C98.8299 25.2285 98.0801 25.4956 97.1982 25.4956C96.2956 25.4956 95.603 25.2467 95.1199 24.7481H95.1126V26.7719C95.1126 27.6177 95.4264 28.0404 96.0541 28.0404V28.6475H92.8711V28.0404Z" fill="#870E12"/>
<path d="M106.515 21.6976C104.73 21.7959 103.838 22.4212 103.838 23.5731C103.838 23.9203 103.96 24.2039 104.204 24.4212C104.432 24.6184 104.725 24.7172 105.083 24.7172C105.674 24.7172 106.082 24.4601 106.305 23.9464C106.445 23.5987 106.515 23.0493 106.515 22.2964V21.6976ZM106.71 24.569C106.072 25.2177 105.337 25.542 104.507 25.542C103.812 25.542 103.27 25.3526 102.881 24.9738C102.497 24.6317 102.305 24.1751 102.305 23.6042C102.305 22.058 103.708 21.2021 106.515 21.0361C106.515 20.3307 106.435 19.8247 106.274 19.5182C106.092 19.1138 105.731 18.9117 105.192 18.9117C104.746 18.9117 104.45 19.0983 104.305 19.472C104.186 19.8087 104.121 19.9885 104.111 20.0091C104.001 20.1697 103.823 20.2502 103.574 20.2502C103.153 20.2502 102.943 20.0608 102.943 19.682C102.943 19.3398 103.151 19.0333 103.565 18.7634C104.027 18.4364 104.621 18.2735 105.348 18.2735C106.463 18.2735 107.213 18.6367 107.597 19.3632C107.825 19.8087 107.939 20.4862 107.939 21.3938V23.6353C107.939 24.3567 108.183 24.7172 108.671 24.7172C108.748 24.7172 108.865 24.6783 109.021 24.6006L109.177 24.865C108.86 25.316 108.45 25.542 107.947 25.542C107.314 25.542 106.902 25.2177 106.71 24.569Z" fill="#870E12"/>
<path d="M112.767 15.3549C112.932 15.1422 113.161 15.0361 113.452 15.0361C113.721 15.0361 113.937 15.1267 114.097 15.3083C114.289 15.4954 114.385 15.7159 114.385 15.9698C114.385 16.2607 114.279 16.494 114.066 16.6701C113.864 16.8362 113.659 16.9194 113.452 16.9194C113.208 16.9194 112.987 16.8234 112.79 16.6312C112.598 16.4341 112.502 16.2136 112.502 15.9698C112.502 15.747 112.59 15.5416 112.767 15.3549ZM113.163 18.3042V23.6193C113.163 24.4546 113.446 24.8883 114.012 24.9194V25.542H110.922V24.9276C111.462 24.865 111.732 24.429 111.732 23.6193V20.2419C111.732 19.8115 111.693 19.5159 111.615 19.3549C111.527 19.1367 111.296 18.9922 110.922 18.919V18.3042H113.163ZM110.323 15.3549C110.484 15.1422 110.715 15.0361 111.016 15.0361C111.275 15.0361 111.488 15.1267 111.654 15.3083C111.851 15.4954 111.95 15.7159 111.95 15.9698C111.95 16.2607 111.844 16.494 111.63 16.6701C111.428 16.8362 111.223 16.9194 111.016 16.9194C110.772 16.9194 110.551 16.8234 110.355 16.6312C110.162 16.4341 110.066 16.2136 110.066 15.9698C110.066 15.747 110.152 15.5416 110.323 15.3549Z" fill="#870E12"/>
<path d="M115.789 24.9276C116.333 24.865 116.606 24.429 116.606 23.6193V20.2419C116.606 19.8115 116.57 19.5159 116.497 19.3549C116.388 19.1367 116.152 18.9922 115.789 18.919V18.3042H118.871V18.919C118.513 18.9922 118.282 19.1321 118.178 19.3398C118.08 19.5004 118.03 19.8009 118.03 20.2419V21.5887H121.284V20.2419C121.284 19.8224 121.234 19.5315 121.135 19.3705C121.042 19.1321 120.814 18.9816 120.451 18.919V18.3042H123.54V18.919C123.172 18.9922 122.941 19.1367 122.848 19.3549C122.749 19.5159 122.699 19.8115 122.699 20.2419V23.6193C122.699 24.4189 122.98 24.8544 123.54 24.9276V25.542H120.451V24.9194C121.005 24.8883 121.284 24.4546 121.284 23.6193V22.2579H118.03V23.6193C118.03 24.4546 118.311 24.8883 118.871 24.9194V25.542H115.789V24.9276Z" fill="#870E12"/>
<path d="M131.775 24.0786C130.899 25.0543 129.892 25.542 128.756 25.542C127.812 25.542 127.013 25.241 126.359 24.6394C125.638 23.9857 125.277 23.1088 125.277 22.0086C125.277 20.9194 125.62 20.0164 126.305 19.3005C126.964 18.5644 127.814 18.1953 128.857 18.1953C129.609 18.1953 130.198 18.3462 130.624 18.6468C131.018 18.9117 131.216 19.2227 131.216 19.5809C131.216 20.0269 130.974 20.2502 130.492 20.2502C129.994 20.2502 129.734 20.0036 129.713 19.5105V19.4794C129.672 19.0544 129.402 18.8412 128.904 18.8412C128.344 18.8412 127.895 19.075 127.557 19.5416C127.127 20.0814 126.911 20.9039 126.911 22.0086C126.911 23.0155 127.21 23.7364 127.807 24.1724C128.19 24.4734 128.642 24.6239 129.161 24.6239C130.084 24.6239 130.831 24.3178 131.402 23.7053L131.775 24.0786Z" fill="#870E12"/>
<path d="M136.312 24.8883C137.65 24.8883 138.319 24.2108 138.319 22.8572C138.319 21.7154 137.787 21.1449 136.724 21.1449C136.298 21.1449 135.811 21.2771 135.261 21.542V24.8883H136.312ZM136.086 18.3042V18.919C135.717 18.9816 135.481 19.1321 135.378 19.3705C135.3 19.5315 135.261 19.8224 135.261 20.2419V20.7245C135.899 20.3975 136.566 20.2346 137.261 20.2346C138.122 20.2346 138.799 20.4967 139.292 21.0205C139.744 21.5137 139.969 22.1513 139.969 22.935C139.969 23.6042 139.777 24.1696 139.393 24.6317C138.905 25.2382 138.161 25.542 137.159 25.542H132.988V24.9276C133.544 24.8544 133.821 24.4189 133.821 23.6193V20.2419C133.821 19.8115 133.78 19.5159 133.696 19.3549C133.588 19.1367 133.351 18.9922 132.988 18.919V18.3042H136.086Z" fill="#870E12"/>
<path d="M144.202 21.2539C144.767 21.2539 145.19 21.1089 145.47 20.8184C145.564 20.704 145.753 20.3486 146.038 19.7516C146.578 18.6574 147.278 18.1103 148.14 18.1103C148.316 18.1103 148.456 18.1176 148.559 18.1336V20.1876H147.961C147.784 19.8088 147.582 19.6194 147.354 19.6194C147.14 19.6194 146.902 19.8454 146.637 20.2969C146.28 20.8623 145.966 21.2255 145.696 21.3866V21.3788C146.339 21.4877 146.868 21.8015 147.283 22.3202C147.569 22.6423 147.898 23.2383 148.272 24.1102C148.443 24.4684 148.547 24.6784 148.583 24.7406C148.712 24.8596 148.988 24.9849 149.408 25.1144V25.5499C149.164 25.6276 148.92 25.6665 148.676 25.6665C147.945 25.6665 147.387 25.467 147.003 25.0677C146.744 24.8184 146.456 24.2736 146.139 23.4328C145.916 22.9039 145.724 22.548 145.564 22.3669C145.294 22.0608 144.941 21.9076 144.505 21.9076H144.046V23.5965C144.046 24.4112 144.318 24.8445 144.863 24.8961V25.5265H141.805V24.8961C142.349 24.8445 142.622 24.4112 142.622 23.5965V20.2269C142.622 19.791 142.586 19.49 142.513 19.3239C142.403 19.1011 142.168 18.9556 141.805 18.8879V18.2891H144.863V18.8879C144.5 18.9556 144.264 19.1011 144.155 19.3239C144.082 19.49 144.046 19.791 144.046 20.2269V21.2539H144.202Z" fill="#870E12"/>
<path d="M154.313 18.3042V18.919C153.944 18.9922 153.708 19.1367 153.604 19.3549C153.537 19.5159 153.503 19.8115 153.503 20.2419L153.511 22.865L156.632 19.8998C156.59 19.3705 156.32 19.0439 155.822 18.919V18.3042H158.865V18.919C158.528 18.9922 158.305 19.1321 158.196 19.3398C158.102 19.5105 158.056 19.8115 158.056 20.2419V23.6193C158.056 24.429 158.326 24.865 158.865 24.9276V25.542H155.784V24.9276C156.349 24.865 156.632 24.429 156.632 23.6193V20.9194L153.503 23.8375C153.508 24.5118 153.778 24.8755 154.313 24.9276V25.542H151.23V24.9194C151.786 24.8677 152.063 24.4345 152.063 23.6193V20.2419C152.063 19.4066 151.786 18.9684 151.23 18.9267V18.3042H154.313Z" fill="#870E12"/>
<path d="M162.833 17.1294C162.402 16.7817 162.182 16.3824 162.171 15.9309C162.161 15.5571 162.301 15.2461 162.591 14.9972C162.845 14.7324 163.172 14.5997 163.572 14.5997C164.101 14.5997 164.366 14.8261 164.366 15.2772C164.366 15.6765 164.161 15.8769 163.751 15.8769C163.673 15.8769 163.52 15.827 163.292 15.7282C163.204 15.6765 163.108 15.6505 163.004 15.6505C162.854 15.6505 162.778 15.7442 162.778 15.9309C162.778 16.1592 162.957 16.3513 163.315 16.5064C163.715 16.6935 164.212 16.7872 164.809 16.7872C165.427 16.7872 165.932 16.6935 166.327 16.5064C166.695 16.3513 166.879 16.1592 166.879 15.9309C166.879 15.7442 166.791 15.6505 166.615 15.6505C166.532 15.6505 166.441 15.6765 166.342 15.7282C166.124 15.827 165.966 15.8769 165.867 15.8769C165.484 15.8769 165.292 15.6765 165.292 15.2772C165.292 14.8261 165.557 14.5997 166.086 14.5997C166.469 14.5997 166.794 14.7346 167.059 15.0045C167.339 15.2538 167.476 15.5626 167.471 15.9309C167.461 16.3824 167.237 16.7817 166.801 17.1294C166.298 17.5288 165.634 17.7287 164.809 17.7287C163.995 17.7287 163.336 17.5288 162.833 17.1294ZM164.039 18.3042V18.919C163.671 18.9922 163.434 19.1367 163.331 19.3549C163.263 19.5159 163.23 19.8115 163.23 20.2419L163.237 22.865L166.358 19.8998C166.317 19.3705 166.047 19.0439 165.548 18.919V18.3042H168.591V18.919C168.254 18.9922 168.031 19.1321 167.922 19.3398C167.829 19.5105 167.782 19.8115 167.782 20.2419V23.6193C167.782 24.429 168.052 24.865 168.591 24.9276V25.542H165.51V24.9276C166.075 24.865 166.358 24.429 166.358 23.6193V20.9194L163.23 23.8375C163.235 24.5118 163.504 24.8755 164.039 24.9276V25.542H160.957V24.9194C161.512 24.8677 161.79 24.4345 161.79 23.6193V20.2419C161.79 19.4066 161.512 18.9684 160.957 18.9267V18.3042H164.039Z" fill="#870E12"/>
<path d="M77.2165 31.5357V32.1739C76.5733 32.2466 76.2517 32.6643 76.2517 33.4269V35.855C76.2778 35.8601 76.3656 35.8628 76.5161 35.8628C77.3409 35.8628 78.0001 35.6345 78.4928 35.178C78.7783 34.8976 79.0532 34.4694 79.3181 33.8939C79.6552 33.1259 79.9718 32.5787 80.2673 32.2517C80.7599 31.6808 81.3464 31.3958 82.0262 31.3958C82.41 31.3958 82.7677 31.468 83.1003 31.6135V34.2205H82.3917C82.3194 33.5874 82.0623 33.2713 81.6213 33.2713C81.3103 33.2713 80.8588 33.6762 80.2673 34.4854C79.577 35.3825 78.8844 35.925 78.1895 36.1117V36.1272C79.7719 36.3193 80.931 37.3129 81.668 39.1079C82.114 40.2287 82.41 40.9108 82.555 41.1547C82.9548 41.845 83.6419 42.1926 84.6177 42.1975V42.9758C84.2961 43.0174 83.894 43.0585 83.4114 43.1001C82.3839 43.069 81.5902 42.7063 81.0298 42.0104C80.7188 41.6113 80.2179 40.5764 79.528 38.9053C79.1337 37.8994 78.6278 37.2297 78.0107 36.898C77.6419 36.6954 77.1177 36.5943 76.4384 36.5943H76.2517V41.0846C76.2517 41.8682 76.5733 42.2855 77.2165 42.3371V43.0068H73.6836V42.3371C74.3268 42.2758 74.6484 41.8573 74.6484 41.0846V33.4269C74.6484 32.6643 74.3268 32.2466 73.6836 32.1739V31.5357H77.2165Z" fill="#870E12"/>
<path d="M90.5854 39.1399C88.8004 39.2387 87.9079 39.8635 87.9079 41.0154C87.9079 41.3631 88.0301 41.6458 88.2739 41.8637C88.5022 42.0613 88.7954 42.1596 89.1531 42.1596C89.7446 42.1596 90.1522 41.9024 90.375 41.3892C90.5154 41.0415 90.5854 40.4913 90.5854 39.7392V39.1399ZM90.7798 42.0112C90.1417 42.6601 89.4075 42.9839 88.5772 42.9839C87.8823 42.9839 87.3398 42.795 86.9509 42.4162C86.5671 42.0736 86.375 41.6171 86.375 41.0465C86.375 39.5004 87.778 38.6445 90.5854 38.4785C90.5854 37.773 90.5044 37.2666 90.3439 36.9606C90.1623 36.5562 89.8018 36.3535 89.262 36.3535C88.816 36.3535 88.52 36.5402 88.375 36.9139C88.2556 37.2515 88.1911 37.4304 88.1806 37.451C88.0717 37.6115 87.8924 37.6921 87.6435 37.6921C87.2231 37.6921 87.0127 37.5032 87.0127 37.1244C87.0127 36.7817 87.2204 36.4761 87.6357 36.2062C88.0973 35.8792 88.6911 35.7159 89.4175 35.7159C90.5333 35.7159 91.2826 36.0791 91.6668 36.8051C91.8951 37.2515 92.009 37.9285 92.009 38.8366V41.0772C92.009 41.7991 92.2528 42.1596 92.7409 42.1596C92.8187 42.1596 92.9358 42.1206 93.0909 42.0425L93.2464 42.3074C92.9303 42.7587 92.52 42.9839 92.0172 42.9839C91.3841 42.9839 90.972 42.6601 90.7798 42.0112Z" fill="#870E12"/>
<path d="M100.571 35.747V38.1047H99.964C99.8707 36.9684 99.2504 36.4007 98.104 36.4007H97.8391V41.062C97.8391 41.8763 98.125 42.31 98.6955 42.3617V42.9839H95.5825V42.3695C95.9512 42.3123 96.1795 42.188 96.2673 41.9957C96.3712 41.8147 96.4233 41.5031 96.4233 41.062V36.4007H96.1818C95.0766 36.4007 94.4489 36.9684 94.2984 38.1047H93.6914V35.747H100.571Z" fill="#870E12"/>
<path d="M104.23 36.9211C103.841 37.3831 103.646 38.2052 103.646 39.3881C103.646 40.1978 103.73 40.8076 103.896 41.217C104.17 42.0061 104.73 42.4 105.577 42.4C106.863 42.4 107.506 41.3962 107.506 39.3881C107.506 38.2052 107.309 37.3831 106.915 36.9211C106.629 36.5423 106.183 36.3529 105.577 36.3529C104.98 36.3529 104.531 36.5423 104.23 36.9211ZM109.031 38.3533C109.11 38.6749 109.149 39.0377 109.149 39.4426C109.149 39.7024 109.11 40.003 109.031 40.3456C108.762 41.4247 108.173 42.1927 107.265 42.6493C106.741 42.9193 106.186 43.0542 105.6 43.0542C105.003 43.0542 104.453 42.9193 103.95 42.6493C103.026 42.1927 102.427 41.4247 102.152 40.3456C102.074 40.003 102.035 39.7024 102.035 39.4426C102.035 39.0377 102.074 38.6749 102.152 38.3533C102.624 36.5272 103.773 35.6141 105.6 35.6141C107.431 35.6141 108.575 36.5272 109.031 38.3533Z" fill="#870E12"/>
<path d="M115.023 35.7462L116.602 41.1547C116.852 41.85 117.236 42.2498 117.754 42.3532V42.9681H115.591L114.011 37.4036L113.98 37.4191C113.425 39.2819 113.119 40.286 113.062 40.4305C112.439 42.216 111.705 43.1084 110.859 43.1084C110.615 43.1084 110.436 43.0796 110.323 43.0224C110.016 42.8826 109.863 42.6181 109.863 42.2289C109.863 41.819 110.117 41.6134 110.626 41.6134C110.725 41.6134 110.846 41.6424 110.992 41.6996C111.116 41.7618 111.212 41.7932 111.28 41.7932C111.393 41.7932 111.474 41.7773 111.521 41.7457C111.848 41.6322 112.182 41.0248 112.525 39.925C113.044 38.291 113.303 37.2897 113.303 36.921C113.199 36.5577 112.924 36.3684 112.478 36.3528V35.7462H115.023Z" fill="#870E12"/>
<path d="M122.575 35.747V36.3618C122.206 36.4341 121.969 36.5795 121.866 36.7977C121.798 36.9588 121.765 37.2543 121.765 37.6842L121.773 40.3072L124.893 37.3416C124.852 36.8128 124.582 36.4857 124.084 36.3618V35.747H127.127V36.3618C126.79 36.4341 126.566 36.5745 126.457 36.7817C126.364 36.9533 126.317 37.2543 126.317 37.6842V41.062C126.317 41.8719 126.587 42.3074 127.127 42.3695V42.9839H124.045V42.3695C124.611 42.3074 124.893 41.8719 124.893 41.062V38.3618L121.765 41.2804C121.77 41.9546 122.04 42.3174 122.575 42.3695V42.9839H119.492V42.3617C120.048 42.31 120.325 41.8763 120.325 41.062V37.6842C120.325 36.8494 120.048 36.4107 119.492 36.3691V35.747H122.575Z" fill="#870E12"/>
<path d="M136.923 36.3689C136.373 36.4106 136.098 36.8387 136.098 37.6535V41.7395C136.098 41.9723 136.238 42.18 136.518 42.3615C137.395 42.9632 137.834 43.5345 137.834 44.0738C137.834 44.6393 137.631 45.1168 137.227 45.5056C136.776 45.9411 136.189 46.1595 135.468 46.1595C134.959 46.1595 134.314 46.0244 133.53 45.7545C132.259 45.3085 131.455 45.0853 131.118 45.0853C130.822 45.0853 130.674 45.212 130.674 45.4668C130.674 45.524 130.705 45.5528 130.767 45.5528C130.876 45.5528 130.936 45.5364 130.946 45.5056C130.987 45.4534 131.045 45.4275 131.118 45.4275C131.423 45.4275 131.577 45.5885 131.577 45.91C131.577 46.2994 131.379 46.4941 130.985 46.4941C130.451 46.4941 130.184 46.2193 130.184 45.6689C130.184 45.2851 130.347 44.9452 130.674 44.6493C131.099 44.2866 131.69 44.105 132.448 44.105C132.848 44.105 133.403 44.2267 134.114 44.4705C135.338 44.8598 136.038 45.0543 136.215 45.0543C136.889 45.0543 137.227 44.7221 137.227 44.0578C137.227 43.7212 137.076 43.454 136.776 43.2564C136.485 43.0802 136.14 42.992 135.74 42.992H129.141V42.3694C129.696 42.3283 129.974 41.8949 129.974 41.0697V37.6535C129.974 36.8072 129.696 36.3795 129.141 36.3689V35.7468H132.238V36.3689C131.89 36.3795 131.654 36.5066 131.53 36.7505C131.452 36.9115 131.413 37.212 131.413 37.6535V42.3228H134.651V37.6535C134.651 37.212 134.612 36.9115 134.534 36.7505C134.41 36.5066 134.17 36.3795 133.818 36.3689V35.7468H136.923V36.3689Z" fill="#870E12"/>
<path d="M142.726 42.3311C144.064 42.3311 144.733 41.6537 144.733 40.299C144.733 39.1582 144.201 38.5873 143.138 38.5873C142.712 38.5873 142.225 38.7195 141.675 38.9838V42.3311H142.726ZM142.499 35.747V36.3618C142.132 36.424 141.895 36.5745 141.792 36.8128C141.714 36.9739 141.675 37.2639 141.675 37.6842V38.1674C142.313 37.8402 142.979 37.6769 143.675 37.6769C144.536 37.6769 145.213 37.9387 145.706 38.4633C146.158 38.956 146.383 39.5937 146.383 40.3769C146.383 41.0465 146.191 41.6121 145.807 42.0736C145.32 42.6806 144.575 42.9839 143.573 42.9839H139.402V42.3695C139.958 42.2968 140.235 41.8608 140.235 41.062V37.6842C140.235 37.2543 140.193 36.9588 140.11 36.7977C140.002 36.5795 139.766 36.4341 139.402 36.3618V35.747H142.499Z" fill="#870E12"/>
<path d="M150.608 38.6954C151.173 38.6954 151.596 38.5505 151.876 38.2594C151.969 38.1456 152.159 37.7905 152.444 37.1936C152.984 36.0994 153.684 35.5513 154.545 35.5513C154.722 35.5513 154.862 35.5596 154.966 35.5747V37.6295H154.367C154.19 37.2508 153.988 37.0614 153.759 37.0614C153.547 37.0614 153.308 37.2869 153.043 37.7385C152.686 38.3039 152.371 38.667 152.102 38.8276V38.8198C152.745 38.9288 153.274 39.2435 153.689 39.7613C153.975 40.0833 154.304 40.6798 154.678 41.5518C154.849 41.9095 154.953 42.1199 154.989 42.1817C155.118 42.3016 155.394 42.426 155.814 42.5553V42.9914C155.57 43.0691 155.326 43.1084 155.082 43.1084C154.351 43.1084 153.793 42.9081 153.409 42.5087C153.15 42.2595 152.862 41.7151 152.545 40.8747C152.323 40.3455 152.13 39.99 151.969 39.8085C151.7 39.5024 151.347 39.349 150.911 39.349H150.452V41.0381C150.452 41.8527 150.725 42.2855 151.269 42.3372V42.9681H148.211V42.3372C148.755 42.2855 149.028 41.8527 149.028 41.0381V37.6679C149.028 37.2325 148.992 36.9319 148.919 36.7659C148.81 36.5422 148.574 36.3972 148.211 36.3295V35.7302H151.269V36.3295C150.906 36.3972 150.67 36.5422 150.561 36.7659C150.488 36.9319 150.452 37.2325 150.452 37.6679V38.6954H150.608Z" fill="#870E12"/>
<path d="M160.719 35.747V36.3618C160.35 36.4341 160.114 36.5795 160.01 36.7977C159.943 36.9588 159.909 37.2543 159.909 37.6842L159.917 40.3072L163.038 37.3416C162.996 36.8128 162.726 36.4857 162.228 36.3618V35.747H165.272V36.3618C164.934 36.4341 164.711 36.5745 164.602 36.7817C164.509 36.9533 164.462 37.2543 164.462 37.6842V41.062C164.462 41.8719 164.732 42.3074 165.272 42.3695V42.9839H162.189V42.3695C162.755 42.3074 163.038 41.8719 163.038 41.062V38.3618L159.909 41.2804C159.914 41.9546 160.184 42.3174 160.719 42.3695V42.9839H157.637V42.3617C158.192 42.31 158.469 41.8763 158.469 41.062V37.6842C158.469 36.8494 158.192 36.4107 157.637 36.3691V35.747H160.719Z" fill="#870E12"/>
<path d="M169.242 34.5718C168.812 34.2241 168.592 33.8243 168.581 33.3732C168.571 32.9995 168.711 32.6884 169.001 32.4396C169.256 32.1747 169.583 32.0425 169.982 32.0425C170.511 32.0425 170.776 32.268 170.776 32.7195C170.776 33.1193 170.571 33.3183 170.161 33.3183C170.083 33.3183 169.93 33.2694 169.702 33.171C169.614 33.1193 169.518 33.0928 169.414 33.0928C169.263 33.0928 169.188 33.1861 169.188 33.3732C169.188 33.602 169.367 33.7936 169.725 33.9492C170.125 34.1363 170.622 34.2291 171.219 34.2291C171.837 34.2291 172.342 34.1363 172.737 33.9492C173.105 33.7936 173.289 33.602 173.289 33.3732C173.289 33.1861 173.201 33.0928 173.025 33.0928C172.942 33.0928 172.851 33.1193 172.752 33.171C172.535 33.2694 172.376 33.3183 172.278 33.3183C171.894 33.3183 171.702 33.1193 171.702 32.7195C171.702 32.268 171.966 32.0425 172.496 32.0425C172.88 32.0425 173.204 32.1774 173.469 32.4469C173.749 32.6957 173.886 33.005 173.881 33.3732C173.871 33.8243 173.647 34.2241 173.212 34.5718C172.708 34.9716 172.044 35.1706 171.219 35.1706C170.405 35.1706 169.746 34.9716 169.242 34.5718ZM170.449 35.747V36.3618C170.08 36.4341 169.844 36.5795 169.74 36.7977C169.673 36.9588 169.64 37.2543 169.64 37.6842L169.647 40.3072L172.768 37.3416C172.727 36.8128 172.457 36.4857 171.959 36.3618V35.747H175.002V36.3618C174.664 36.4341 174.441 36.5745 174.332 36.7817C174.239 36.9533 174.192 37.2543 174.192 37.6842V41.062C174.192 41.8719 174.462 42.3074 175.002 42.3695V42.9839H171.92V42.3695C172.485 42.3074 172.768 41.8719 172.768 41.062V38.3618L169.64 41.2804C169.644 41.9546 169.914 42.3174 170.449 42.3695V42.9839H167.367V42.3617C167.923 42.31 168.2 41.8763 168.2 41.062V37.6842C168.2 36.8494 167.923 36.4107 167.367 36.3691V35.747H170.449Z" fill="#870E12"/>
<path d="M84.0573 49.6242C83.3569 49.7693 82.8482 50.2335 82.5317 51.0171L80.1973 56.4023C79.5125 57.9595 79.0326 58.9319 78.7572 59.3208C78.1607 60.1561 77.3826 60.5737 76.4228 60.5737C75.9091 60.5737 75.4631 60.4699 75.0843 60.2627C74.5651 60.0028 74.3062 59.6195 74.3062 59.1108C74.3062 58.5088 74.5889 58.2082 75.1543 58.2082C75.3876 58.2082 75.6081 58.2906 75.8158 58.4571C76.0024 58.6492 76.0962 58.8565 76.0962 59.0797L76.0802 59.453C76.0802 59.7595 76.2851 59.9122 76.695 59.9122C77.5303 59.9122 78.2284 59.1548 78.7888 57.6396L74.9521 50.8616C74.5162 50.0678 74.0935 49.6608 73.6836 49.6392V48.9699H77.1621V49.6392C76.7211 49.6502 76.5006 49.8007 76.5006 50.0913C76.5006 50.2728 76.6278 50.5789 76.8821 51.0094L79.5825 55.8579H79.5514L81.6758 50.9628C81.8002 50.7188 81.8629 50.4956 81.8629 50.2934C81.8629 50.0863 81.7874 49.9201 81.6369 49.7951C81.5019 49.6608 81.297 49.6141 81.0221 49.6553V48.9699H84.0573V49.6242Z" fill="#870E12"/>
<path d="M83.7539 59.8114C84.2987 59.7487 84.5709 59.3129 84.5709 58.5032V55.1258C84.5709 54.6953 84.5348 54.3994 84.462 54.2387C84.3532 54.0205 84.1171 53.876 83.7539 53.8029V53.188H86.8362V53.8029C86.4776 53.876 86.247 54.0161 86.1432 54.2237C86.0444 54.3842 85.9954 54.6847 85.9954 55.1258V56.4726H89.2484V55.1258C89.2484 54.7058 89.199 54.4152 89.1006 54.2543C89.0073 54.0161 88.779 53.8654 88.4158 53.8029V53.188H91.5055V53.8029C91.1368 53.876 90.9057 54.0205 90.8124 54.2387C90.7141 54.3994 90.6647 54.6953 90.6647 55.1258V58.5032C90.6647 59.3027 90.9451 59.7384 91.5055 59.8114V60.4258H88.4158V59.8032C88.9707 59.7721 89.2484 59.3384 89.2484 58.5032V57.1418H85.9954V58.5032C85.9954 59.3384 86.2754 59.7721 86.8362 59.8032V60.4258H83.7539V59.8114Z" fill="#870E12"/>
<path d="M94.2162 50.2236C94.3822 50.0105 94.6105 49.904 94.901 49.904C95.1659 49.904 95.3804 49.9923 95.5469 50.1688C95.7391 50.3559 95.8351 50.5759 95.8351 50.8303C95.8351 51.1257 95.7285 51.3591 95.5158 51.5306C95.3136 51.6966 95.1087 51.7799 94.901 51.7799C94.6622 51.7799 94.4422 51.6834 94.2395 51.4917C94.0474 51.2946 93.9513 51.074 93.9513 50.8303C93.9513 50.6069 94.0396 50.4048 94.2162 50.2236ZM95.8036 53.188V58.5032C95.8036 59.3384 96.084 59.7721 96.6444 59.8032V60.4258H93.5625V59.8114C94.1069 59.7487 94.3795 59.3129 94.3795 58.5032V55.1258C94.3795 54.6953 94.3434 54.3994 94.2706 54.2387C94.1613 54.0205 93.9257 53.876 93.5625 53.8029V53.188H95.8036Z" fill="#870E12"/>
<path d="M100.753 59.7099H101.959C103.194 59.7099 103.811 59.2455 103.811 58.3165C103.811 57.4194 103.147 56.9708 101.819 56.9708H100.753V59.7099ZM100.753 56.3169H101.912C102.976 56.3169 103.508 55.8938 103.508 55.048C103.508 54.2442 102.976 53.8422 101.912 53.8422H100.753V56.3169ZM102.216 53.188C102.895 53.188 103.497 53.2634 104.021 53.4141C104.722 53.6733 105.072 54.1815 105.072 54.9392C105.072 55.8421 104.6 56.3838 103.656 56.5658L103.586 56.5731C104.836 56.6775 105.461 57.2951 105.461 58.4253C105.461 59.7593 104.496 60.4258 102.566 60.4258H98.4805V59.8032C99.0358 59.7721 99.313 59.3384 99.313 58.5032V55.1258C99.313 54.7163 99.2714 54.4254 99.1886 54.2543C99.0797 54.0161 98.8437 53.8654 98.4805 53.8029V53.188H102.216Z" fill="#870E12"/>
<path d="M111.588 55.5069C111.588 54.4178 111.15 53.8729 110.273 53.8729C109.297 53.8729 108.784 54.4562 108.732 55.6236H111.588V55.5069ZM113.339 58.8926C112.467 59.9351 111.492 60.457 110.413 60.457C109.598 60.457 108.882 60.2389 108.265 59.8029C107.456 59.2114 107.051 58.2877 107.051 57.032C107.051 55.8702 107.37 54.9236 108.008 54.1917C108.61 53.4653 109.393 53.1026 110.359 53.1026C111.251 53.1026 111.954 53.4287 112.468 54.0829C112.914 54.6588 113.137 55.328 113.137 56.0907V56.2855H108.701C108.69 56.415 108.685 56.6534 108.685 57.001C108.685 58.7603 109.344 59.6395 110.662 59.6395C111.45 59.6395 112.213 59.263 112.95 58.5111L113.339 58.8926Z" fill="#870E12"/>
<path d="M116.522 57.7102C116.522 58.9864 117.171 59.6245 118.468 59.6245C119.786 59.6245 120.445 58.6571 120.445 56.722C120.445 54.797 119.791 53.8342 118.483 53.8342C117.83 53.8342 117.316 54.0752 116.943 54.5579C116.663 54.916 116.522 55.2952 116.522 55.6945V57.7102ZM114.281 62.9241C114.826 62.8724 115.098 62.4543 115.098 61.6713V56.5349C115.098 55.7358 115.173 55.1726 115.324 54.8459C115.853 53.6841 116.906 53.1031 118.483 53.1031C119.413 53.1031 120.214 53.383 120.888 53.943C121.682 54.6077 122.079 55.5335 122.079 56.722C122.079 57.8941 121.671 58.846 120.857 59.5779C120.24 60.1122 119.49 60.3793 118.608 60.3793C117.705 60.3793 117.013 60.1304 116.53 59.6319H116.522V61.6557C116.522 62.5009 116.837 62.9241 117.464 62.9241V63.5308H114.281V62.9241Z" fill="#870E12"/>
<path d="M130.217 58.9625C129.34 59.9381 128.334 60.4258 127.197 60.4258C126.253 60.4258 125.454 60.1249 124.8 59.5232C124.079 58.8695 123.719 57.9927 123.719 56.8925C123.719 55.8032 124.061 54.9002 124.746 54.1844C125.404 53.4478 126.256 53.0792 127.298 53.0792C128.051 53.0792 128.64 53.23 129.065 53.5305C129.459 53.7955 129.657 54.1065 129.657 54.4647C129.657 54.9108 129.415 55.134 128.933 55.134C128.435 55.134 128.175 54.8874 128.155 54.3943V54.3633C128.113 53.9382 127.844 53.7249 127.345 53.7249C126.785 53.7249 126.336 53.9589 125.999 54.4254C125.568 54.9653 125.353 55.7876 125.353 56.8925C125.353 57.8992 125.651 58.6203 126.248 59.0563C126.632 59.3572 127.083 59.5073 127.602 59.5073C128.526 59.5073 129.273 59.2017 129.844 58.5891L130.217 58.9625Z" fill="#870E12"/>
<path d="M134.914 53.188V53.8029C134.546 53.876 134.309 54.0205 134.206 54.2387C134.138 54.3994 134.105 54.6953 134.105 55.1258L134.112 57.7488L137.233 54.7835C137.192 54.2543 136.922 53.9276 136.424 53.8029V53.188H139.467V53.8029C139.129 53.876 138.906 54.0161 138.797 54.2237C138.704 54.3943 138.657 54.6953 138.657 55.1258V58.5032C138.657 59.3129 138.927 59.7487 139.467 59.8114V60.4258H136.385V59.8114C136.95 59.7487 137.233 59.3129 137.233 58.5032V55.8032L134.105 58.7214C134.11 59.3956 134.379 59.7593 134.914 59.8114V60.4258H131.832V59.8032C132.387 59.7516 132.665 59.3179 132.665 58.5032V55.1258C132.665 54.2905 132.387 53.8522 131.832 53.8106V53.188H134.914Z" fill="#870E12"/>
<path d="M148.2 53.188V55.5462H147.593C147.5 54.4103 146.88 53.8422 145.733 53.8422H145.469V58.5032C145.469 59.3179 145.754 59.7516 146.324 59.8032V60.4258H143.211V59.8114C143.58 59.7542 143.808 59.6294 143.896 59.4373C144 59.2561 144.052 58.9446 144.052 58.5032V53.8422H143.811C142.706 53.8422 142.078 54.4103 141.927 55.5462H141.32V53.188H148.2Z" fill="#870E12"/>
<path d="M154.048 55.5069C154.048 54.4178 153.61 53.8729 152.733 53.8729C151.758 53.8729 151.245 54.4562 151.192 55.6236H154.048V55.5069ZM155.8 58.8926C154.928 59.9351 153.953 60.457 152.874 60.457C152.059 60.457 151.343 60.2389 150.726 59.8029C149.916 59.2114 149.512 58.2877 149.512 57.032C149.512 55.8702 149.831 54.9236 150.469 54.1917C151.071 53.4653 151.854 53.1026 152.819 53.1026C153.711 53.1026 154.414 53.4287 154.928 54.0829C155.374 54.6588 155.597 55.328 155.597 56.0907V56.2855H151.161C151.151 56.415 151.146 56.6534 151.146 57.001C151.146 58.7603 151.804 59.6395 153.122 59.6395C153.911 59.6395 154.674 59.263 155.411 58.5111L155.8 58.8926Z" fill="#870E12"/>
<path d="M163.915 53.188V55.5462H163.308C163.214 54.4103 162.594 53.8422 161.447 53.8422H161.183V58.5032C161.183 59.3179 161.468 59.7516 162.039 59.8032V60.4258H158.926V59.8114C159.295 59.7542 159.523 59.6294 159.611 59.4373C159.714 59.2561 159.767 58.9446 159.767 58.5032V53.8422H159.526C158.42 53.8422 157.793 54.4103 157.642 55.5462H157.035V53.188H163.915Z" fill="#870E12"/>
</svg>
