<svg width="191" height="80" viewBox="0 0 191 80" fill="none" xmlns="http://www.w3.org/2000/svg">
<path opacity="0.1" d="M40.2372 53.5127C55.0921 53.5127 67.1345 41.5335 67.1345 26.7564C67.1345 11.9792 55.0921 0 40.2372 0C25.3822 0 13.3398 11.9792 13.3398 26.7564C13.3398 41.5335 25.3822 53.5127 40.2372 53.5127Z" fill="#3C3C3C"/>
<path d="M50.1934 30.6263C48.7245 28.3947 46.5533 26.7167 44.0234 25.8579C41.4936 24.9992 38.7496 25.0087 36.2257 25.885C35.5406 24.6967 35.1825 23.3482 35.1878 21.9766C35.1773 20.6976 35.483 19.4359 36.0775 18.3034C36.6721 17.171 37.5371 16.203 38.5959 15.4853C39.6546 14.7677 40.8742 14.3227 42.1463 14.1898C43.4184 14.0569 44.7036 14.2403 45.8877 14.7237C46.3491 14.0701 46.7847 13.2885 47.2461 12.3018C48.7753 13.1797 50.0716 14.4119 51.0259 15.8947C51.9803 17.3775 52.5649 19.0677 52.7306 20.8233L49.1298 26.1284L50.2062 30.6135L50.1934 30.6263Z" fill="white"/>
<path d="M12.6094 57.8826L14.8519 62.5726L14.4034 54.7559L12.6094 57.8826Z" fill="black"/>
<path d="M5.51953 59.702L29.4824 17.7606C30.4296 15.5711 31.9949 13.7055 33.9864 12.3922C35.978 11.0789 38.3094 10.375 40.6949 10.3667C43.104 10.3667 45.3722 11.033 47.2559 12.2889C46.7946 13.2756 46.3461 14.0572 45.8847 14.7236C44.6999 14.2375 43.4133 14.0519 42.1395 14.1835C40.8656 14.315 39.644 14.7596 38.5836 15.4776C37.5231 16.1955 36.6567 17.1646 36.0614 18.2985C35.4662 19.4324 35.1606 20.6959 35.1719 21.9765C35.1719 23.4117 35.5564 24.7316 36.2227 25.8721C37.4958 25.429 38.8344 25.2038 40.1824 25.2057C43.4077 25.2362 46.4895 26.5441 48.7522 28.8428C51.0149 31.1416 52.274 34.2436 52.2535 37.4691C52.2535 37.751 52.2022 38.0329 52.151 38.3661L52.1253 38.5326H52.1894L52.0613 39.2246C52.01 39.4553 51.9587 39.6859 51.9331 39.9166V39.9807C47.4097 63.3797 19.1924 62.8799 14.8228 62.6621L14.8484 62.5724L14.3999 54.7556L12.6315 57.8695L5.51953 59.702Z" fill="black"/>
<path d="M25.5165 53.8332L25.0039 54.2176C25.0039 54.2176 42.2648 51.3984 44.9943 36.9438L42.2648 37.8665C42.2648 37.8665 41.5472 49.079 25.5165 53.8332Z" fill="white"/>
<path d="M47.7719 21.259C48.6305 21.259 49.3353 20.5414 49.3353 19.67C49.3353 18.7987 48.6305 18.0811 47.7719 18.0811C46.9133 18.0811 46.2214 18.7987 46.2214 19.67C46.2214 20.5414 46.9133 21.2462 47.7719 21.2462V21.259ZM52.7182 20.849L49.6556 25.4621H57.8952L52.7054 20.849H52.7182ZM14.4033 54.7557L0 80L10.8025 76.4248L14.8518 62.5853L14.4033 54.7557Z" fill="black"/>
<path d="M72.412 55.422H67.5682L60.6484 35.5598H64.9925L69.9388 50.5654L74.8852 35.5469H79.2292L84.1756 50.5654L89.1219 35.5469H93.466L86.7 55.422H81.869L77.1277 41.8388L72.412 55.422ZM112.585 55.422H108.741V52.7566C107.932 53.7281 106.91 54.4996 105.754 55.0109C104.598 55.5222 103.34 55.7593 102.077 55.7039C100.205 55.7593 98.375 55.1358 96.9259 53.9484C96.25 53.3747 95.7148 52.6535 95.3615 51.8404C95.0083 51.0272 94.8464 50.1439 94.8884 49.2583C94.8884 47.2849 95.606 45.8112 97.0925 44.8886C98.5149 43.9019 100.501 43.415 102.974 43.415H108.408V42.6461C108.408 40.0192 106.921 38.6608 103.961 38.6608C102.09 38.6608 100.168 39.3144 98.1945 40.6855L96.3236 38.0586C98.6679 36.1612 101.599 35.1374 104.614 35.1625C106.985 35.1625 108.907 35.7648 110.381 36.9181C111.867 38.1098 112.636 39.9679 112.636 42.4795V55.422H112.585ZM108.356 47.9897V46.311H103.628C100.604 46.311 99.0659 47.2336 99.0659 49.143C99.0485 49.5845 99.1455 50.023 99.3476 50.4159C99.5497 50.8088 99.8499 51.1428 100.219 51.3855C100.988 51.8724 102.039 52.1544 103.359 52.1544C104.666 52.1544 105.883 51.7699 106.87 51.0011C107.351 50.6678 107.74 50.2179 108 49.6935C108.26 49.169 108.382 48.5872 108.356 48.0025V47.9897ZM135.446 35.5469V52.8591C135.446 56.3575 134.51 59.0357 132.588 60.7784C130.562 62.562 127.93 63.502 125.233 63.4054C122.209 63.4054 119.518 62.4699 117.096 60.6118L119.069 57.4467C120.75 58.8122 122.837 59.5787 125.002 59.6251C126.988 59.6251 128.59 59.1382 129.743 58.1002C130.897 57.0751 131.499 55.422 131.499 53.1923V50.6294C130.856 51.811 129.9 52.7926 128.736 53.4663C127.572 54.14 126.244 54.4797 124.9 54.4481C123.673 54.4811 122.454 54.2486 121.326 53.7664C120.198 53.2842 119.188 52.5638 118.364 51.6546C116.643 49.7828 115.715 47.3158 115.776 44.7733C115.776 42.0438 116.66 39.7501 118.351 37.892C119.176 36.9851 120.187 36.2671 121.315 35.7871C122.443 35.3072 123.661 35.0766 124.887 35.1113C126.148 35.0874 127.395 35.3742 128.519 35.9463C129.643 36.5184 130.61 37.3582 131.332 38.3917V35.4444H135.446V35.5469ZM119.838 44.722C119.792 46.2686 120.342 47.7736 121.376 48.9251C122.375 50.1297 123.746 50.6807 125.502 50.6807C127.206 50.6807 128.629 50.1297 129.679 48.9764C130.717 47.8231 131.268 46.4135 131.268 44.722C131.268 43.0305 130.73 41.5569 129.679 40.4036C129.153 39.8251 128.506 39.3692 127.784 39.068C127.062 38.7669 126.283 38.6279 125.502 38.6608C123.798 38.6608 122.426 39.2631 121.44 40.5189C120.338 41.6722 119.838 43.0818 119.838 44.722ZM146.005 38.8787V48.9764C146.005 49.9118 146.274 50.6807 146.774 51.2189C147.273 51.7699 147.978 52.039 148.862 52.039C149.747 52.039 150.618 51.6033 151.451 50.732L153.155 53.6793C151.827 54.9227 150.08 55.6224 148.26 55.6399C147.413 55.6612 146.57 55.5072 145.785 55.1874C145 54.8677 144.29 54.3891 143.698 53.7818C143.056 53.1305 142.554 52.3544 142.223 51.5015C141.892 50.6485 141.74 49.7367 141.776 48.8226V38.8787H139.239V35.4957H141.776V29.3192H146.005V35.5469H151.284V38.9299H146.005V38.8787ZM172.71 55.422H168.866V52.7566C168.058 53.7264 167.038 54.4968 165.885 55.008C164.731 55.5192 163.476 55.7573 162.215 55.7039C160.338 55.7624 158.503 55.1387 157.051 53.9484C156.375 53.3747 155.84 52.6535 155.486 51.8404C155.133 51.0272 154.971 50.1439 155.013 49.2583C155.013 47.2849 155.731 45.8112 157.217 44.8886C158.64 43.9019 160.626 43.415 163.099 43.415H168.532V42.6461C168.532 40.0192 167.059 38.6608 164.086 38.6608C162.215 38.6608 160.293 39.3144 158.319 40.6855L156.449 38.0586C158.793 36.1612 161.724 35.1374 164.739 35.1625C167.11 35.1625 169.032 35.7648 170.506 36.9181C172.005 38.1098 172.774 39.9679 172.774 42.4795V55.422H172.71ZM168.481 47.9897V46.311H163.753C160.729 46.311 159.191 47.2336 159.191 49.143C159.173 49.5845 159.27 50.023 159.473 50.4159C159.675 50.8088 159.975 51.1428 160.344 51.3855C161.113 51.8724 162.164 52.1544 163.484 52.1544C164.803 52.1544 166.008 51.7699 166.995 51.0011C167.476 50.6678 167.865 50.2179 168.125 49.6935C168.385 49.169 168.507 48.5872 168.481 48.0025V47.9897ZM178.105 31.5617C177.554 31.0107 177.336 30.4084 177.336 29.7036C177.336 28.9988 177.605 28.3325 178.105 27.8455C178.656 27.2945 179.258 27.0767 179.976 27.0767C180.321 27.0767 180.662 27.1446 180.981 27.2766C181.3 27.4086 181.589 27.6021 181.833 27.8461C182.077 28.09 182.271 28.3796 182.403 28.6983C182.535 29.017 182.603 29.3586 182.603 29.7036C182.603 30.0486 182.535 30.3902 182.403 30.7089C182.271 31.0276 182.077 31.3172 181.833 31.5611C181.589 31.8051 181.3 31.9986 180.981 32.1306C180.662 32.2626 180.321 32.3305 179.976 32.3305C179.626 32.353 179.276 32.2954 178.951 32.1621C178.627 32.0289 178.338 31.8236 178.105 31.5617ZM182.052 55.422H177.823V35.5469H182.052V55.422ZM190.855 55.422H186.626V27.6789H190.855V55.422Z" fill="black"/>
</svg>
