<svg width="246" height="50" viewBox="0 0 246 50" fill="none" xmlns="http://www.w3.org/2000/svg">
<path d="M139.366 18.5546H129.41V19.6165C132.507 19.6165 133.009 20.2802 133.009 24.2183V31.3422C133.009 35.295 132.522 36.0177 129.41 36.0177C127.021 35.6785 125.398 34.3953 123.186 31.9617L120.634 29.174C124.071 28.5693 125.9 26.4012 125.9 23.9528C125.9 20.8997 123.289 18.5693 118.407 18.5693H108.628V19.6165C111.726 19.6165 112.242 20.295 112.242 24.233V31.3422C112.242 35.295 111.74 36.0177 108.628 36.0177V37.0649H119.69V36.0177C116.578 36.0177 116.077 35.2802 116.077 31.3422V29.351H117.021L123.186 37.0649H139.351C147.286 37.0649 150.737 32.8466 150.737 27.7876C150.737 22.7286 147.286 18.5693 139.351 18.5693L139.366 18.5546ZM116.091 27.6106V20.2212H118.348C120.855 20.2212 121.962 21.9469 121.962 23.9381C121.962 25.885 120.855 27.6106 118.348 27.6106H116.091ZM139.543 35.3245H139.145C137.139 35.3245 136.858 34.8378 136.858 32.2714V20.2212H139.528C145.31 20.2212 146.357 24.4395 146.357 27.7139C146.357 31.1062 145.31 35.3245 139.528 35.3245H139.543ZM77.6991 29.6608L81.5339 18.3333C82.6401 15.059 82.1534 14.115 78.5841 14.115V12.9941H89.0413V14.115C85.531 14.115 84.705 14.941 83.3186 18.9971L76.9764 37.9941H76.2537L70.59 20.6047L64.8083 38.0089H64.0856L57.9204 18.9971C56.5929 14.941 55.708 14.115 52.4779 14.115V12.9941H64.8083V14.115C61.5339 14.115 60.649 14.882 61.8142 18.3333L65.531 29.6608L71.1357 12.9941H72.1976L77.6991 29.6608ZM96.5929 37.7729C90.472 37.7729 85.472 33.2743 85.472 27.7729C85.472 22.3304 90.4867 17.8319 96.5929 17.8319C102.699 17.8319 107.699 22.3304 107.699 27.7729C107.699 33.2743 102.699 37.7729 96.5929 37.7729ZM96.5929 19.5575C91.4749 19.5575 89.705 24.1593 89.705 27.7729C89.705 31.4454 91.4749 36.003 96.5929 36.003C101.755 36.003 103.525 31.4307 103.525 27.7729C103.525 24.1593 101.755 19.5575 96.5929 19.5575ZM164.469 35.944V37.0502H151.755V35.944C155.472 35.944 156.136 35 156.136 29.4543V20.5605C156.136 15 155.472 14.115 151.755 14.115V12.9941H163.26C168.968 12.9941 172.139 15.944 172.139 19.882C172.139 23.7168 168.968 26.7257 163.245 26.7257H160.088V29.4248C160.088 34.9853 160.752 35.9145 164.469 35.9145V35.944ZM163.245 15H160.088V24.6608H163.245C166.357 24.6608 167.817 22.4926 167.817 19.882C167.817 17.2271 166.357 15 163.245 15ZM210.295 31.8289L210.029 32.8319C209.528 34.6608 208.909 35.3392 204.971 35.3392H204.189C201.298 35.3392 200.796 34.6608 200.796 30.7227V28.1711C205.133 28.1711 205.472 28.5546 205.472 31.4454H206.519V23.1711H205.472C205.472 26.0472 205.133 26.4454 200.796 26.4454V20.2212H203.85C207.802 20.2212 208.422 20.885 208.909 22.7286L209.204 23.7758H210.088L209.69 18.5546H193.363V19.6165C196.46 19.6165 196.962 20.2802 196.962 24.2183V31.3422C196.962 34.9558 196.549 35.8702 194.086 35.9882C191.755 35.6342 190.162 34.3658 187.965 31.9617L185.413 29.174C188.864 28.5693 190.693 26.4012 190.693 23.9528C190.693 20.8997 188.083 18.5693 183.186 18.5693H173.422V19.6313C176.519 19.6313 177.021 20.295 177.021 24.233V31.3422C177.021 35.295 176.519 36.0177 173.422 36.0177V37.0649H184.484V36.0177C181.357 36.0177 180.855 35.2802 180.855 31.3422V29.351H181.799L187.965 37.0649H210.796L211.136 31.8437L210.295 31.8289ZM180.855 27.6106V20.2212H183.142C185.649 20.2212 186.755 21.9469 186.755 23.9381C186.755 25.885 185.634 27.6106 183.142 27.6106H180.855ZM221.578 37.7729C219.366 37.7729 217.404 36.6077 216.578 35.885C216.121 36.4245 215.815 37.0761 215.693 37.7729H214.631V30.1033H215.752C216.195 33.7758 218.746 35.944 222.021 35.944C223.791 35.944 225.251 34.941 225.251 33.2743C225.251 31.8289 223.968 30.7227 221.696 29.6608L218.525 28.1711C216.313 27.1092 214.631 25.2802 214.631 22.8319C214.631 20.177 217.139 17.8909 220.575 17.8909C222.404 17.8909 223.968 18.5546 224.911 19.3363C225.192 19.1151 225.472 18.4956 225.634 17.8319H226.681V24.3805H225.516C225.133 21.7699 223.687 19.6018 220.752 19.6018C219.189 19.6018 217.743 20.4867 217.743 21.8879C217.743 23.3333 218.923 24.1003 221.578 25.3245L224.631 26.8289C227.286 28.1121 228.348 30.1622 228.348 31.8437C228.348 35.3245 225.295 37.7729 221.578 37.7729ZM238.378 37.7729C236.165 37.7729 234.204 36.6077 233.363 35.885C232.905 36.4245 232.6 37.0761 232.478 37.7729H231.431V30.1033H232.537C232.979 33.7758 235.546 35.944 238.82 35.944C240.59 35.944 242.035 34.941 242.035 33.2743C242.035 31.8289 240.767 30.7227 238.496 29.6608L235.324 28.1711C233.097 27.1092 231.431 25.2802 231.431 22.8319C231.431 20.177 233.938 17.8909 237.375 17.8909C239.204 17.8909 240.767 18.5546 241.711 19.3363C241.991 19.1151 242.257 18.4956 242.434 17.8319H243.481V24.3805H242.316C241.932 21.7699 240.487 19.6018 237.537 19.6018C235.988 19.6018 234.543 20.4867 234.543 21.8879C234.543 23.3333 235.708 24.1003 238.378 25.3245L241.431 26.8289C244.086 28.1121 245.147 30.1622 245.147 31.8437C245.147 35.3245 242.094 37.7729 238.363 37.7729H238.378ZM24.9853 1.50443C29.6637 1.49805 34.2365 2.89557 38.1121 5.51623C41.8921 8.06124 44.8533 11.6475 46.6372 15.8407C48.1658 19.4468 48.7668 23.3783 48.3855 27.2763C48.0042 31.1744 46.6527 34.9149 44.4543 38.1564C41.9032 41.9331 38.3118 44.8892 34.1151 46.6667C30.5154 48.1813 26.5946 48.7736 22.7081 48.3899C18.8216 48.0061 15.0924 46.6585 11.8584 44.469C8.07295 41.9262 5.10645 38.3397 3.31859 34.1445C1.79919 30.5441 1.20303 26.6212 1.58423 22.7319C1.96543 18.8426 3.31192 15.1101 5.50149 11.8732C8.04649 8.09315 11.6327 5.13195 15.826 3.34809C18.7191 2.12465 21.8293 1.49759 24.9705 1.50443M24.9705 4.35121e-06C20.0272 0.00583713 15.1966 1.47702 11.0893 4.2276C6.98196 6.97818 3.78224 10.8847 1.89457 15.4533C0.00689867 20.022 -0.483978 25.0477 0.483981 29.8953C1.45194 34.7429 3.83528 39.1947 7.33277 42.6881C10.8303 46.1814 15.2849 48.5595 20.1336 49.5218C24.9823 50.484 30.0075 49.9872 34.5739 48.0942C39.1403 46.2011 43.0431 42.9968 45.7888 38.8862C48.5345 34.7756 50 29.9433 50 25C50 21.7157 49.3529 18.4636 48.0956 15.4295C46.8383 12.3954 44.9955 9.63878 42.6725 7.31712C40.3494 4.99546 37.5917 3.15428 34.5569 1.89878C31.522 0.643281 28.2695 -0.00193328 24.9853 4.35121e-06H24.9705Z" fill="#32373C"/>
<path d="M4.14844 24.9995C4.15168 28.9086 5.25429 32.738 7.33033 36.0502C9.40636 39.3625 12.3721 42.0241 15.8889 43.7311L5.9626 16.5334C4.76935 19.1965 4.15118 22.0813 4.14844 24.9995ZM39.0452 23.9523C39.0452 21.3712 38.1307 19.5865 37.3343 18.2001C36.2723 16.4892 35.2841 15.029 35.2841 13.3181C35.2841 11.4007 36.7443 9.63078 38.7797 9.63078H39.0599C36.8357 7.59319 34.1954 6.06309 31.3217 5.14631C28.448 4.22953 25.4094 3.94796 22.4161 4.32106C19.4228 4.69417 16.5464 5.71305 13.9856 7.30723C11.4249 8.90141 9.24097 11.0328 7.58502 13.5541L8.91245 13.5836C11.0953 13.5836 14.4729 13.3181 14.4729 13.3181C15.5939 13.2443 15.7266 14.8963 14.6057 15.029C14.6057 15.029 13.4847 15.1765 12.2163 15.2355L19.8122 37.8019L24.3697 24.1146L21.1248 15.2355C20.0039 15.1617 18.9419 15.029 18.9419 15.029C17.821 14.97 17.9537 13.2591 19.0747 13.3181C19.0747 13.3181 22.5113 13.5836 24.5614 13.5836C26.7296 13.5836 30.1071 13.3181 30.1071 13.3181C31.2281 13.2443 31.3608 14.8963 30.2546 15.029C30.2546 15.029 29.1189 15.1765 27.8653 15.2355L35.3874 37.6249L37.5408 30.8107C38.4847 27.8314 39.0452 25.7222 39.0452 23.9523ZM25.3579 26.8137L19.0894 44.9848C23.2867 46.2182 27.7657 46.0995 31.8918 44.6455C31.8341 44.5517 31.7848 44.453 31.7443 44.3505L25.3579 26.8137ZM43.2635 15.0143C43.3598 15.7182 43.409 16.4277 43.411 17.1381C43.411 19.262 43.0127 21.6367 41.8181 24.6013L35.4611 43.0084C40.157 40.2789 43.6018 35.8241 45.0619 30.5926C46.5219 25.3611 45.882 19.7662 43.2782 14.9995L43.2635 15.0143Z" fill="#32373C"/>
</svg>
